<svg xmlns="http://www.w3.org/2000/svg" width="940" height="512"><defs><linearGradient id="a" x1="50%" x2="50%" y1="0%" y2="100%"><stop offset="0%" stop-color="#32D5FF"/><stop offset="100%" stop-color="#00A7FF"/></linearGradient><linearGradient id="b" x1="50%" x2="50%" y1="0%" y2="100%"><stop offset="0%" stop-color="#F09947"/><stop offset="100%" stop-color="#FFCB1F"/></linearGradient><linearGradient id="c" x1="50%" x2="50%" y1="0%" y2="100%"><stop offset="0%" stop-color="#6146FF"/><stop offset="100%" stop-color="#9300FF"/></linearGradient><linearGradient id="d" x1="50%" x2="50%" y1="0%" y2="100%"><stop offset="0%" stop-color="#47F0E7"/><stop offset="100%" stop-color="#00E795"/></linearGradient><linearGradient id="e" x1="50%" x2="50%" y1="0%" y2="100%"><stop offset="0%" stop-color="#9300FF"/><stop offset="100%" stop-color="#6146FF"/></linearGradient><linearGradient id="f" x1="50%" x2="50%" y1="0%" y2="100%"><stop offset="0%" stop-color="#FF9D46"/><stop offset="100%" stop-color="#FF7800"/></linearGradient><linearGradient id="g" x1="50%" x2="50%" y1="0%" y2="100%"><stop offset="0%" stop-color="#EEFDA4"/><stop offset="100%" stop-color="#B8F623"/></linearGradient><linearGradient id="h" x1="50%" x2="50%" y1="0%" y2="100%"><stop offset="0%" stop-color="#5BFCD0"/><stop offset="100%" stop-color="#20CE4A"/></linearGradient><linearGradient id="i" x1="50%" x2="50%" y1="0%" y2="100%"><stop offset="0%" stop-color="#FFE775"/><stop offset="100%" stop-color="#FED421"/></linearGradient><linearGradient id="j" x1="50%" x2="50%" y1="0%" y2="100%"><stop offset="0%" stop-color="#508AFF"/><stop offset="100%" stop-color="#0018FF"/></linearGradient><linearGradient id="k" x1="50%" x2="50%" y1="0%" y2="100%"><stop offset="0%" stop-color="#FF7A00"/><stop offset="100%" stop-color="red"/></linearGradient><linearGradient id="l" x1="50%" x2="50%" y1="0%" y2="100%"><stop offset="0%" stop-color="#FF005B"/><stop offset="100%" stop-color="#FF5A6C"/></linearGradient><linearGradient id="m" x1="50%" x2="50%" y1="0%" y2="100%"><stop offset="0%" stop-color="#6CE5F1"/><stop offset="100%" stop-color="#20A5FF"/></linearGradient><linearGradient id="n" x1="50%" x2="50%" y1="0%" y2="100%"><stop offset="0%" stop-color="#F275D8"/><stop offset="100%" stop-color="#E54493"/></linearGradient></defs><g fill="none" fill-rule="evenodd"><g transform="translate(518 84)"><circle cx="18.5" cy="18.5" r="18.5" fill="#FAFAFA"/><path stroke="#9AEF7F" stroke-linecap="round" stroke-linejoin="round" stroke-width="3" d="M10 21.07l6.298 4.782L26.384 13"/></g><circle cx="753" cy="116" r="7.5" stroke="url(#a)" stroke-width="7"/><circle cx="263" cy="261" r="7.5" stroke="url(#b)" stroke-width="7"/><circle cx="459" cy="70" r="7.5" stroke="url(#c)" stroke-width="7"/><circle cx="697" cy="447" r="7.5" stroke="url(#d)" stroke-width="7"/><rect width="142" height="142" x="707" y="265" fill="#F8F8F8" rx="9"/><rect width="74" height="74" x="109" fill="url(#e)" rx="10"/><rect width="129" height="127" x="508" y="72" stroke="#E2E2E2" stroke-width="2" rx="10"/><rect width="139" height="136" x="90" y="336" stroke="#D7D7D7" stroke-width="2" rx="10"/><g transform="translate(542 145)"><rect width="200" height="200" fill="url(#f)" rx="10"/><text fill="#FFF" font-family="SF Pro Text" font-size="24" font-weight="bold" letter-spacing="-.576"><tspan x="9.5" y="35">Close Round A </tspan> <tspan x="48.571" y="63">funding</tspan></text></g><rect width="58" height="58" x="430" y="190" fill="url(#g)" rx="10"/><g transform="translate(308 272)"><rect width="200" height="200" fill="url(#h)" rx="12"/><text fill="#FFF" font-family="SF Pro Text" font-size="24" font-weight="bold" letter-spacing="-.576"><tspan x="10" y="37">Get promoted </tspan> <tspan x="14.303" y="65">to senior role</tspan></text></g><rect width="122" height="121" x=".5" fill="url(#i)" rx="12" transform="translate(542 391)"/><g transform="translate(208 27)"><rect width="200" height="200" fill="url(#j)" rx="12"/><text fill="#FFF" font-family="SF Pro Text" font-size="24" font-weight="bold" letter-spacing="-.576"><tspan x="35.361" y="33.879">Run 5 km </tspan> <tspan x="14.798" y="61.879">twice a week</tspan></text></g><rect width="90" height="90" x="597" y="27" fill="url(#k)" rx="10"/><rect width="144" height="144" x="796" y="200" fill="url(#l)" rx="10"/><rect width="115" height="115" x="159" y="303" fill="url(#m)" rx="10"/><text fill="#FFF" font-family="SF Pro Text" font-size="24" font-weight="bold" letter-spacing="-.576"><tspan x="183" y="373">Learn</tspan></text><rect width="182" height="181" y="98" fill="url(#n)" rx="10"/><text fill="#FFF" font-family="SF Pro Text" font-size="24" font-weight="bold" letter-spacing="-.576"><tspan x="39.958" y="173">Invent a </tspan> <tspan x="42.781" y="199">closure </tspan> <tspan x="19" y="225">mechanism</tspan></text><text fill="#FFF" font-family="SF Pro Text" font-size="22" font-weight="bold" letter-spacing="-.528"><tspan x="564" y="446">Launch</tspan> <tspan x="567.405" y="470">an app</tspan></text><text fill="#FFF" font-family="SF Pro Text" font-size="24" font-weight="bold" letter-spacing="-.576"><tspan x="825.934" y="228.879">Write</tspan> <tspan x="818.623" y="252.879">a book</tspan></text><text fill="#FFF" font-family="SF Pro Text" font-size="24" font-weight="bold" letter-spacing="-.576"><tspan x="611" y="84">Make</tspan></text><text fill="#FFF" font-family="SF Pro Text" font-size="24" font-weight="bold" letter-spacing="-.576"><tspan x="443" y="231">Go</tspan></text><text fill="#FFF" font-family="SF Pro Text" font-size="24" font-weight="bold" letter-spacing="-.576"><tspan x="130" y="49">Do</tspan></text></g></svg>