<?xml version="1.0" encoding="UTF-8"?>
<svg width="410px" height="100px" viewBox="0 0 410 100" version="1.1" xmlns="http://www.w3.org/2000/svg" xmlns:xlink="http://www.w3.org/1999/xlink">
    <title>Group 4 Copy</title>
    <defs>
        <linearGradient x1="50%" y1="-2.48949813e-15%" x2="50%" y2="100%" id="linearGradient-1">
            <stop stop-color="#E2E2E2" offset="0%"></stop>
            <stop stop-color="#BBBBBB" offset="100%"></stop>
        </linearGradient>
        <linearGradient x1="50%" y1="-2.48949813e-15%" x2="50%" y2="100%" id="linearGradient-2">
            <stop stop-color="#47F0E7" offset="0%"></stop>
            <stop stop-color="#00E795" offset="100%"></stop>
        </linearGradient>
    </defs>
    <g id="Web" stroke="none" stroke-width="1" fill="none" fill-rule="evenodd">
        <g id="Group-4-Copy">
            <g id="Group-3">
                <rect id="Rectangle-Copy-7" stroke="url(#linearGradient-1)" x="0.5" y="0.5" width="409" height="99" rx="12"></rect>
                <path d="M11.708,54 L12.674,51.41 L17.154,51.41 L18.134,54 L19.716,54 L15.768,44.032 L14.046,44.032 L10.154,54 L11.708,54 Z M16.664,50.108 L13.15,50.108 L13.36,49.562 C13.7426667,48.554 14.256,47.1913333 14.9,45.474 C15.4413333,46.9673333 15.9593333,48.33 16.454,49.562 L16.454,49.562 L16.664,50.108 Z M22.124,54 L22.124,47.924 L23.636,47.924 L23.636,46.776 L22.124,46.776 L22.124,46.118 C22.124,45.4833333 22.4366667,45.166 23.062,45.166 L23.062,45.166 L23.692,45.166 L23.692,44.032 C23.3,44.004 23.034,43.99 22.894,43.99 C21.4473333,43.99 20.724,44.6993333 20.724,46.118 L20.724,46.118 L20.724,46.776 L19.562,46.776 L19.562,47.924 L20.724,47.924 L20.724,54 L22.124,54 Z M27.388,54.042 C27.6493333,54.042 27.934,54.028 28.242,54 L28.242,54 L28.242,52.88 L27.612,52.88 C27.3133333,52.88 27.101,52.831 26.975,52.733 C26.849,52.635 26.786,52.4786667 26.786,52.264 L26.786,52.264 L26.786,47.924 L28.242,47.924 L28.242,46.776 L26.786,46.776 L26.786,44.704 L25.386,44.704 L25.386,46.776 L24.224,46.776 L24.224,47.924 L25.386,47.924 L25.386,52.39 C25.386,52.9686667 25.5493333,53.3886667 25.876,53.65 C26.2026667,53.9113333 26.7066667,54.042 27.388,54.042 Z M32.344,54.168 C33.1746667,54.168 33.8723333,53.9556667 34.437,53.531 C35.0016667,53.1063333 35.382,52.5253333 35.578,51.788 L35.578,51.788 L34.164,51.788 C33.884,52.5906667 33.2866667,52.992 32.372,52.992 C31.7653333,52.992 31.2846667,52.8123333 30.93,52.453 C30.5753333,52.0936667 30.3653333,51.5593333 30.3,50.85 L30.3,50.85 L35.746,50.85 L35.746,50.444 C35.746,49.324 35.4426667,48.4046667 34.836,47.686 C34.22,46.9673333 33.38,46.608 32.316,46.608 C31.2986667,46.608 30.4726667,46.9533333 29.838,47.644 C29.2033333,48.3346667 28.886,49.2493333 28.886,50.388 C28.886,51.5266667 29.2033333,52.4413333 29.838,53.132 C30.4726667,53.8226667 31.308,54.168 32.344,54.168 Z M34.304,49.744 L30.314,49.744 C30.398,49.1093333 30.615,48.624 30.965,48.288 C31.315,47.952 31.7653333,47.784 32.316,47.784 C32.876,47.784 33.331,47.9636667 33.681,48.323 C34.031,48.6823333 34.2386667,49.156 34.304,49.744 L34.304,49.744 Z M38.392,54 L38.392,50.08 C38.392,49.408 38.588,48.8946667 38.98,48.54 C39.372,48.1853333 39.9273333,48.008 40.646,48.008 L40.646,48.008 L40.996,48.008 L40.996,46.678 C40.9306667,46.6686667 40.7953333,46.664 40.59,46.664 C39.5446667,46.664 38.7933333,47.1306667 38.336,48.064 L38.336,48.064 L38.336,46.776 L36.992,46.776 L36.992,54 L38.392,54 Z M45.462,56.786 C46.1993333,56.786 46.7686667,56.646 47.17,56.366 C47.5713333,56.086 47.8933333,55.6006667 48.136,54.91 L48.136,54.91 L51.076,46.776 L49.592,46.776 L48.752,49.254 C48.388,50.374 48.024,51.5266667 47.66,52.712 C47.3893333,51.788 47.03,50.6353333 46.582,49.254 L46.582,49.254 L45.742,46.776 L44.216,46.776 L46.89,54.196 C46.862,54.2613333 46.827,54.3546667 46.785,54.476 C46.743,54.5973333 46.7126667,54.686 46.694,54.742 C46.4793333,55.3206667 46.0593333,55.61 45.434,55.61 L45.434,55.61 L44.734,55.61 L44.734,56.744 C44.9673333,56.772 45.21,56.786 45.462,56.786 Z M54.772,54.168 C55.836,54.168 56.6993333,53.8226667 57.362,53.132 C58.0153333,52.4506667 58.342,51.536 58.342,50.388 C58.342,49.2306667 58.0153333,48.3113333 57.362,47.63 C56.7086667,46.9486667 55.8453333,46.608 54.772,46.608 C53.6986667,46.608 52.8353333,46.9486667 52.182,47.63 C51.5193333,48.3206667 51.188,49.24 51.188,50.388 C51.188,51.5266667 51.5193333,52.4413333 52.182,53.132 C52.8446667,53.8226667 53.708,54.168 54.772,54.168 Z M54.772,52.964 C54.1186667,52.964 53.6006667,52.7353333 53.218,52.278 C52.8353333,51.8206667 52.644,51.1906667 52.644,50.388 C52.644,49.5853333 52.8353333,48.9553333 53.218,48.498 C53.6006667,48.0406667 54.1186667,47.812 54.772,47.812 C55.4253333,47.812 55.941,48.0406667 56.319,48.498 C56.697,48.9553333 56.886,49.5853333 56.886,50.388 C56.886,51.1906667 56.697,51.8206667 56.319,52.278 C55.941,52.7353333 55.4253333,52.964 54.772,52.964 Z M61.912,54.168 C62.8733333,54.168 63.6293333,53.7526667 64.18,52.922 L64.18,52.922 L64.18,54 L65.524,54 L65.524,46.776 L64.124,46.776 L64.124,50.85 C64.124,51.5033333 63.949,52.0143333 63.599,52.383 C63.249,52.7516667 62.8173333,52.936 62.304,52.936 C61.2866667,52.936 60.778,52.432 60.778,51.424 L60.778,51.424 L60.778,46.776 L59.378,46.776 L59.378,51.62 C59.378,52.4226667 59.602,53.048 60.05,53.496 C60.498,53.944 61.1186667,54.168 61.912,54.168 Z M67.974,47.896 L68.184,44.032 L66.686,44.032 L66.896,47.896 L67.974,47.896 Z M73.308,54 L76.08,46.776 L74.596,46.776 L73.63,49.422 C73.462,49.9353333 73.294,50.437 73.126,50.927 C72.958,51.417 72.8273333,51.802 72.734,52.082 C72.6406667,52.362 72.58,52.5486667 72.552,52.642 C72.5053333,52.4646667 72.1506667,51.3913333 71.488,49.422 L71.488,49.422 L70.508,46.776 L68.996,46.776 L71.754,54 L73.308,54 Z M79.65,54.168 C80.4806667,54.168 81.1783333,53.9556667 81.743,53.531 C82.3076667,53.1063333 82.688,52.5253333 82.884,51.788 L82.884,51.788 L81.47,51.788 C81.19,52.5906667 80.5926667,52.992 79.678,52.992 C79.0713333,52.992 78.5906667,52.8123333 78.236,52.453 C77.8813333,52.0936667 77.6713333,51.5593333 77.606,50.85 L77.606,50.85 L83.052,50.85 L83.052,50.444 C83.052,49.324 82.7486667,48.4046667 82.142,47.686 C81.526,46.9673333 80.686,46.608 79.622,46.608 C78.6046667,46.608 77.7786667,46.9533333 77.144,47.644 C76.5093333,48.3346667 76.192,49.2493333 76.192,50.388 C76.192,51.5266667 76.5093333,52.4413333 77.144,53.132 C77.7786667,53.8226667 78.614,54.168 79.65,54.168 Z M81.61,49.744 L77.62,49.744 C77.704,49.1093333 77.921,48.624 78.271,48.288 C78.621,47.952 79.0713333,47.784 79.622,47.784 C80.182,47.784 80.637,47.9636667 80.987,48.323 C81.337,48.6823333 81.5446667,49.156 81.61,49.744 L81.61,49.744 Z M90.094,54.168 C91.1486667,54.168 91.9466667,53.7573333 92.488,52.936 L92.488,52.936 L92.488,54 L93.832,54 L93.832,44.032 L92.432,44.032 L92.432,47.756 C91.8906667,46.9906667 91.1113333,46.608 90.094,46.608 C89.086,46.608 88.2833333,46.9486667 87.686,47.63 C87.0886667,48.3113333 86.79,49.2306667 86.79,50.388 C86.79,51.5453333 87.0886667,52.4646667 87.686,53.146 C88.2833333,53.8273333 89.086,54.168 90.094,54.168 Z M90.36,52.964 C89.716,52.964 89.2026667,52.7446667 88.82,52.306 C88.4373333,51.8673333 88.246,51.2466667 88.246,50.444 C88.246,49.6226667 88.4373333,48.9786667 88.82,48.512 C89.2026667,48.0453333 89.716,47.812 90.36,47.812 C91.0226667,47.812 91.5406667,48.036 91.914,48.484 C92.2873333,48.9413333 92.474,49.576 92.474,50.388 C92.474,51.2093333 92.2873333,51.8393333 91.914,52.278 C91.5406667,52.7353333 91.0226667,52.964 90.36,52.964 Z M98.536,54.168 C99.3666667,54.168 100.064333,53.9556667 100.629,53.531 C101.193667,53.1063333 101.574,52.5253333 101.77,51.788 L101.77,51.788 L100.356,51.788 C100.076,52.5906667 99.4786667,52.992 98.564,52.992 C97.9573333,52.992 97.4766667,52.8123333 97.122,52.453 C96.7673333,52.0936667 96.5573333,51.5593333 96.492,50.85 L96.492,50.85 L101.938,50.85 L101.938,50.444 C101.938,49.324 101.634667,48.4046667 101.028,47.686 C100.412,46.9673333 99.572,46.608 98.508,46.608 C97.4906667,46.608 96.6646667,46.9533333 96.03,47.644 C95.3953333,48.3346667 95.078,49.2493333 95.078,50.388 C95.078,51.5266667 95.3953333,52.4413333 96.03,53.132 C96.6646667,53.8226667 97.5,54.168 98.536,54.168 Z M100.496,49.744 L96.506,49.744 C96.59,49.1093333 96.807,48.624 97.157,48.288 C97.507,47.952 97.9573333,47.784 98.508,47.784 C99.068,47.784 99.523,47.9636667 99.873,48.323 C100.223,48.6823333 100.430667,49.156 100.496,49.744 L100.496,49.744 Z M104.766,54 L104.766,47.924 L106.278,47.924 L106.278,46.776 L104.766,46.776 L104.766,46.118 C104.766,45.4833333 105.078667,45.166 105.704,45.166 L105.704,45.166 L106.334,45.166 L106.334,44.032 C105.942,44.004 105.676,43.99 105.536,43.99 C104.089333,43.99 103.366,44.6993333 103.366,46.118 L103.366,46.118 L103.366,46.776 L102.204,46.776 L102.204,47.924 L103.366,47.924 L103.366,54 L104.766,54 Z M108.756,45.754 L108.756,44.256 L107.328,44.256 L107.328,45.754 L108.756,45.754 Z M108.742,54 L108.742,46.776 L107.342,46.776 L107.342,54 L108.742,54 Z M111.724,54 L111.724,49.926 C111.724,49.254 111.910667,48.736 112.284,48.372 C112.657333,48.0173333 113.077333,47.84 113.544,47.84 C114.561333,47.84 115.07,48.344 115.07,49.352 L115.07,49.352 L115.07,54 L116.47,54 L116.47,49.156 C116.47,48.344 116.246,47.7163333 115.798,47.273 C115.35,46.8296667 114.729333,46.608 113.936,46.608 C112.974667,46.608 112.218667,47.0233333 111.668,47.854 L111.668,47.854 L111.668,46.776 L110.324,46.776 L110.324,54 L111.724,54 Z M121.174,54.168 C122.004667,54.168 122.702333,53.9556667 123.267,53.531 C123.831667,53.1063333 124.212,52.5253333 124.408,51.788 L124.408,51.788 L122.994,51.788 C122.714,52.5906667 122.116667,52.992 121.202,52.992 C120.595333,52.992 120.114667,52.8123333 119.76,52.453 C119.405333,52.0936667 119.195333,51.5593333 119.13,50.85 L119.13,50.85 L124.576,50.85 L124.576,50.444 C124.576,49.324 124.272667,48.4046667 123.666,47.686 C123.05,46.9673333 122.21,46.608 121.146,46.608 C120.128667,46.608 119.302667,46.9533333 118.668,47.644 C118.033333,48.3346667 117.716,49.2493333 117.716,50.388 C117.716,51.5266667 118.033333,52.4413333 118.668,53.132 C119.302667,53.8226667 120.138,54.168 121.174,54.168 Z M123.134,49.744 L119.144,49.744 C119.228,49.1093333 119.445,48.624 119.795,48.288 C120.145,47.952 120.595333,47.784 121.146,47.784 C121.706,47.784 122.161,47.9636667 122.511,48.323 C122.861,48.6823333 123.068667,49.156 123.134,49.744 L123.134,49.744 Z M128.79,54.168 C129.844667,54.168 130.642667,53.7573333 131.184,52.936 L131.184,52.936 L131.184,54 L132.528,54 L132.528,44.032 L131.128,44.032 L131.128,47.756 C130.586667,46.9906667 129.807333,46.608 128.79,46.608 C127.782,46.608 126.979333,46.9486667 126.382,47.63 C125.784667,48.3113333 125.486,49.2306667 125.486,50.388 C125.486,51.5453333 125.784667,52.4646667 126.382,53.146 C126.979333,53.8273333 127.782,54.168 128.79,54.168 Z M129.056,52.964 C128.412,52.964 127.898667,52.7446667 127.516,52.306 C127.133333,51.8673333 126.942,51.2466667 126.942,50.444 C126.942,49.6226667 127.133333,48.9786667 127.516,48.512 C127.898667,48.0453333 128.412,47.812 129.056,47.812 C129.718667,47.812 130.236667,48.036 130.61,48.484 C130.983333,48.9413333 131.17,49.576 131.17,50.388 C131.17,51.2093333 130.983333,51.8393333 130.61,52.278 C130.236667,52.7353333 129.718667,52.964 129.056,52.964 Z M137.456,56.786 C138.193333,56.786 138.762667,56.646 139.164,56.366 C139.565333,56.086 139.887333,55.6006667 140.13,54.91 L140.13,54.91 L143.07,46.776 L141.586,46.776 L140.746,49.254 C140.382,50.374 140.018,51.5266667 139.654,52.712 C139.383333,51.788 139.024,50.6353333 138.576,49.254 L138.576,49.254 L137.736,46.776 L136.21,46.776 L138.884,54.196 C138.856,54.2613333 138.821,54.3546667 138.779,54.476 C138.737,54.5973333 138.706667,54.686 138.688,54.742 C138.473333,55.3206667 138.053333,55.61 137.428,55.61 L137.428,55.61 L136.728,55.61 L136.728,56.744 C136.961333,56.772 137.204,56.786 137.456,56.786 Z M146.766,54.168 C147.83,54.168 148.693333,53.8226667 149.356,53.132 C150.009333,52.4506667 150.336,51.536 150.336,50.388 C150.336,49.2306667 150.009333,48.3113333 149.356,47.63 C148.702667,46.9486667 147.839333,46.608 146.766,46.608 C145.692667,46.608 144.829333,46.9486667 144.176,47.63 C143.513333,48.3206667 143.182,49.24 143.182,50.388 C143.182,51.5266667 143.513333,52.4413333 144.176,53.132 C144.838667,53.8226667 145.702,54.168 146.766,54.168 Z M146.766,52.964 C146.112667,52.964 145.594667,52.7353333 145.212,52.278 C144.829333,51.8206667 144.638,51.1906667 144.638,50.388 C144.638,49.5853333 144.829333,48.9553333 145.212,48.498 C145.594667,48.0406667 146.112667,47.812 146.766,47.812 C147.419333,47.812 147.935,48.0406667 148.313,48.498 C148.691,48.9553333 148.88,49.5853333 148.88,50.388 C148.88,51.1906667 148.691,51.8206667 148.313,52.278 C147.935,52.7353333 147.419333,52.964 146.766,52.964 Z M153.906,54.168 C154.867333,54.168 155.623333,53.7526667 156.174,52.922 L156.174,52.922 L156.174,54 L157.518,54 L157.518,46.776 L156.118,46.776 L156.118,50.85 C156.118,51.5033333 155.943,52.0143333 155.593,52.383 C155.243,52.7516667 154.811333,52.936 154.298,52.936 C153.280667,52.936 152.772,52.432 152.772,51.424 L152.772,51.424 L152.772,46.776 L151.372,46.776 L151.372,51.62 C151.372,52.4226667 151.596,53.048 152.044,53.496 C152.492,53.944 153.112667,54.168 153.906,54.168 Z M160.5,54 L160.5,50.08 C160.5,49.408 160.696,48.8946667 161.088,48.54 C161.48,48.1853333 162.035333,48.008 162.754,48.008 L162.754,48.008 L163.104,48.008 L163.104,46.678 C163.038667,46.6686667 162.903333,46.664 162.698,46.664 C161.652667,46.664 160.901333,47.1306667 160.444,48.064 L160.444,48.064 L160.444,46.776 L159.1,46.776 L159.1,54 L160.5,54 Z M168.452,54 L168.452,50.038 C168.452,49.338 168.610667,48.7966667 168.928,48.414 C169.245333,48.0313333 169.651333,47.84 170.146,47.84 C171.079333,47.84 171.546,48.3393333 171.546,49.338 L171.546,49.338 L171.546,54 L172.946,54 L172.946,50.038 C172.946,49.3286667 173.104667,48.785 173.422,48.407 C173.739333,48.029 174.145333,47.84 174.64,47.84 C175.564,47.84 176.026,48.3393333 176.026,49.338 L176.026,49.338 L176.026,54 L177.44,54 L177.44,49.156 C177.44,48.3813333 177.220667,47.763 176.782,47.301 C176.343333,46.839 175.732,46.608 174.948,46.608 C173.968,46.608 173.221333,47.0606667 172.708,47.966 C172.316,47.0606667 171.574,46.608 170.482,46.608 C169.586,46.608 168.890667,47.0233333 168.396,47.854 L168.396,47.854 L168.396,46.776 L167.052,46.776 L167.052,54 L168.452,54 Z M182.256,54.168 C183.32,54.168 184.183333,53.8226667 184.846,53.132 C185.499333,52.4506667 185.826,51.536 185.826,50.388 C185.826,49.2306667 185.499333,48.3113333 184.846,47.63 C184.192667,46.9486667 183.329333,46.608 182.256,46.608 C181.182667,46.608 180.319333,46.9486667 179.666,47.63 C179.003333,48.3206667 178.672,49.24 178.672,50.388 C178.672,51.5266667 179.003333,52.4413333 179.666,53.132 C180.328667,53.8226667 181.192,54.168 182.256,54.168 Z M182.256,52.964 C181.602667,52.964 181.084667,52.7353333 180.702,52.278 C180.319333,51.8206667 180.128,51.1906667 180.128,50.388 C180.128,49.5853333 180.319333,48.9553333 180.702,48.498 C181.084667,48.0406667 181.602667,47.812 182.256,47.812 C182.909333,47.812 183.425,48.0406667 183.803,48.498 C184.181,48.9553333 184.37,49.5853333 184.37,50.388 C184.37,51.1906667 184.181,51.8206667 183.803,52.278 C183.425,52.7353333 182.909333,52.964 182.256,52.964 Z M188.458,54 L188.458,49.926 C188.458,49.254 188.644667,48.736 189.018,48.372 C189.391333,48.0173333 189.811333,47.84 190.278,47.84 C191.295333,47.84 191.804,48.344 191.804,49.352 L191.804,49.352 L191.804,54 L193.204,54 L193.204,49.156 C193.204,48.344 192.98,47.7163333 192.532,47.273 C192.084,46.8296667 191.463333,46.608 190.67,46.608 C189.708667,46.608 188.952667,47.0233333 188.402,47.854 L188.402,47.854 L188.402,46.776 L187.058,46.776 L187.058,54 L188.458,54 Z M197.096,54.042 C197.357333,54.042 197.642,54.028 197.95,54 L197.95,54 L197.95,52.88 L197.32,52.88 C197.021333,52.88 196.809,52.831 196.683,52.733 C196.557,52.635 196.494,52.4786667 196.494,52.264 L196.494,52.264 L196.494,47.924 L197.95,47.924 L197.95,46.776 L196.494,46.776 L196.494,44.704 L195.094,44.704 L195.094,46.776 L193.932,46.776 L193.932,47.924 L195.094,47.924 L195.094,52.39 C195.094,52.9686667 195.257333,53.3886667 195.584,53.65 C195.910667,53.9113333 196.414667,54.042 197.096,54.042 Z M200.47,54 L200.47,49.926 C200.47,49.254 200.656667,48.736 201.03,48.372 C201.403333,48.0173333 201.823333,47.84 202.29,47.84 C203.307333,47.84 203.816,48.344 203.816,49.352 L203.816,49.352 L203.816,54 L205.216,54 L205.216,49.156 C205.216,48.344 204.992,47.7163333 204.544,47.273 C204.096,46.8296667 203.475333,46.608 202.682,46.608 C201.758,46.608 201.020667,46.9953333 200.47,47.77 L200.47,47.77 L200.47,44.032 L199.07,44.032 L199.07,54 L200.47,54 Z M208.198,54 L208.198,44.032 L206.798,44.032 L206.798,54 L208.198,54 Z M210.158,56.786 C210.895333,56.786 211.464667,56.646 211.866,56.366 C212.267333,56.086 212.589333,55.6006667 212.832,54.91 L212.832,54.91 L215.772,46.776 L214.288,46.776 L213.448,49.254 C213.084,50.374 212.72,51.5266667 212.356,52.712 C212.085333,51.788 211.726,50.6353333 211.278,49.254 L211.278,49.254 L210.438,46.776 L208.912,46.776 L211.586,54.196 C211.558,54.2613333 211.523,54.3546667 211.481,54.476 C211.46,54.5366667 211.441917,54.5891667 211.42675,54.6335 L211.39,54.742 C211.175333,55.3206667 210.755333,55.61 210.13,55.61 L210.13,55.61 L209.43,55.61 L209.43,56.744 C209.663333,56.772 209.906,56.786 210.158,56.786 Z M222.702,56.912 C223.803333,56.912 224.652667,56.6296667 225.25,56.065 C225.847333,55.5003333 226.146,54.7233333 226.146,53.734 L226.146,53.734 L226.146,46.776 L224.802,46.776 L224.802,47.798 C224.260667,47.0046667 223.462667,46.608 222.408,46.608 C221.409333,46.608 220.611333,46.9486667 220.014,47.63 C219.407333,48.3206667 219.104,49.226 219.104,50.346 C219.104,51.466 219.407333,52.3713333 220.014,53.062 C220.611333,53.7433333 221.414,54.084 222.422,54.084 C223.420667,54.084 224.195333,53.7106667 224.746,52.964 L224.746,52.964 L224.746,53.762 C224.746,55.106 224.069333,55.778 222.716,55.778 C221.624,55.778 221.022,55.3533333 220.91,54.504 L220.91,54.504 L219.51,54.504 C219.584667,55.2506667 219.899667,55.8386667 220.455,56.268 C221.010333,56.6973333 221.759333,56.912 222.702,56.912 Z M222.674,52.88 C222.03,52.88 221.516667,52.6536667 221.134,52.201 C220.751333,51.7483333 220.56,51.13 220.56,50.346 C220.56,49.5713333 220.751333,48.9553333 221.134,48.498 C221.516667,48.0406667 222.03,47.812 222.674,47.812 C223.327333,47.812 223.843,48.0383333 224.221,48.491 C224.599,48.9436667 224.788,49.562 224.788,50.346 C224.788,51.13 224.599,51.7483333 224.221,52.201 C223.843,52.6536667 223.327333,52.88 222.674,52.88 Z M230.976,54.168 C232.04,54.168 232.903333,53.8226667 233.566,53.132 C234.219333,52.4506667 234.546,51.536 234.546,50.388 C234.546,49.2306667 234.219333,48.3113333 233.566,47.63 C232.912667,46.9486667 232.049333,46.608 230.976,46.608 C229.902667,46.608 229.039333,46.9486667 228.386,47.63 C227.723333,48.3206667 227.392,49.24 227.392,50.388 C227.392,51.5266667 227.723333,52.4413333 228.386,53.132 C229.048667,53.8226667 229.912,54.168 230.976,54.168 Z M230.976,52.964 C230.322667,52.964 229.804667,52.7353333 229.422,52.278 C229.039333,51.8206667 228.848,51.1906667 228.848,50.388 C228.848,49.5853333 229.039333,48.9553333 229.422,48.498 C229.804667,48.0406667 230.322667,47.812 230.976,47.812 C231.629333,47.812 232.145,48.0406667 232.523,48.498 C232.901,48.9553333 233.09,49.5853333 233.09,50.388 C233.09,51.1906667 232.901,51.8206667 232.523,52.278 C232.145,52.7353333 231.629333,52.964 230.976,52.964 Z M237.836,54.168 C238.918667,54.168 239.702667,53.7853333 240.188,53.02 C240.234667,53.3746667 240.367667,53.6336667 240.587,53.797 C240.806333,53.9603333 241.14,54.042 241.588,54.042 C241.84,54.042 242.068667,54.028 242.274,54 L242.274,54 L242.274,52.922 L241.882,52.922 C241.620667,52.922 241.49,52.8006667 241.49,52.558 L241.49,52.558 L241.49,48.736 C241.49,47.3173333 240.538,46.608 238.634,46.608 C236.692667,46.608 235.670667,47.4153333 235.568,49.03 L235.568,49.03 L236.954,49.03 C236.991333,48.5446667 237.136,48.2063333 237.388,48.015 C237.64,47.8236667 238.055333,47.728 238.634,47.728 C239.166,47.728 239.546333,47.8096667 239.775,47.973 C240.003667,48.1363333 240.118,48.4 240.118,48.764 C240.118,49.0346667 240.031667,49.2423333 239.859,49.387 C239.686333,49.5316667 239.413333,49.6273333 239.04,49.674 L239.04,49.674 L237.976,49.786 C236.165333,49.9726667 235.26,50.7193333 235.26,52.026 C235.26,52.698 235.491,53.223 235.953,53.601 C236.415,53.979 237.042667,54.168 237.836,54.168 Z M238.046,53.076 C237.607333,53.076 237.273667,52.9803333 237.045,52.789 C236.816333,52.5976667 236.702,52.3293333 236.702,51.984 C236.702,51.6386667 236.818667,51.3703333 237.052,51.179 C237.285333,50.9876667 237.672667,50.8593333 238.214,50.794 L238.214,50.794 L239.222,50.682 C239.642,50.6353333 239.940667,50.5373333 240.118,50.388 L240.118,50.388 L240.118,51.144 C240.118,51.76 239.922,52.236 239.53,52.572 C239.138,52.908 238.643333,53.076 238.046,53.076 Z M244.542,54 L244.542,44.032 L243.142,44.032 L243.142,54 L244.542,54 Z M248.784,54.182 C249.736,54.182 250.478,53.9883333 251.01,53.601 C251.542,53.2136667 251.808,52.67 251.808,51.97 C251.808,51.3726667 251.612,50.906 251.22,50.57 C250.828,50.234 250.188667,49.982 249.302,49.814 L249.302,49.814 L248.546,49.688 C248.079333,49.5946667 247.738667,49.471 247.524,49.317 C247.309333,49.163 247.202,48.946 247.202,48.666 C247.202,48.358 247.323333,48.12 247.566,47.952 C247.808667,47.784 248.154,47.7 248.602,47.7 C249.162,47.7 249.577333,47.8003333 249.848,48.001 C250.118667,48.2016667 250.268,48.5446667 250.296,49.03 L250.296,49.03 L251.654,49.03 C251.607333,47.4153333 250.59,46.608 248.602,46.608 C247.734,46.608 247.052667,46.797 246.558,47.175 C246.063333,47.553 245.816,48.064 245.816,48.708 C245.816,49.8653333 246.581333,50.584 248.112,50.864 L248.112,50.864 L248.854,51.004 C249.432667,51.1066667 249.834,51.2373333 250.058,51.396 C250.282,51.5546667 250.394,51.7786667 250.394,52.068 C250.394,52.74 249.862,53.076 248.798,53.076 C248.21,53.076 247.780667,52.9733333 247.51,52.768 C247.239333,52.5626667 247.076,52.208 247.02,51.704 L247.02,51.704 L245.62,51.704 C245.722667,53.356 246.777333,54.182 248.784,54.182 Z M252.648,56.058 L252.83,56.044 C253.838,55.988 254.342,55.3533333 254.342,54.14 L254.342,54.14 L254.342,52.334 L252.648,52.334 L252.648,54 L253.376,54 L253.376,54.224 C253.376,54.812 253.184667,55.1293333 252.802,55.176 L252.802,55.176 L252.648,55.19 L252.648,56.058 Z M13.892,72.168 C14.76,72.168 15.488,71.9206667 16.076,71.426 C16.664,70.9313333 17.014,70.264 17.126,69.424 L17.126,69.424 L15.698,69.424 C15.614,69.9186667 15.4086667,70.2966667 15.082,70.558 C14.7553333,70.8193333 14.3586667,70.95 13.892,70.95 C13.2853333,70.95 12.8023333,70.7283333 12.443,70.285 C12.0836667,69.8416667 11.904,69.2093333 11.904,68.388 C11.904,67.5666667 12.0836667,66.9343333 12.443,66.491 C12.8023333,66.0476667 13.2853333,65.826 13.892,65.826 C14.3493333,65.826 14.739,65.952 15.061,66.204 C15.383,66.456 15.5906667,66.82 15.684,67.296 L15.684,67.296 L17.112,67.296 C17,66.4746667 16.657,65.8213333 16.083,65.336 C15.509,64.8506667 14.7786667,64.608 13.892,64.608 C12.856,64.608 12.0253333,64.9486667 11.4,65.63 C10.7653333,66.3206667 10.448,67.24 10.448,68.388 C10.448,69.5266667 10.7653333,70.4413333 11.4,71.132 C12.0346667,71.8226667 12.8653333,72.168 13.892,72.168 Z M19.618,72 L19.618,62.032 L18.218,62.032 L18.218,72 L19.618,72 Z M22.6,63.754 L22.6,62.256 L21.172,62.256 L21.172,63.754 L22.6,63.754 Z M22.586,72 L22.586,64.776 L21.186,64.776 L21.186,72 L22.586,72 Z M27.262,72.168 C28.13,72.168 28.858,71.9206667 29.446,71.426 C30.034,70.9313333 30.384,70.264 30.496,69.424 L30.496,69.424 L29.068,69.424 C28.984,69.9186667 28.7786667,70.2966667 28.452,70.558 C28.1253333,70.8193333 27.7286667,70.95 27.262,70.95 C26.6553333,70.95 26.1723333,70.7283333 25.813,70.285 C25.4536667,69.8416667 25.274,69.2093333 25.274,68.388 C25.274,67.5666667 25.4536667,66.9343333 25.813,66.491 C26.1723333,66.0476667 26.6553333,65.826 27.262,65.826 C27.7193333,65.826 28.109,65.952 28.431,66.204 C28.753,66.456 28.9606667,66.82 29.054,67.296 L29.054,67.296 L30.482,67.296 C30.37,66.4746667 30.027,65.8213333 29.453,65.336 C28.879,64.8506667 28.1486667,64.608 27.262,64.608 C26.226,64.608 25.3953333,64.9486667 24.77,65.63 C24.1353333,66.3206667 23.818,67.24 23.818,68.388 C23.818,69.5266667 24.1353333,70.4413333 24.77,71.132 C25.4046667,71.8226667 26.2353333,72.168 27.262,72.168 Z M32.974,72 L32.974,69.522 L34.178,68.346 L36.474,72 L38.084,72 L35.172,67.436 L37.902,64.776 L36.152,64.776 L32.974,67.912 L32.974,62.032 L31.588,62.032 L31.588,72 L32.974,72 Z M43.124,65.896 L43.334,62.032 L41.836,62.032 L42.046,65.896 L43.124,65.896 Z M48.57,70.138 L48.57,67.632 L51.09,67.632 L51.09,66.4 L48.57,66.4 L48.57,63.88 L47.24,63.88 L47.24,66.4 L44.72,66.4 L44.72,67.632 L47.24,67.632 L47.24,70.138 L48.57,70.138 Z M53.764,65.896 L53.974,62.032 L52.476,62.032 L52.686,65.896 L53.764,65.896 Z M60.624,72.168 C61.7066667,72.168 62.4906667,71.7853333 62.976,71.02 C63.0226667,71.3746667 63.1556667,71.6336667 63.375,71.797 C63.5943333,71.9603333 63.928,72.042 64.376,72.042 C64.628,72.042 64.8566667,72.028 65.062,72 L65.062,72 L65.062,70.922 L64.67,70.922 C64.4086667,70.922 64.278,70.8006667 64.278,70.558 L64.278,70.558 L64.278,66.736 C64.278,65.3173333 63.326,64.608 61.422,64.608 C59.4806667,64.608 58.4586667,65.4153333 58.356,67.03 L58.356,67.03 L59.742,67.03 C59.7793333,66.5446667 59.924,66.2063333 60.176,66.015 C60.428,65.8236667 60.8433333,65.728 61.422,65.728 C61.954,65.728 62.3343333,65.8096667 62.563,65.973 C62.7916667,66.1363333 62.906,66.4 62.906,66.764 C62.906,67.0346667 62.8196667,67.2423333 62.647,67.387 C62.4743333,67.5316667 62.2013333,67.6273333 61.828,67.674 L61.828,67.674 L60.764,67.786 C58.9533333,67.9726667 58.048,68.7193333 58.048,70.026 C58.048,70.698 58.279,71.223 58.741,71.601 C59.203,71.979 59.8306667,72.168 60.624,72.168 Z M60.834,71.076 C60.3953333,71.076 60.0616667,70.9803333 59.833,70.789 C59.6043333,70.5976667 59.49,70.3293333 59.49,69.984 C59.49,69.6386667 59.6066667,69.3703333 59.84,69.179 C60.0733333,68.9876667 60.4606667,68.8593333 61.002,68.794 L61.002,68.794 L62.01,68.682 C62.43,68.6353333 62.7286667,68.5373333 62.906,68.388 L62.906,68.388 L62.906,69.144 C62.906,69.76 62.71,70.236 62.318,70.572 C61.926,70.908 61.4313333,71.076 60.834,71.076 Z M67.386,72 L67.386,67.926 C67.386,67.254 67.5726667,66.736 67.946,66.372 C68.3193333,66.0173333 68.7393333,65.84 69.206,65.84 C70.2233333,65.84 70.732,66.344 70.732,67.352 L70.732,67.352 L70.732,72 L72.132,72 L72.132,67.156 C72.132,66.344 71.908,65.7163333 71.46,65.273 C71.012,64.8296667 70.3913333,64.608 69.598,64.608 C68.6366667,64.608 67.8806667,65.0233333 67.33,65.854 L67.33,65.854 L67.33,64.776 L65.986,64.776 L65.986,72 L67.386,72 Z M76.682,72.168 C77.7366667,72.168 78.5346667,71.7573333 79.076,70.936 L79.076,70.936 L79.076,72 L80.42,72 L80.42,62.032 L79.02,62.032 L79.02,65.756 C78.4786667,64.9906667 77.6993333,64.608 76.682,64.608 C75.674,64.608 74.8713333,64.9486667 74.274,65.63 C73.6766667,66.3113333 73.378,67.2306667 73.378,68.388 C73.378,69.5453333 73.6766667,70.4646667 74.274,71.146 C74.8713333,71.8273333 75.674,72.168 76.682,72.168 Z M76.948,70.964 C76.304,70.964 75.7906667,70.7446667 75.408,70.306 C75.0253333,69.8673333 74.834,69.2466667 74.834,68.444 C74.834,67.6226667 75.0253333,66.9786667 75.408,66.512 C75.7906667,66.0453333 76.304,65.812 76.948,65.812 C77.6106667,65.812 78.1286667,66.036 78.502,66.484 C78.8753333,66.9413333 79.062,67.576 79.062,68.388 C79.062,69.2093333 78.8753333,69.8393333 78.502,70.278 C78.1286667,70.7353333 77.6106667,70.964 76.948,70.964 Z M87.798,72.168 C88.8526667,72.168 89.6506667,71.7573333 90.192,70.936 L90.192,70.936 L90.192,72 L91.536,72 L91.536,62.032 L90.136,62.032 L90.136,65.756 C89.5946667,64.9906667 88.8153333,64.608 87.798,64.608 C86.79,64.608 85.9873333,64.9486667 85.39,65.63 C84.7926667,66.3113333 84.494,67.2306667 84.494,68.388 C84.494,69.5453333 84.7926667,70.4646667 85.39,71.146 C85.9873333,71.8273333 86.79,72.168 87.798,72.168 Z M88.064,70.964 C87.42,70.964 86.9066667,70.7446667 86.524,70.306 C86.1413333,69.8673333 85.95,69.2466667 85.95,68.444 C85.95,67.6226667 86.1413333,66.9786667 86.524,66.512 C86.9066667,66.0453333 87.42,65.812 88.064,65.812 C88.7266667,65.812 89.2446667,66.036 89.618,66.484 C89.9913333,66.9413333 90.178,67.576 90.178,68.388 C90.178,69.2093333 89.9913333,69.8393333 89.618,70.278 C89.2446667,70.7353333 88.7266667,70.964 88.064,70.964 Z M96.24,72.168 C97.0706667,72.168 97.7683333,71.9556667 98.333,71.531 C98.8976667,71.1063333 99.278,70.5253333 99.474,69.788 L99.474,69.788 L98.06,69.788 C97.78,70.5906667 97.1826667,70.992 96.268,70.992 C95.6613333,70.992 95.1806667,70.8123333 94.826,70.453 C94.4713333,70.0936667 94.2613333,69.5593333 94.196,68.85 L94.196,68.85 L99.642,68.85 L99.642,68.444 C99.642,67.324 99.3386667,66.4046667 98.732,65.686 C98.116,64.9673333 97.276,64.608 96.212,64.608 C95.1946667,64.608 94.3686667,64.9533333 93.734,65.644 C93.0993333,66.3346667 92.782,67.2493333 92.782,68.388 C92.782,69.5266667 93.0993333,70.4413333 93.734,71.132 C94.3686667,71.8226667 95.204,72.168 96.24,72.168 Z M98.2,67.744 L94.21,67.744 C94.294,67.1093333 94.511,66.624 94.861,66.288 C95.211,65.952 95.6613333,65.784 96.212,65.784 C96.772,65.784 97.227,65.9636667 97.577,66.323 C97.927,66.6823333 98.1346667,67.156 98.2,67.744 L98.2,67.744 Z M102.47,72 L102.47,65.924 L103.982,65.924 L103.982,64.776 L102.47,64.776 L102.47,64.118 C102.47,63.4833333 102.782667,63.166 103.408,63.166 L103.408,63.166 L104.038,63.166 L104.038,62.032 C103.646,62.004 103.38,61.99 103.24,61.99 C101.793333,61.99 101.07,62.6993333 101.07,64.118 L101.07,64.118 L101.07,64.776 L99.908,64.776 L99.908,65.924 L101.07,65.924 L101.07,72 L102.47,72 Z M106.46,63.754 L106.46,62.256 L105.032,62.256 L105.032,63.754 L106.46,63.754 Z M106.446,72 L106.446,64.776 L105.046,64.776 L105.046,72 L106.446,72 Z M109.428,72 L109.428,67.926 C109.428,67.254 109.614667,66.736 109.988,66.372 C110.361333,66.0173333 110.781333,65.84 111.248,65.84 C112.265333,65.84 112.774,66.344 112.774,67.352 L112.774,67.352 L112.774,72 L114.174,72 L114.174,67.156 C114.174,66.344 113.95,65.7163333 113.502,65.273 C113.054,64.8296667 112.433333,64.608 111.64,64.608 C110.678667,64.608 109.922667,65.0233333 109.372,65.854 L109.372,65.854 L109.372,64.776 L108.028,64.776 L108.028,72 L109.428,72 Z M118.878,72.168 C119.708667,72.168 120.406333,71.9556667 120.971,71.531 C121.535667,71.1063333 121.916,70.5253333 122.112,69.788 L122.112,69.788 L120.698,69.788 C120.418,70.5906667 119.820667,70.992 118.906,70.992 C118.299333,70.992 117.818667,70.8123333 117.464,70.453 C117.109333,70.0936667 116.899333,69.5593333 116.834,68.85 L116.834,68.85 L122.28,68.85 L122.28,68.444 C122.28,67.324 121.976667,66.4046667 121.37,65.686 C120.754,64.9673333 119.914,64.608 118.85,64.608 C117.832667,64.608 117.006667,64.9533333 116.372,65.644 C115.737333,66.3346667 115.42,67.2493333 115.42,68.388 C115.42,69.5266667 115.737333,70.4413333 116.372,71.132 C117.006667,71.8226667 117.842,72.168 118.878,72.168 Z M120.838,67.744 L116.848,67.744 C116.932,67.1093333 117.149,66.624 117.499,66.288 C117.849,65.952 118.299333,65.784 118.85,65.784 C119.41,65.784 119.865,65.9636667 120.215,66.323 C120.565,66.6823333 120.772667,67.156 120.838,67.744 L120.838,67.744 Z M129.504,72 L130.484,68.822 C130.624,68.3646667 130.848,67.59 131.156,66.498 C131.361333,67.2446667 131.59,68.0193333 131.842,68.822 L131.842,68.822 L132.836,72 L134.306,72 L136.7,64.776 L135.202,64.776 L134.264,67.786 C133.881333,69.0833333 133.634,69.9373333 133.522,70.348 C133.41,69.9373333 133.162667,69.0833333 132.78,67.786 L132.78,67.786 L131.87,64.776 L130.47,64.776 L129.546,67.786 C129.228667,68.8313333 128.986,69.69 128.818,70.362 C128.566,69.4566667 128.314,68.598 128.062,67.786 L128.062,67.786 L127.138,64.776 L125.626,64.776 L128.02,72 L129.504,72 Z M138.814,72 L138.814,67.926 C138.814,67.254 139.000667,66.736 139.374,66.372 C139.747333,66.0173333 140.167333,65.84 140.634,65.84 C141.651333,65.84 142.16,66.344 142.16,67.352 L142.16,67.352 L142.16,72 L143.56,72 L143.56,67.156 C143.56,66.344 143.336,65.7163333 142.888,65.273 C142.44,64.8296667 141.819333,64.608 141.026,64.608 C140.102,64.608 139.364667,64.9953333 138.814,65.77 L138.814,65.77 L138.814,62.032 L137.414,62.032 L137.414,72 L138.814,72 Z M147.312,72.168 C148.394667,72.168 149.178667,71.7853333 149.664,71.02 C149.710667,71.3746667 149.843667,71.6336667 150.063,71.797 C150.282333,71.9603333 150.616,72.042 151.064,72.042 C151.316,72.042 151.544667,72.028 151.75,72 L151.75,72 L151.75,70.922 L151.358,70.922 C151.096667,70.922 150.966,70.8006667 150.966,70.558 L150.966,70.558 L150.966,66.736 C150.966,65.3173333 150.014,64.608 148.11,64.608 C146.168667,64.608 145.146667,65.4153333 145.044,67.03 L145.044,67.03 L146.43,67.03 C146.467333,66.5446667 146.612,66.2063333 146.864,66.015 C147.116,65.8236667 147.531333,65.728 148.11,65.728 C148.642,65.728 149.022333,65.8096667 149.251,65.973 C149.479667,66.1363333 149.594,66.4 149.594,66.764 C149.594,67.0346667 149.507667,67.2423333 149.335,67.387 C149.162333,67.5316667 148.889333,67.6273333 148.516,67.674 L148.516,67.674 L147.452,67.786 C145.641333,67.9726667 144.736,68.7193333 144.736,70.026 C144.736,70.698 144.967,71.223 145.429,71.601 C145.891,71.979 146.518667,72.168 147.312,72.168 Z M147.522,71.076 C147.083333,71.076 146.749667,70.9803333 146.521,70.789 C146.292333,70.5976667 146.178,70.3293333 146.178,69.984 C146.178,69.6386667 146.294667,69.3703333 146.528,69.179 C146.761333,68.9876667 147.148667,68.8593333 147.69,68.794 L147.69,68.794 L148.698,68.682 C149.118,68.6353333 149.416667,68.5373333 149.594,68.388 L149.594,68.388 L149.594,69.144 C149.594,69.76 149.398,70.236 149.006,70.572 C148.614,70.908 148.119333,71.076 147.522,71.076 Z M154.998,72.042 C155.259333,72.042 155.544,72.028 155.852,72 L155.852,72 L155.852,70.88 L155.222,70.88 C154.923333,70.88 154.711,70.831 154.585,70.733 C154.459,70.635 154.396,70.4786667 154.396,70.264 L154.396,70.264 L154.396,65.924 L155.852,65.924 L155.852,64.776 L154.396,64.776 L154.396,62.704 L152.996,62.704 L152.996,64.776 L151.834,64.776 L151.834,65.924 L152.996,65.924 L152.996,70.39 C152.996,70.9686667 153.159333,71.3886667 153.486,71.65 C153.812667,71.9113333 154.316667,72.042 154.998,72.042 Z M160.318,74.786 C161.055333,74.786 161.624667,74.646 162.026,74.366 C162.427333,74.086 162.749333,73.6006667 162.992,72.91 L162.992,72.91 L165.932,64.776 L164.448,64.776 L163.608,67.254 C163.244,68.374 162.88,69.5266667 162.516,70.712 C162.245333,69.788 161.886,68.6353333 161.438,67.254 L161.438,67.254 L160.598,64.776 L159.072,64.776 L161.746,72.196 C161.718,72.2613333 161.683,72.3546667 161.641,72.476 C161.62,72.5366667 161.601917,72.5891667 161.58675,72.6335 L161.55,72.742 C161.335333,73.3206667 160.915333,73.61 160.29,73.61 L160.29,73.61 L159.59,73.61 L159.59,74.744 C159.823333,74.772 160.066,74.786 160.318,74.786 Z M169.628,72.168 C170.692,72.168 171.555333,71.8226667 172.218,71.132 C172.871333,70.4506667 173.198,69.536 173.198,68.388 C173.198,67.2306667 172.871333,66.3113333 172.218,65.63 C171.564667,64.9486667 170.701333,64.608 169.628,64.608 C168.554667,64.608 167.691333,64.9486667 167.038,65.63 C166.375333,66.3206667 166.044,67.24 166.044,68.388 C166.044,69.5266667 166.375333,70.4413333 167.038,71.132 C167.700667,71.8226667 168.564,72.168 169.628,72.168 Z M169.628,70.964 C168.974667,70.964 168.456667,70.7353333 168.074,70.278 C167.691333,69.8206667 167.5,69.1906667 167.5,68.388 C167.5,67.5853333 167.691333,66.9553333 168.074,66.498 C168.456667,66.0406667 168.974667,65.812 169.628,65.812 C170.281333,65.812 170.797,66.0406667 171.175,66.498 C171.553,66.9553333 171.742,67.5853333 171.742,68.388 C171.742,69.1906667 171.553,69.8206667 171.175,70.278 C170.797,70.7353333 170.281333,70.964 169.628,70.964 Z M176.768,72.168 C177.729333,72.168 178.485333,71.7526667 179.036,70.922 L179.036,70.922 L179.036,72 L180.38,72 L180.38,64.776 L178.98,64.776 L178.98,68.85 C178.98,69.5033333 178.805,70.0143333 178.455,70.383 C178.105,70.7516667 177.673333,70.936 177.16,70.936 C176.142667,70.936 175.634,70.432 175.634,69.424 L175.634,69.424 L175.634,64.776 L174.234,64.776 L174.234,69.62 C174.234,70.4226667 174.458,71.048 174.906,71.496 C175.354,71.944 175.974667,72.168 176.768,72.168 Z M187.94,72 L188.92,68.822 C189.06,68.3646667 189.284,67.59 189.592,66.498 C189.797333,67.2446667 190.026,68.0193333 190.278,68.822 L190.278,68.822 L191.272,72 L192.742,72 L195.136,64.776 L193.638,64.776 L192.7,67.786 C192.317333,69.0833333 192.07,69.9373333 191.958,70.348 C191.846,69.9373333 191.598667,69.0833333 191.216,67.786 L191.216,67.786 L190.306,64.776 L188.906,64.776 L187.982,67.786 C187.664667,68.8313333 187.422,69.69 187.254,70.362 C187.002,69.4566667 186.75,68.598 186.498,67.786 L186.498,67.786 L185.574,64.776 L184.062,64.776 L186.456,72 L187.94,72 Z M197.32,63.754 L197.32,62.256 L195.892,62.256 L195.892,63.754 L197.32,63.754 Z M197.306,72 L197.306,64.776 L195.906,64.776 L195.906,72 L197.306,72 Z M200.274,72 L200.274,62.032 L198.874,62.032 L198.874,72 L200.274,72 Z M203.242,72 L203.242,62.032 L201.842,62.032 L201.842,72 L203.242,72 Z M210.606,72.168 C211.660667,72.168 212.458667,71.7573333 213,70.936 L213,70.936 L213,72 L214.344,72 L214.344,62.032 L212.944,62.032 L212.944,65.756 C212.402667,64.9906667 211.623333,64.608 210.606,64.608 C209.598,64.608 208.795333,64.9486667 208.198,65.63 C207.600667,66.3113333 207.302,67.2306667 207.302,68.388 C207.302,69.5453333 207.600667,70.4646667 208.198,71.146 C208.795333,71.8273333 209.598,72.168 210.606,72.168 Z M210.872,70.964 C210.228,70.964 209.714667,70.7446667 209.332,70.306 C208.949333,69.8673333 208.758,69.2466667 208.758,68.444 C208.758,67.6226667 208.949333,66.9786667 209.332,66.512 C209.714667,66.0453333 210.228,65.812 210.872,65.812 C211.534667,65.812 212.052667,66.036 212.426,66.484 C212.799333,66.9413333 212.986,67.576 212.986,68.388 C212.986,69.2093333 212.799333,69.8393333 212.426,70.278 C212.052667,70.7353333 211.534667,70.964 210.872,70.964 Z M219.174,72.168 C220.238,72.168 221.101333,71.8226667 221.764,71.132 C222.417333,70.4506667 222.744,69.536 222.744,68.388 C222.744,67.2306667 222.417333,66.3113333 221.764,65.63 C221.110667,64.9486667 220.247333,64.608 219.174,64.608 C218.100667,64.608 217.237333,64.9486667 216.584,65.63 C215.921333,66.3206667 215.59,67.24 215.59,68.388 C215.59,69.5266667 215.921333,70.4413333 216.584,71.132 C217.246667,71.8226667 218.11,72.168 219.174,72.168 Z M219.174,70.964 C218.520667,70.964 218.002667,70.7353333 217.62,70.278 C217.237333,69.8206667 217.046,69.1906667 217.046,68.388 C217.046,67.5853333 217.237333,66.9553333 217.62,66.498 C218.002667,66.0406667 218.520667,65.812 219.174,65.812 C219.827333,65.812 220.343,66.0406667 220.721,66.498 C221.099,66.9553333 221.288,67.5853333 221.288,68.388 C221.288,69.1906667 221.099,69.8206667 220.721,70.278 C220.343,70.7353333 219.827333,70.964 219.174,70.964 Z M229.38,72.042 C229.641333,72.042 229.926,72.028 230.234,72 L230.234,72 L230.234,70.88 L229.604,70.88 C229.305333,70.88 229.093,70.831 228.967,70.733 C228.841,70.635 228.778,70.4786667 228.778,70.264 L228.778,70.264 L228.778,65.924 L230.234,65.924 L230.234,64.776 L228.778,64.776 L228.778,62.704 L227.378,62.704 L227.378,64.776 L226.216,64.776 L226.216,65.924 L227.378,65.924 L227.378,70.39 C227.378,70.9686667 227.541333,71.3886667 227.868,71.65 C228.194667,71.9113333 228.698667,72.042 229.38,72.042 Z M234.462,72.168 C235.526,72.168 236.389333,71.8226667 237.052,71.132 C237.705333,70.4506667 238.032,69.536 238.032,68.388 C238.032,67.2306667 237.705333,66.3113333 237.052,65.63 C236.398667,64.9486667 235.535333,64.608 234.462,64.608 C233.388667,64.608 232.525333,64.9486667 231.872,65.63 C231.209333,66.3206667 230.878,67.24 230.878,68.388 C230.878,69.5266667 231.209333,70.4413333 231.872,71.132 C232.534667,71.8226667 233.398,72.168 234.462,72.168 Z M234.462,70.964 C233.808667,70.964 233.290667,70.7353333 232.908,70.278 C232.525333,69.8206667 232.334,69.1906667 232.334,68.388 C232.334,67.5853333 232.525333,66.9553333 232.908,66.498 C233.290667,66.0406667 233.808667,65.812 234.462,65.812 C235.115333,65.812 235.631,66.0406667 236.009,66.498 C236.387,66.9553333 236.576,67.5853333 236.576,68.388 C236.576,69.1906667 236.387,69.8206667 236.009,70.278 C235.631,70.7353333 235.115333,70.964 234.462,70.964 Z M242.232,72.168 C243.286667,72.168 244.084667,71.7573333 244.626,70.936 L244.626,70.936 L244.626,72 L245.97,72 L245.97,62.032 L244.57,62.032 L244.57,65.756 C244.028667,64.9906667 243.249333,64.608 242.232,64.608 C241.224,64.608 240.421333,64.9486667 239.824,65.63 C239.226667,66.3113333 238.928,67.2306667 238.928,68.388 C238.928,69.5453333 239.226667,70.4646667 239.824,71.146 C240.421333,71.8273333 241.224,72.168 242.232,72.168 Z M242.498,70.964 C241.854,70.964 241.340667,70.7446667 240.958,70.306 C240.575333,69.8673333 240.384,69.2466667 240.384,68.444 C240.384,67.6226667 240.575333,66.9786667 240.958,66.512 C241.340667,66.0453333 241.854,65.812 242.498,65.812 C243.160667,65.812 243.678667,66.036 244.052,66.484 C244.425333,66.9413333 244.612,67.576 244.612,68.388 C244.612,69.2093333 244.425333,69.8393333 244.052,70.278 C243.678667,70.7353333 243.160667,70.964 242.498,70.964 Z M249.722,72.168 C250.804667,72.168 251.588667,71.7853333 252.074,71.02 C252.120667,71.3746667 252.253667,71.6336667 252.473,71.797 C252.692333,71.9603333 253.026,72.042 253.474,72.042 C253.726,72.042 253.954667,72.028 254.16,72 L254.16,72 L254.16,70.922 L253.768,70.922 C253.506667,70.922 253.376,70.8006667 253.376,70.558 L253.376,70.558 L253.376,66.736 C253.376,65.3173333 252.424,64.608 250.52,64.608 C248.578667,64.608 247.556667,65.4153333 247.454,67.03 L247.454,67.03 L248.84,67.03 C248.877333,66.5446667 249.022,66.2063333 249.274,66.015 C249.526,65.8236667 249.941333,65.728 250.52,65.728 C251.052,65.728 251.432333,65.8096667 251.661,65.973 C251.889667,66.1363333 252.004,66.4 252.004,66.764 C252.004,67.0346667 251.917667,67.2423333 251.745,67.387 C251.572333,67.5316667 251.299333,67.6273333 250.926,67.674 L250.926,67.674 L249.862,67.786 C248.051333,67.9726667 247.146,68.7193333 247.146,70.026 C247.146,70.698 247.377,71.223 247.839,71.601 C248.301,71.979 248.928667,72.168 249.722,72.168 Z M249.932,71.076 C249.493333,71.076 249.159667,70.9803333 248.931,70.789 C248.702333,70.5976667 248.588,70.3293333 248.588,69.984 C248.588,69.6386667 248.704667,69.3703333 248.938,69.179 C249.171333,68.9876667 249.558667,68.8593333 250.1,68.794 L250.1,68.794 L251.108,68.682 C251.528,68.6353333 251.826667,68.5373333 252.004,68.388 L252.004,68.388 L252.004,69.144 C252.004,69.76 251.808,70.236 251.416,70.572 C251.024,70.908 250.529333,71.076 249.932,71.076 Z M255.252,74.786 C255.989333,74.786 256.558667,74.646 256.96,74.366 C257.361333,74.086 257.683333,73.6006667 257.926,72.91 L257.926,72.91 L260.866,64.776 L259.382,64.776 L258.542,67.254 C258.178,68.374 257.814,69.5266667 257.45,70.712 C257.179333,69.788 256.82,68.6353333 256.372,67.254 L256.372,67.254 L255.532,64.776 L254.006,64.776 L256.68,72.196 C256.652,72.2613333 256.617,72.3546667 256.575,72.476 C256.554,72.5366667 256.535917,72.5891667 256.52075,72.6335 L256.484,72.742 C256.269333,73.3206667 255.849333,73.61 255.224,73.61 L255.224,73.61 L254.524,73.61 L254.524,74.744 C254.757333,74.772 255,74.786 255.252,74.786 Z M261.972,72 L261.972,70.334 L260.278,70.334 L260.278,72 L261.972,72 Z M273.326,72 L273.326,70.656 L267.754,70.656 L267.754,67.506 L272.836,67.506 L272.836,66.19 L267.754,66.19 L267.754,63.376 L273.368,63.376 L273.368,62.032 L266.256,62.032 L266.256,72 L273.326,72 Z M275.37,72 L275.706,71.538 C275.780667,71.426 276.07,71.0153333 276.574,70.306 C276.994,69.718 277.232,69.3866667 277.288,69.312 L277.288,69.312 L278.856,71.524 L279.192,72 L280.816,72 L278.1,68.29 L280.676,64.776 L279.08,64.776 L278.604,65.448 C278.006667,66.288 277.577333,66.8993333 277.316,67.282 C277.222667,67.1513333 277.029,66.8736667 276.735,66.449 C276.441,66.0243333 276.205333,65.6906667 276.028,65.448 L276.028,65.448 L275.538,64.776 L273.914,64.776 L276.49,68.29 L273.774,72 L275.37,72 Z M283.532,72.168 C284.614667,72.168 285.398667,71.7853333 285.884,71.02 C285.930667,71.3746667 286.063667,71.6336667 286.283,71.797 C286.502333,71.9603333 286.836,72.042 287.284,72.042 C287.536,72.042 287.764667,72.028 287.97,72 L287.97,72 L287.97,70.922 L287.578,70.922 C287.316667,70.922 287.186,70.8006667 287.186,70.558 L287.186,70.558 L287.186,66.736 C287.186,65.3173333 286.234,64.608 284.33,64.608 C282.388667,64.608 281.366667,65.4153333 281.264,67.03 L281.264,67.03 L282.65,67.03 C282.687333,66.5446667 282.832,66.2063333 283.084,66.015 C283.336,65.8236667 283.751333,65.728 284.33,65.728 C284.862,65.728 285.242333,65.8096667 285.471,65.973 C285.699667,66.1363333 285.814,66.4 285.814,66.764 C285.814,67.0346667 285.727667,67.2423333 285.555,67.387 C285.382333,67.5316667 285.109333,67.6273333 284.736,67.674 L284.736,67.674 L283.672,67.786 C281.861333,67.9726667 280.956,68.7193333 280.956,70.026 C280.956,70.698 281.187,71.223 281.649,71.601 C282.111,71.979 282.738667,72.168 283.532,72.168 Z M283.742,71.076 C283.303333,71.076 282.969667,70.9803333 282.741,70.789 C282.512333,70.5976667 282.398,70.3293333 282.398,69.984 C282.398,69.6386667 282.514667,69.3703333 282.748,69.179 C282.981333,68.9876667 283.368667,68.8593333 283.91,68.794 L283.91,68.794 L284.918,68.682 C285.338,68.6353333 285.636667,68.5373333 285.814,68.388 L285.814,68.388 L285.814,69.144 C285.814,69.76 285.618,70.236 285.226,70.572 C284.834,70.908 284.339333,71.076 283.742,71.076 Z M290.294,72 L290.294,68.038 C290.294,67.338 290.452667,66.7966667 290.77,66.414 C291.087333,66.0313333 291.493333,65.84 291.988,65.84 C292.921333,65.84 293.388,66.3393333 293.388,67.338 L293.388,67.338 L293.388,72 L294.788,72 L294.788,68.038 C294.788,67.3286667 294.946667,66.785 295.264,66.407 C295.581333,66.029 295.987333,65.84 296.482,65.84 C297.406,65.84 297.868,66.3393333 297.868,67.338 L297.868,67.338 L297.868,72 L299.282,72 L299.282,67.156 C299.282,66.3813333 299.062667,65.763 298.624,65.301 C298.185333,64.839 297.574,64.608 296.79,64.608 C295.81,64.608 295.063333,65.0606667 294.55,65.966 C294.158,65.0606667 293.416,64.608 292.324,64.608 C291.428,64.608 290.732667,65.0233333 290.238,65.854 L290.238,65.854 L290.238,64.776 L288.894,64.776 L288.894,72 L290.294,72 Z M302.25,74.744 L302.25,70.992 C302.791333,71.776 303.575333,72.168 304.602,72.168 C305.600667,72.168 306.403333,71.8226667 307.01,71.132 C307.607333,70.4506667 307.906,69.536 307.906,68.388 C307.906,67.2306667 307.607333,66.3113333 307.01,65.63 C306.412667,64.9486667 305.61,64.608 304.602,64.608 C303.538,64.608 302.735333,65.028 302.194,65.868 L302.194,65.868 L302.194,64.776 L300.85,64.776 L300.85,74.744 L302.25,74.744 Z M304.336,70.964 C303.682667,70.964 303.169333,70.7353333 302.796,70.278 C302.413333,69.8206667 302.222,69.1906667 302.222,68.388 C302.222,67.5853333 302.413333,66.9506667 302.796,66.484 C303.178667,66.036 303.692,65.812 304.336,65.812 C304.998667,65.812 305.516667,66.0313333 305.89,66.47 C306.263333,66.9086667 306.45,67.5293333 306.45,68.332 C306.45,69.1626667 306.263333,69.8066667 305.89,70.264 C305.507333,70.7306667 304.989333,70.964 304.336,70.964 Z M310.538,72 L310.538,62.032 L309.138,62.032 L309.138,72 L310.538,72 Z M315.228,72.168 C316.058667,72.168 316.756333,71.9556667 317.321,71.531 C317.885667,71.1063333 318.266,70.5253333 318.462,69.788 L318.462,69.788 L317.048,69.788 C316.768,70.5906667 316.170667,70.992 315.256,70.992 C314.649333,70.992 314.168667,70.8123333 313.814,70.453 C313.459333,70.0936667 313.249333,69.5593333 313.184,68.85 L313.184,68.85 L318.63,68.85 L318.63,68.444 C318.63,67.324 318.326667,66.4046667 317.72,65.686 C317.104,64.9673333 316.264,64.608 315.2,64.608 C314.182667,64.608 313.356667,64.9533333 312.722,65.644 C312.087333,66.3346667 311.77,67.2493333 311.77,68.388 C311.77,69.5266667 312.087333,70.4413333 312.722,71.132 C313.356667,71.8226667 314.192,72.168 315.228,72.168 Z M317.188,67.744 L313.198,67.744 C313.282,67.1093333 313.499,66.624 313.849,66.288 C314.199,65.952 314.649333,65.784 315.2,65.784 C315.76,65.784 316.215,65.9636667 316.565,66.323 C316.915,66.6823333 317.122667,67.156 317.188,67.744 L317.188,67.744 Z M322.508,72.182 C323.46,72.182 324.202,71.9883333 324.734,71.601 C325.266,71.2136667 325.532,70.67 325.532,69.97 C325.532,69.3726667 325.336,68.906 324.944,68.57 C324.552,68.234 323.912667,67.982 323.026,67.814 L323.026,67.814 L322.27,67.688 C321.803333,67.5946667 321.462667,67.471 321.248,67.317 C321.033333,67.163 320.926,66.946 320.926,66.666 C320.926,66.358 321.047333,66.12 321.29,65.952 C321.532667,65.784 321.878,65.7 322.326,65.7 C322.886,65.7 323.301333,65.8003333 323.572,66.001 C323.842667,66.2016667 323.992,66.5446667 324.02,67.03 L324.02,67.03 L325.378,67.03 C325.331333,65.4153333 324.314,64.608 322.326,64.608 C321.458,64.608 320.776667,64.797 320.282,65.175 C319.787333,65.553 319.54,66.064 319.54,66.708 C319.54,67.8653333 320.305333,68.584 321.836,68.864 L321.836,68.864 L322.578,69.004 C323.156667,69.1066667 323.558,69.2373333 323.782,69.396 C324.006,69.5546667 324.118,69.7786667 324.118,70.068 C324.118,70.74 323.586,71.076 322.522,71.076 C321.934,71.076 321.504667,70.9733333 321.234,70.768 C320.963333,70.5626667 320.8,70.208 320.744,69.704 L320.744,69.704 L319.344,69.704 C319.446667,71.356 320.501333,72.182 322.508,72.182 Z M331.566,72.168 C332.648667,72.168 333.432667,71.7853333 333.918,71.02 C333.964667,71.3746667 334.097667,71.6336667 334.317,71.797 C334.536333,71.9603333 334.87,72.042 335.318,72.042 C335.57,72.042 335.798667,72.028 336.004,72 L336.004,72 L336.004,70.922 L335.612,70.922 C335.350667,70.922 335.22,70.8006667 335.22,70.558 L335.22,70.558 L335.22,66.736 C335.22,65.3173333 334.268,64.608 332.364,64.608 C330.422667,64.608 329.400667,65.4153333 329.298,67.03 L329.298,67.03 L330.684,67.03 C330.721333,66.5446667 330.866,66.2063333 331.118,66.015 C331.37,65.8236667 331.785333,65.728 332.364,65.728 C332.896,65.728 333.276333,65.8096667 333.505,65.973 C333.733667,66.1363333 333.848,66.4 333.848,66.764 C333.848,67.0346667 333.761667,67.2423333 333.589,67.387 C333.416333,67.5316667 333.143333,67.6273333 332.77,67.674 L332.77,67.674 L331.706,67.786 C329.895333,67.9726667 328.99,68.7193333 328.99,70.026 C328.99,70.698 329.221,71.223 329.683,71.601 C330.145,71.979 330.772667,72.168 331.566,72.168 Z M331.776,71.076 C331.337333,71.076 331.003667,70.9803333 330.775,70.789 C330.546333,70.5976667 330.432,70.3293333 330.432,69.984 C330.432,69.6386667 330.548667,69.3703333 330.782,69.179 C331.015333,68.9876667 331.402667,68.8593333 331.944,68.794 L331.944,68.794 L332.952,68.682 C333.372,68.6353333 333.670667,68.5373333 333.848,68.388 L333.848,68.388 L333.848,69.144 C333.848,69.76 333.652,70.236 333.26,70.572 C332.868,70.908 332.373333,71.076 331.776,71.076 Z M338.328,72 L338.328,68.08 C338.328,67.408 338.524,66.8946667 338.916,66.54 C339.308,66.1853333 339.863333,66.008 340.582,66.008 L340.582,66.008 L340.932,66.008 L340.932,64.678 C340.866667,64.6686667 340.731333,64.664 340.526,64.664 C339.480667,64.664 338.729333,65.1306667 338.272,66.064 L338.272,66.064 L338.272,64.776 L336.928,64.776 L336.928,72 L338.328,72 Z M344.684,72.168 C345.514667,72.168 346.212333,71.9556667 346.777,71.531 C347.341667,71.1063333 347.722,70.5253333 347.918,69.788 L347.918,69.788 L346.504,69.788 C346.224,70.5906667 345.626667,70.992 344.712,70.992 C344.105333,70.992 343.624667,70.8123333 343.27,70.453 C342.915333,70.0936667 342.705333,69.5593333 342.64,68.85 L342.64,68.85 L348.086,68.85 L348.086,68.444 C348.086,67.324 347.782667,66.4046667 347.176,65.686 C346.56,64.9673333 345.72,64.608 344.656,64.608 C343.638667,64.608 342.812667,64.9533333 342.178,65.644 C341.543333,66.3346667 341.226,67.2493333 341.226,68.388 C341.226,69.5266667 341.543333,70.4413333 342.178,71.132 C342.812667,71.8226667 343.648,72.168 344.684,72.168 Z M346.644,67.744 L342.654,67.744 C342.738,67.1093333 342.955,66.624 343.305,66.288 C343.655,65.952 344.105333,65.784 344.656,65.784 C345.216,65.784 345.671,65.9636667 346.021,66.323 C346.371,66.6823333 346.578667,67.156 346.644,67.744 L346.644,67.744 Z M353.532,65.896 L353.742,62.032 L352.244,62.032 L352.454,65.896 L353.532,65.896 Z M356.318,65.896 L356.528,62.032 L355.044,62.032 L355.254,65.896 L356.318,65.896 Z M362.478,72 L362.478,63.376 L365.782,63.376 L365.782,62.032 L357.648,62.032 L357.648,63.376 L360.952,63.376 L360.952,72 L362.478,72 Z M367.126,72 L367.126,68.08 C367.126,67.408 367.322,66.8946667 367.714,66.54 C368.106,66.1853333 368.661333,66.008 369.38,66.008 L369.38,66.008 L369.73,66.008 L369.73,64.678 C369.664667,64.6686667 369.529333,64.664 369.324,64.664 C368.278667,64.664 367.527333,65.1306667 367.07,66.064 L367.07,66.064 L367.07,64.776 L365.726,64.776 L365.726,72 L367.126,72 Z M372.446,72.168 C373.528667,72.168 374.312667,71.7853333 374.798,71.02 C374.844667,71.3746667 374.977667,71.6336667 375.197,71.797 C375.416333,71.9603333 375.75,72.042 376.198,72.042 C376.45,72.042 376.678667,72.028 376.884,72 L376.884,72 L376.884,70.922 L376.492,70.922 C376.230667,70.922 376.1,70.8006667 376.1,70.558 L376.1,70.558 L376.1,66.736 C376.1,65.3173333 375.148,64.608 373.244,64.608 C371.302667,64.608 370.280667,65.4153333 370.178,67.03 L370.178,67.03 L371.564,67.03 C371.601333,66.5446667 371.746,66.2063333 371.998,66.015 C372.25,65.8236667 372.665333,65.728 373.244,65.728 C373.776,65.728 374.156333,65.8096667 374.385,65.973 C374.613667,66.1363333 374.728,66.4 374.728,66.764 C374.728,67.0346667 374.641667,67.2423333 374.469,67.387 C374.296333,67.5316667 374.023333,67.6273333 373.65,67.674 L373.65,67.674 L372.586,67.786 C370.775333,67.9726667 369.87,68.7193333 369.87,70.026 C369.87,70.698 370.101,71.223 370.563,71.601 C371.025,71.979 371.652667,72.168 372.446,72.168 Z M372.656,71.076 C372.217333,71.076 371.883667,70.9803333 371.655,70.789 C371.426333,70.5976667 371.312,70.3293333 371.312,69.984 C371.312,69.6386667 371.428667,69.3703333 371.662,69.179 C371.895333,68.9876667 372.282667,68.8593333 372.824,68.794 L372.824,68.794 L373.832,68.682 C374.252,68.6353333 374.550667,68.5373333 374.728,68.388 L374.728,68.388 L374.728,69.144 C374.728,69.76 374.532,70.236 374.14,70.572 C373.748,70.908 373.253333,71.076 372.656,71.076 Z M379.166,63.754 L379.166,62.256 L377.738,62.256 L377.738,63.754 L379.166,63.754 Z M379.152,72 L379.152,64.776 L377.752,64.776 L377.752,72 L379.152,72 Z M382.12,72 L382.12,67.926 C382.12,67.254 382.306667,66.736 382.68,66.372 C383.053333,66.0173333 383.473333,65.84 383.94,65.84 C384.957333,65.84 385.466,66.344 385.466,67.352 L385.466,67.352 L385.466,72 L386.866,72 L386.866,67.156 C386.866,66.344 386.642,65.7163333 386.194,65.273 C385.746,64.8296667 385.125333,64.608 384.332,64.608 C383.370667,64.608 382.614667,65.0233333 382.064,65.854 L382.064,65.854 L382.064,64.776 L380.72,64.776 L380.72,72 L382.12,72 Z M12.758,90 L12.758,83.924 L14.27,83.924 L14.27,82.776 L12.758,82.776 L12.758,82.118 C12.758,81.4833333 13.0706667,81.166 13.696,81.166 L13.696,81.166 L14.326,81.166 L14.326,80.032 C13.934,80.004 13.668,79.99 13.528,79.99 C12.0813333,79.99 11.358,80.6993333 11.358,82.118 L11.358,82.118 L11.358,82.776 L10.196,82.776 L10.196,83.924 L11.358,83.924 L11.358,90 L12.758,90 Z M18.19,90.168 C19.254,90.168 20.1173333,89.8226667 20.78,89.132 C21.4333333,88.4506667 21.76,87.536 21.76,86.388 C21.76,85.2306667 21.4333333,84.3113333 20.78,83.63 C20.1266667,82.9486667 19.2633333,82.608 18.19,82.608 C17.1166667,82.608 16.2533333,82.9486667 15.6,83.63 C14.9373333,84.3206667 14.606,85.24 14.606,86.388 C14.606,87.5266667 14.9373333,88.4413333 15.6,89.132 C16.2626667,89.8226667 17.126,90.168 18.19,90.168 Z M18.19,88.964 C17.5366667,88.964 17.0186667,88.7353333 16.636,88.278 C16.2533333,87.8206667 16.062,87.1906667 16.062,86.388 C16.062,85.5853333 16.2533333,84.9553333 16.636,84.498 C17.0186667,84.0406667 17.5366667,83.812 18.19,83.812 C18.8433333,83.812 19.359,84.0406667 19.737,84.498 C20.115,84.9553333 20.304,85.5853333 20.304,86.388 C20.304,87.1906667 20.115,87.8206667 19.737,88.278 C19.359,88.7353333 18.8433333,88.964 18.19,88.964 Z M24.392,90 L24.392,86.08 C24.392,85.408 24.588,84.8946667 24.98,84.54 C25.372,84.1853333 25.9273333,84.008 26.646,84.008 L26.646,84.008 L26.996,84.008 L26.996,82.678 C26.9306667,82.6686667 26.7953333,82.664 26.59,82.664 C25.5446667,82.664 24.7933333,83.1306667 24.336,84.064 L24.336,84.064 L24.336,82.776 L22.992,82.776 L22.992,90 L24.392,90 Z M34.416,90.224 C35.48,90.224 36.3433333,89.944 37.006,89.384 C37.6593333,88.824 37.986,88.0866667 37.986,87.172 C37.986,86.052 37.426,85.2213333 36.306,84.68 C37.2206667,84.204 37.678,83.4853333 37.678,82.524 C37.678,81.684 37.377,81.0213333 36.775,80.536 C36.173,80.0506667 35.368,79.808 34.36,79.808 C33.296,79.808 32.463,80.0763333 31.861,80.613 C31.259,81.1496667 30.9486667,81.894 30.93,82.846 L30.93,82.846 L32.4,82.846 C32.456,81.67 33.1046667,81.082 34.346,81.082 C34.9246667,81.082 35.3796667,81.2173333 35.711,81.488 C36.0423333,81.7586667 36.208,82.132 36.208,82.608 C36.208,83.112 36.0423333,83.497 35.711,83.763 C35.3796667,84.029 34.9013333,84.162 34.276,84.162 L34.276,84.162 L33.576,84.162 L33.576,85.324 L34.318,85.324 C34.9806667,85.324 35.4986667,85.485 35.872,85.807 C36.2453333,86.129 36.432,86.5746667 36.432,87.144 C36.432,87.6853333 36.25,88.117 35.886,88.439 C35.522,88.761 35.0273333,88.922 34.402,88.922 C32.974,88.922 32.2413333,88.236 32.204,86.864 L32.204,86.864 L30.748,86.864 C30.748,87.9093333 31.0676667,88.7306667 31.707,89.328 C32.3463333,89.9253333 33.2493333,90.224 34.416,90.224 Z M42.76,90.224 C44.0013333,90.224 44.9416667,89.7783333 45.581,88.887 C46.2203333,87.9956667 46.54,86.7053333 46.54,85.016 C46.54,83.3266667 46.2203333,82.0363333 45.581,81.145 C44.9416667,80.2536667 44.0013333,79.808 42.76,79.808 C41.528,79.808 40.59,80.256 39.946,81.152 C39.302,82.048 38.98,83.336 38.98,85.016 C38.98,86.696 39.302,87.984 39.946,88.88 C40.59,89.776 41.528,90.224 42.76,90.224 Z M42.76,88.922 C41.2853333,88.922 40.548,87.62 40.548,85.016 C40.548,82.412 41.2853333,81.11 42.76,81.11 C44.244,81.11 44.986,82.412 44.986,85.016 C44.986,87.62 44.244,88.922 42.76,88.922 Z M52.196,90 L52.196,86.038 C52.196,85.338 52.3546667,84.7966667 52.672,84.414 C52.9893333,84.0313333 53.3953333,83.84 53.89,83.84 C54.8233333,83.84 55.29,84.3393333 55.29,85.338 L55.29,85.338 L55.29,90 L56.69,90 L56.69,86.038 C56.69,85.3286667 56.8486667,84.785 57.166,84.407 C57.4833333,84.029 57.8893333,83.84 58.384,83.84 C59.308,83.84 59.77,84.3393333 59.77,85.338 L59.77,85.338 L59.77,90 L61.184,90 L61.184,85.156 C61.184,84.3813333 60.9646667,83.763 60.526,83.301 C60.0873333,82.839 59.476,82.608 58.692,82.608 C57.712,82.608 56.9653333,83.0606667 56.452,83.966 C56.06,83.0606667 55.318,82.608 54.226,82.608 C53.33,82.608 52.6346667,83.0233333 52.14,83.854 L52.14,83.854 L52.14,82.776 L50.796,82.776 L50.796,90 L52.196,90 Z M64.166,81.754 L64.166,80.256 L62.738,80.256 L62.738,81.754 L64.166,81.754 Z M64.152,90 L64.152,82.776 L62.752,82.776 L62.752,90 L64.152,90 Z M67.12,90 L67.12,85.926 C67.12,85.254 67.3066667,84.736 67.68,84.372 C68.0533333,84.0173333 68.4733333,83.84 68.94,83.84 C69.9573333,83.84 70.466,84.344 70.466,85.352 L70.466,85.352 L70.466,90 L71.866,90 L71.866,85.156 C71.866,84.344 71.642,83.7163333 71.194,83.273 C70.746,82.8296667 70.1253333,82.608 69.332,82.608 C68.3706667,82.608 67.6146667,83.0233333 67.064,83.854 L67.064,83.854 L67.064,82.776 L65.72,82.776 L65.72,90 L67.12,90 Z M76.122,90.182 C77.074,90.182 77.816,89.9883333 78.348,89.601 C78.88,89.2136667 79.146,88.67 79.146,87.97 C79.146,87.3726667 78.95,86.906 78.558,86.57 C78.166,86.234 77.5266667,85.982 76.64,85.814 L76.64,85.814 L75.884,85.688 C75.4173333,85.5946667 75.0766667,85.471 74.862,85.317 C74.6473333,85.163 74.54,84.946 74.54,84.666 C74.54,84.358 74.6613333,84.12 74.904,83.952 C75.1466667,83.784 75.492,83.7 75.94,83.7 C76.5,83.7 76.9153333,83.8003333 77.186,84.001 C77.4566667,84.2016667 77.606,84.5446667 77.634,85.03 L77.634,85.03 L78.992,85.03 C78.9453333,83.4153333 77.928,82.608 75.94,82.608 C75.072,82.608 74.3906667,82.797 73.896,83.175 C73.4013333,83.553 73.154,84.064 73.154,84.708 C73.154,85.8653333 73.9193333,86.584 75.45,86.864 L75.45,86.864 L76.192,87.004 C76.7706667,87.1066667 77.172,87.2373333 77.396,87.396 C77.62,87.5546667 77.732,87.7786667 77.732,88.068 C77.732,88.74 77.2,89.076 76.136,89.076 C75.548,89.076 75.1186667,88.9733333 74.848,88.768 C74.5773333,88.5626667 74.414,88.208 74.358,87.704 L74.358,87.704 L72.958,87.704 C73.0606667,89.356 74.1153333,90.182 76.122,90.182 Z M84.424,81.754 L84.424,80.256 L82.996,80.256 L82.996,81.754 L84.424,81.754 Z M84.41,90 L84.41,82.776 L83.01,82.776 L83.01,90 L84.41,90 Z M87.378,90 L87.378,85.926 C87.378,85.254 87.5646667,84.736 87.938,84.372 C88.3113333,84.0173333 88.7313333,83.84 89.198,83.84 C90.2153333,83.84 90.724,84.344 90.724,85.352 L90.724,85.352 L90.724,90 L92.124,90 L92.124,85.156 C92.124,84.344 91.9,83.7163333 91.452,83.273 C91.004,82.8296667 90.3833333,82.608 89.59,82.608 C88.6286667,82.608 87.8726667,83.0233333 87.322,83.854 L87.322,83.854 L87.322,82.776 L85.978,82.776 L85.978,90 L87.378,90 Z M99.11,90.042 C99.3713333,90.042 99.656,90.028 99.964,90 L99.964,90 L99.964,88.88 L99.334,88.88 C99.0353333,88.88 98.823,88.831 98.697,88.733 C98.571,88.635 98.508,88.4786667 98.508,88.264 L98.508,88.264 L98.508,83.924 L99.964,83.924 L99.964,82.776 L98.508,82.776 L98.508,80.704 L97.108,80.704 L97.108,82.776 L95.946,82.776 L95.946,83.924 L97.108,83.924 L97.108,88.39 C97.108,88.9686667 97.2713333,89.3886667 97.598,89.65 C97.9246667,89.9113333 98.4286667,90.042 99.11,90.042 Z M102.484,90 L102.484,85.926 C102.484,85.254 102.670667,84.736 103.044,84.372 C103.417333,84.0173333 103.837333,83.84 104.304,83.84 C105.321333,83.84 105.83,84.344 105.83,85.352 L105.83,85.352 L105.83,90 L107.23,90 L107.23,85.156 C107.23,84.344 107.006,83.7163333 106.558,83.273 C106.11,82.8296667 105.489333,82.608 104.696,82.608 C103.772,82.608 103.034667,82.9953333 102.484,83.77 L102.484,83.77 L102.484,80.032 L101.084,80.032 L101.084,90 L102.484,90 Z M111.934,90.168 C112.764667,90.168 113.462333,89.9556667 114.027,89.531 C114.591667,89.1063333 114.972,88.5253333 115.168,87.788 L115.168,87.788 L113.754,87.788 C113.474,88.5906667 112.876667,88.992 111.962,88.992 C111.355333,88.992 110.874667,88.8123333 110.52,88.453 C110.165333,88.0936667 109.955333,87.5593333 109.89,86.85 L109.89,86.85 L115.336,86.85 L115.336,86.444 C115.336,85.324 115.032667,84.4046667 114.426,83.686 C113.81,82.9673333 112.97,82.608 111.906,82.608 C110.888667,82.608 110.062667,82.9533333 109.428,83.644 C108.793333,84.3346667 108.476,85.2493333 108.476,86.388 C108.476,87.5266667 108.793333,88.4413333 109.428,89.132 C110.062667,89.8226667 110.898,90.168 111.934,90.168 Z M113.894,85.744 L109.904,85.744 C109.988,85.1093333 110.205,84.624 110.555,84.288 C110.905,83.952 111.355333,83.784 111.906,83.784 C112.466,83.784 112.921,83.9636667 113.271,84.323 C113.621,84.6823333 113.828667,85.156 113.894,85.744 L113.894,85.744 Z M122.672,92.912 C123.773333,92.912 124.622667,92.6296667 125.22,92.065 C125.817333,91.5003333 126.116,90.7233333 126.116,89.734 L126.116,89.734 L126.116,82.776 L124.772,82.776 L124.772,83.798 C124.230667,83.0046667 123.432667,82.608 122.378,82.608 C121.379333,82.608 120.581333,82.9486667 119.984,83.63 C119.377333,84.3206667 119.074,85.226 119.074,86.346 C119.074,87.466 119.377333,88.3713333 119.984,89.062 C120.581333,89.7433333 121.384,90.084 122.392,90.084 C123.390667,90.084 124.165333,89.7106667 124.716,88.964 L124.716,88.964 L124.716,89.762 C124.716,91.106 124.039333,91.778 122.686,91.778 C121.594,91.778 120.992,91.3533333 120.88,90.504 L120.88,90.504 L119.48,90.504 C119.554667,91.2506667 119.869667,91.8386667 120.425,92.268 C120.980333,92.6973333 121.729333,92.912 122.672,92.912 Z M122.644,88.88 C122,88.88 121.486667,88.6536667 121.104,88.201 C120.721333,87.7483333 120.53,87.13 120.53,86.346 C120.53,85.5713333 120.721333,84.9553333 121.104,84.498 C121.486667,84.0406667 122,83.812 122.644,83.812 C123.297333,83.812 123.813,84.0383333 124.191,84.491 C124.569,84.9436667 124.758,85.562 124.758,86.346 C124.758,87.13 124.569,87.7483333 124.191,88.201 C123.813,88.6536667 123.297333,88.88 122.644,88.88 Z M128.146,92.786 C128.883333,92.786 129.452667,92.646 129.854,92.366 C130.255333,92.086 130.577333,91.6006667 130.82,90.91 L130.82,90.91 L133.76,82.776 L132.276,82.776 L131.436,85.254 C131.072,86.374 130.708,87.5266667 130.344,88.712 C130.073333,87.788 129.714,86.6353333 129.266,85.254 L129.266,85.254 L128.426,82.776 L126.9,82.776 L129.574,90.196 C129.546,90.2613333 129.511,90.3546667 129.469,90.476 C129.448,90.5366667 129.429917,90.5891667 129.41475,90.6335 L129.378,90.742 C129.163333,91.3206667 128.743333,91.61 128.118,91.61 L128.118,91.61 L127.418,91.61 L127.418,92.744 C127.651333,92.772 127.894,92.786 128.146,92.786 Z M135.93,90 L135.93,86.038 C135.93,85.338 136.088667,84.7966667 136.406,84.414 C136.723333,84.0313333 137.129333,83.84 137.624,83.84 C138.557333,83.84 139.024,84.3393333 139.024,85.338 L139.024,85.338 L139.024,90 L140.424,90 L140.424,86.038 C140.424,85.3286667 140.582667,84.785 140.9,84.407 C141.217333,84.029 141.623333,83.84 142.118,83.84 C143.042,83.84 143.504,84.3393333 143.504,85.338 L143.504,85.338 L143.504,90 L144.918,90 L144.918,85.156 C144.918,84.3813333 144.698667,83.763 144.26,83.301 C143.821333,82.839 143.21,82.608 142.426,82.608 C141.446,82.608 140.699333,83.0606667 140.186,83.966 C139.794,83.0606667 139.052,82.608 137.96,82.608 C137.064,82.608 136.368667,83.0233333 135.874,83.854 L135.874,83.854 L135.874,82.776 L134.53,82.776 L134.53,90 L135.93,90 Z M147.186,83.896 L147.396,80.032 L145.898,80.032 L146.108,83.896 L147.186,83.896 Z M149.972,83.896 L150.182,80.032 L148.698,80.032 L148.908,83.896 L149.972,83.896 Z M150.798,92.058 L150.98,92.044 C151.988,91.988 152.492,91.3533333 152.492,90.14 L152.492,90.14 L152.492,88.334 L150.798,88.334 L150.798,90 L151.526,90 L151.526,90.224 C151.526,90.812 151.334667,91.1293333 150.952,91.176 L150.952,91.176 L150.798,91.19 L150.798,92.058 Z M158.064,83.896 L158.274,80.032 L156.776,80.032 L156.986,83.896 L158.064,83.896 Z M160.85,83.896 L161.06,80.032 L159.576,80.032 L159.786,83.896 L160.85,83.896 Z M166.688,90.21 C167.957333,90.21 168.946667,89.8693333 169.656,89.188 C170.365333,88.4973333 170.72,87.5266667 170.72,86.276 L170.72,86.276 L170.72,80.032 L169.222,80.032 L169.222,86.29 C169.222,87.1486667 169.005,87.7973333 168.571,88.236 C168.137,88.6746667 167.509333,88.894 166.688,88.894 C165.866667,88.894 165.239,88.6746667 164.805,88.236 C164.371,87.7973333 164.154,87.1486667 164.154,86.29 L164.154,86.29 L164.154,80.032 L162.656,80.032 L162.656,86.276 C162.656,87.5266667 163.010667,88.495 163.72,89.181 C164.429333,89.867 165.418667,90.21 166.688,90.21 Z M173.632,92.744 L173.632,88.992 C174.173333,89.776 174.957333,90.168 175.984,90.168 C176.982667,90.168 177.785333,89.8226667 178.392,89.132 C178.989333,88.4506667 179.288,87.536 179.288,86.388 C179.288,85.2306667 178.989333,84.3113333 178.392,83.63 C177.794667,82.9486667 176.992,82.608 175.984,82.608 C174.92,82.608 174.117333,83.028 173.576,83.868 L173.576,83.868 L173.576,82.776 L172.232,82.776 L172.232,92.744 L173.632,92.744 Z M175.718,88.964 C175.064667,88.964 174.551333,88.7353333 174.178,88.278 C173.795333,87.8206667 173.604,87.1906667 173.604,86.388 C173.604,85.5853333 173.795333,84.9506667 174.178,84.484 C174.560667,84.036 175.074,83.812 175.718,83.812 C176.380667,83.812 176.898667,84.0313333 177.272,84.47 C177.645333,84.9086667 177.832,85.5293333 177.832,86.332 C177.832,87.1626667 177.645333,87.8066667 177.272,88.264 C176.889333,88.7306667 176.371333,88.964 175.718,88.964 Z M183.488,90.168 C184.542667,90.168 185.340667,89.7573333 185.882,88.936 L185.882,88.936 L185.882,90 L187.226,90 L187.226,80.032 L185.826,80.032 L185.826,83.756 C185.284667,82.9906667 184.505333,82.608 183.488,82.608 C182.48,82.608 181.677333,82.9486667 181.08,83.63 C180.482667,84.3113333 180.184,85.2306667 180.184,86.388 C180.184,87.5453333 180.482667,88.4646667 181.08,89.146 C181.677333,89.8273333 182.48,90.168 183.488,90.168 Z M183.754,88.964 C183.11,88.964 182.596667,88.7446667 182.214,88.306 C181.831333,87.8673333 181.64,87.2466667 181.64,86.444 C181.64,85.6226667 181.831333,84.9786667 182.214,84.512 C182.596667,84.0453333 183.11,83.812 183.754,83.812 C184.416667,83.812 184.934667,84.036 185.308,84.484 C185.681333,84.9413333 185.868,85.576 185.868,86.388 C185.868,87.2093333 185.681333,87.8393333 185.308,88.278 C184.934667,88.7353333 184.416667,88.964 183.754,88.964 Z M190.978,90.168 C192.060667,90.168 192.844667,89.7853333 193.33,89.02 C193.376667,89.3746667 193.509667,89.6336667 193.729,89.797 C193.948333,89.9603333 194.282,90.042 194.73,90.042 C194.982,90.042 195.210667,90.028 195.416,90 L195.416,90 L195.416,88.922 L195.024,88.922 C194.762667,88.922 194.632,88.8006667 194.632,88.558 L194.632,88.558 L194.632,84.736 C194.632,83.3173333 193.68,82.608 191.776,82.608 C189.834667,82.608 188.812667,83.4153333 188.71,85.03 L188.71,85.03 L190.096,85.03 C190.133333,84.5446667 190.278,84.2063333 190.53,84.015 C190.782,83.8236667 191.197333,83.728 191.776,83.728 C192.308,83.728 192.688333,83.8096667 192.917,83.973 C193.145667,84.1363333 193.26,84.4 193.26,84.764 C193.26,85.0346667 193.173667,85.2423333 193.001,85.387 C192.828333,85.5316667 192.555333,85.6273333 192.182,85.674 L192.182,85.674 L191.118,85.786 C189.307333,85.9726667 188.402,86.7193333 188.402,88.026 C188.402,88.698 188.633,89.223 189.095,89.601 C189.557,89.979 190.184667,90.168 190.978,90.168 Z M191.188,89.076 C190.749333,89.076 190.415667,88.9803333 190.187,88.789 C189.958333,88.5976667 189.844,88.3293333 189.844,87.984 C189.844,87.6386667 189.960667,87.3703333 190.194,87.179 C190.427333,86.9876667 190.814667,86.8593333 191.356,86.794 L191.356,86.794 L192.364,86.682 C192.784,86.6353333 193.082667,86.5373333 193.26,86.388 L193.26,86.388 L193.26,87.144 C193.26,87.76 193.064,88.236 192.672,88.572 C192.28,88.908 191.785333,89.076 191.188,89.076 Z M198.664,90.042 C198.925333,90.042 199.21,90.028 199.518,90 L199.518,90 L199.518,88.88 L198.888,88.88 C198.589333,88.88 198.377,88.831 198.251,88.733 C198.125,88.635 198.062,88.4786667 198.062,88.264 L198.062,88.264 L198.062,83.924 L199.518,83.924 L199.518,82.776 L198.062,82.776 L198.062,80.704 L196.662,80.704 L196.662,82.776 L195.5,82.776 L195.5,83.924 L196.662,83.924 L196.662,88.39 C196.662,88.9686667 196.825333,89.3886667 197.152,89.65 C197.478667,89.9113333 197.982667,90.042 198.664,90.042 Z M203.62,90.168 C204.450667,90.168 205.148333,89.9556667 205.713,89.531 C206.277667,89.1063333 206.658,88.5253333 206.854,87.788 L206.854,87.788 L205.44,87.788 C205.16,88.5906667 204.562667,88.992 203.648,88.992 C203.041333,88.992 202.560667,88.8123333 202.206,88.453 C201.851333,88.0936667 201.641333,87.5593333 201.576,86.85 L201.576,86.85 L207.022,86.85 L207.022,86.444 C207.022,85.324 206.718667,84.4046667 206.112,83.686 C205.496,82.9673333 204.656,82.608 203.592,82.608 C202.574667,82.608 201.748667,82.9533333 201.114,83.644 C200.479333,84.3346667 200.162,85.2493333 200.162,86.388 C200.162,87.5266667 200.479333,88.4413333 201.114,89.132 C201.748667,89.8226667 202.584,90.168 203.62,90.168 Z M205.58,85.744 L201.59,85.744 C201.674,85.1093333 201.891,84.624 202.241,84.288 C202.591,83.952 203.041333,83.784 203.592,83.784 C204.152,83.784 204.607,83.9636667 204.957,84.323 C205.307,84.6823333 205.514667,85.156 205.58,85.744 L205.58,85.744 Z M212.496,90 L212.496,86.038 C212.496,85.338 212.654667,84.7966667 212.972,84.414 C213.289333,84.0313333 213.695333,83.84 214.19,83.84 C215.123333,83.84 215.59,84.3393333 215.59,85.338 L215.59,85.338 L215.59,90 L216.99,90 L216.99,86.038 C216.99,85.3286667 217.148667,84.785 217.466,84.407 C217.783333,84.029 218.189333,83.84 218.684,83.84 C219.608,83.84 220.07,84.3393333 220.07,85.338 L220.07,85.338 L220.07,90 L221.484,90 L221.484,85.156 C221.484,84.3813333 221.264667,83.763 220.826,83.301 C220.387333,82.839 219.776,82.608 218.992,82.608 C218.012,82.608 217.265333,83.0606667 216.752,83.966 C216.36,83.0606667 215.618,82.608 214.526,82.608 C213.63,82.608 212.934667,83.0233333 212.44,83.854 L212.44,83.854 L212.44,82.776 L211.096,82.776 L211.096,90 L212.496,90 Z M223.22,92.786 C223.957333,92.786 224.526667,92.646 224.928,92.366 C225.329333,92.086 225.651333,91.6006667 225.894,90.91 L225.894,90.91 L228.834,82.776 L227.35,82.776 L226.51,85.254 C226.146,86.374 225.782,87.5266667 225.418,88.712 C225.147333,87.788 224.788,86.6353333 224.34,85.254 L224.34,85.254 L223.5,82.776 L221.974,82.776 L224.648,90.196 C224.62,90.2613333 224.585,90.3546667 224.543,90.476 C224.522,90.5366667 224.503917,90.5891667 224.48875,90.6335 L224.452,90.742 C224.237333,91.3206667 223.817333,91.61 223.192,91.61 L223.192,91.61 L222.492,91.61 L222.492,92.744 C222.725333,92.772 222.968,92.786 223.22,92.786 Z M236.87,90.224 C238.027333,90.224 239.021333,89.8833333 239.852,89.202 C240.692,88.5206667 241.172667,87.5593333 241.294,86.318 L241.294,86.318 L239.796,86.318 C239.684,87.158 239.352667,87.7973333 238.802,88.236 C238.232667,88.6746667 237.588667,88.894 236.87,88.894 C235.908667,88.894 235.143333,88.5463333 234.574,87.851 C234.004667,87.1556667 233.72,86.2106667 233.72,85.016 C233.72,83.8213333 234.004667,82.8763333 234.574,82.181 C235.143333,81.4856667 235.908667,81.138 236.87,81.138 C237.588667,81.138 238.197667,81.3223333 238.697,81.691 C239.196333,82.0596667 239.539333,82.608 239.726,83.336 L239.726,83.336 L241.238,83.336 C241.014,82.1693333 240.505333,81.2873333 239.712,80.69 C238.918667,80.102 237.971333,79.808 236.87,79.808 C235.47,79.808 234.336,80.2793333 233.468,81.222 C232.6,82.1646667 232.166,83.4293333 232.166,85.016 C232.166,86.612 232.604667,87.8766667 233.482,88.81 C234.35,89.7526667 235.479333,90.224 236.87,90.224 Z M246.642,90 L250.282,80.032 L248.728,80.032 L246.684,85.828 C246.226667,87.1906667 245.928,88.1053333 245.788,88.572 C245.536,87.7133333 245.237333,86.7986667 244.892,85.828 L244.892,85.828 L242.806,80.032 L241.224,80.032 L244.934,90 L246.642,90 Z M252.592,83.896 L252.802,80.032 L251.304,80.032 L251.514,83.896 L252.592,83.896 Z M255.378,83.896 L255.588,80.032 L254.104,80.032 L254.314,83.896 L255.378,83.896 Z M256.204,92.058 L256.386,92.044 C257.394,91.988 257.898,91.3533333 257.898,90.14 L257.898,90.14 L257.898,88.334 L256.204,88.334 L256.204,90 L256.932,90 L256.932,90.224 C256.932,90.812 256.740667,91.1293333 256.358,91.176 L256.358,91.176 L256.204,91.19 L256.204,92.058 Z M265.346,90.168 C266.41,90.168 267.273333,89.8226667 267.936,89.132 C268.589333,88.4506667 268.916,87.536 268.916,86.388 C268.916,85.2306667 268.589333,84.3113333 267.936,83.63 C267.282667,82.9486667 266.419333,82.608 265.346,82.608 C264.272667,82.608 263.409333,82.9486667 262.756,83.63 C262.093333,84.3206667 261.762,85.24 261.762,86.388 C261.762,87.5266667 262.093333,88.4413333 262.756,89.132 C263.418667,89.8226667 264.282,90.168 265.346,90.168 Z M265.346,88.964 C264.692667,88.964 264.174667,88.7353333 263.792,88.278 C263.409333,87.8206667 263.218,87.1906667 263.218,86.388 C263.218,85.5853333 263.409333,84.9553333 263.792,84.498 C264.174667,84.0406667 264.692667,83.812 265.346,83.812 C265.999333,83.812 266.515,84.0406667 266.893,84.498 C267.271,84.9553333 267.46,85.5853333 267.46,86.388 C267.46,87.1906667 267.271,87.8206667 266.893,88.278 C266.515,88.7353333 265.999333,88.964 265.346,88.964 Z M271.548,90 L271.548,86.08 C271.548,85.408 271.744,84.8946667 272.136,84.54 C272.528,84.1853333 273.083333,84.008 273.802,84.008 L273.802,84.008 L274.152,84.008 L274.152,82.678 C274.086667,82.6686667 273.951333,82.664 273.746,82.664 C272.700667,82.664 271.949333,83.1306667 271.492,84.064 L271.492,84.064 L271.492,82.776 L270.148,82.776 L270.148,90 L271.548,90 Z M279.472,83.896 L279.682,80.032 L278.184,80.032 L278.394,83.896 L279.472,83.896 Z M282.258,83.896 L282.468,80.032 L280.984,80.032 L281.194,83.896 L282.258,83.896 Z M288.096,90.224 C289.253333,90.224 290.247333,89.8833333 291.078,89.202 C291.918,88.5206667 292.398667,87.5593333 292.52,86.318 L292.52,86.318 L291.022,86.318 C290.91,87.158 290.578667,87.7973333 290.028,88.236 C289.458667,88.6746667 288.814667,88.894 288.096,88.894 C287.134667,88.894 286.369333,88.5463333 285.8,87.851 C285.230667,87.1556667 284.946,86.2106667 284.946,85.016 C284.946,83.8213333 285.230667,82.8763333 285.8,82.181 C286.369333,81.4856667 287.134667,81.138 288.096,81.138 C288.814667,81.138 289.423667,81.3223333 289.923,81.691 C290.422333,82.0596667 290.765333,82.608 290.952,83.336 L290.952,83.336 L292.464,83.336 C292.24,82.1693333 291.731333,81.2873333 290.938,80.69 C290.144667,80.102 289.197333,79.808 288.096,79.808 C286.696,79.808 285.562,80.2793333 284.694,81.222 C283.826,82.1646667 283.392,83.4293333 283.392,85.016 C283.392,86.612 283.830667,87.8766667 284.708,88.81 C285.576,89.7526667 286.705333,90.224 288.096,90.224 Z M295.866,90.168 C296.948667,90.168 297.732667,89.7853333 298.218,89.02 C298.264667,89.3746667 298.397667,89.6336667 298.617,89.797 C298.836333,89.9603333 299.17,90.042 299.618,90.042 C299.87,90.042 300.098667,90.028 300.304,90 L300.304,90 L300.304,88.922 L299.912,88.922 C299.650667,88.922 299.52,88.8006667 299.52,88.558 L299.52,88.558 L299.52,84.736 C299.52,83.3173333 298.568,82.608 296.664,82.608 C294.722667,82.608 293.700667,83.4153333 293.598,85.03 L293.598,85.03 L294.984,85.03 C295.021333,84.5446667 295.166,84.2063333 295.418,84.015 C295.67,83.8236667 296.085333,83.728 296.664,83.728 C297.196,83.728 297.576333,83.8096667 297.805,83.973 C298.033667,84.1363333 298.148,84.4 298.148,84.764 C298.148,85.0346667 298.061667,85.2423333 297.889,85.387 C297.716333,85.5316667 297.443333,85.6273333 297.07,85.674 L297.07,85.674 L296.006,85.786 C294.195333,85.9726667 293.29,86.7193333 293.29,88.026 C293.29,88.698 293.521,89.223 293.983,89.601 C294.445,89.979 295.072667,90.168 295.866,90.168 Z M296.076,89.076 C295.637333,89.076 295.303667,88.9803333 295.075,88.789 C294.846333,88.5976667 294.732,88.3293333 294.732,87.984 C294.732,87.6386667 294.848667,87.3703333 295.082,87.179 C295.315333,86.9876667 295.702667,86.8593333 296.244,86.794 L296.244,86.794 L297.252,86.682 C297.672,86.6353333 297.970667,86.5373333 298.148,86.388 L298.148,86.388 L298.148,87.144 C298.148,87.76 297.952,88.236 297.56,88.572 C297.168,88.908 296.673333,89.076 296.076,89.076 Z M302.572,90 L302.572,80.032 L301.172,80.032 L301.172,90 L302.572,90 Z M305.54,90 L305.54,80.032 L304.14,80.032 L304.14,90 L305.54,90 Z M312.904,90.168 C313.958667,90.168 314.756667,89.7573333 315.298,88.936 L315.298,88.936 L315.298,90 L316.642,90 L316.642,80.032 L315.242,80.032 L315.242,83.756 C314.700667,82.9906667 313.921333,82.608 312.904,82.608 C311.896,82.608 311.093333,82.9486667 310.496,83.63 C309.898667,84.3113333 309.6,85.2306667 309.6,86.388 C309.6,87.5453333 309.898667,88.4646667 310.496,89.146 C311.093333,89.8273333 311.896,90.168 312.904,90.168 Z M313.17,88.964 C312.526,88.964 312.012667,88.7446667 311.63,88.306 C311.247333,87.8673333 311.056,87.2466667 311.056,86.444 C311.056,85.6226667 311.247333,84.9786667 311.63,84.512 C312.012667,84.0453333 312.526,83.812 313.17,83.812 C313.832667,83.812 314.350667,84.036 314.724,84.484 C315.097333,84.9413333 315.284,85.576 315.284,86.388 C315.284,87.2093333 315.097333,87.8393333 314.724,88.278 C314.350667,88.7353333 313.832667,88.964 313.17,88.964 Z M320.394,90.168 C321.476667,90.168 322.260667,89.7853333 322.746,89.02 C322.792667,89.3746667 322.925667,89.6336667 323.145,89.797 C323.364333,89.9603333 323.698,90.042 324.146,90.042 C324.398,90.042 324.626667,90.028 324.832,90 L324.832,90 L324.832,88.922 L324.44,88.922 C324.178667,88.922 324.048,88.8006667 324.048,88.558 L324.048,88.558 L324.048,84.736 C324.048,83.3173333 323.096,82.608 321.192,82.608 C319.250667,82.608 318.228667,83.4153333 318.126,85.03 L318.126,85.03 L319.512,85.03 C319.549333,84.5446667 319.694,84.2063333 319.946,84.015 C320.198,83.8236667 320.613333,83.728 321.192,83.728 C321.724,83.728 322.104333,83.8096667 322.333,83.973 C322.561667,84.1363333 322.676,84.4 322.676,84.764 C322.676,85.0346667 322.589667,85.2423333 322.417,85.387 C322.244333,85.5316667 321.971333,85.6273333 321.598,85.674 L321.598,85.674 L320.534,85.786 C318.723333,85.9726667 317.818,86.7193333 317.818,88.026 C317.818,88.698 318.049,89.223 318.511,89.601 C318.973,89.979 319.600667,90.168 320.394,90.168 Z M320.604,89.076 C320.165333,89.076 319.831667,88.9803333 319.603,88.789 C319.374333,88.5976667 319.26,88.3293333 319.26,87.984 C319.26,87.6386667 319.376667,87.3703333 319.61,87.179 C319.843333,86.9876667 320.230667,86.8593333 320.772,86.794 L320.772,86.794 L321.78,86.682 C322.2,86.6353333 322.498667,86.5373333 322.676,86.388 L322.676,86.388 L322.676,87.144 C322.676,87.76 322.48,88.236 322.088,88.572 C321.696,88.908 321.201333,89.076 320.604,89.076 Z M328.654,90.168 C329.708667,90.168 330.506667,89.7573333 331.048,88.936 L331.048,88.936 L331.048,90 L332.392,90 L332.392,80.032 L330.992,80.032 L330.992,83.756 C330.450667,82.9906667 329.671333,82.608 328.654,82.608 C327.646,82.608 326.843333,82.9486667 326.246,83.63 C325.648667,84.3113333 325.35,85.2306667 325.35,86.388 C325.35,87.5453333 325.648667,88.4646667 326.246,89.146 C326.843333,89.8273333 327.646,90.168 328.654,90.168 Z M328.92,88.964 C328.276,88.964 327.762667,88.7446667 327.38,88.306 C326.997333,87.8673333 326.806,87.2466667 326.806,86.444 C326.806,85.6226667 326.997333,84.9786667 327.38,84.512 C327.762667,84.0453333 328.276,83.812 328.92,83.812 C329.582667,83.812 330.100667,84.036 330.474,84.484 C330.847333,84.9413333 331.034,85.576 331.034,86.388 C331.034,87.2093333 330.847333,87.8393333 330.474,88.278 C330.100667,88.7353333 329.582667,88.964 328.92,88.964 Z M335.346,83.896 L335.556,80.032 L334.058,80.032 L334.268,83.896 L335.346,83.896 Z M338.132,83.896 L338.342,80.032 L336.858,80.032 L337.068,83.896 L338.132,83.896 Z" id="Afteryou'vedefinedyourmonthlygoals,click'+'anddefinewhatyouwilldotoday.Examplesare&quot;Trainfor30minsinthegym&quot;,&quot;UpdatemyCV&quot;,or&quot;Calldad&quot;" fill="#000000" fill-rule="nonzero"></path>
            </g>
            <path d="M37.958,24 L39.578,18.006 C39.89,16.842 40.262,15.36 40.694,13.56 C41.126,15.36 41.498,16.842 41.81,18.006 L41.81,18.006 L43.43,24 L45.59,24 L49.19,11.184 L47.192,11.184 L45.626,16.998 C45.086,19.098 44.69,20.676 44.438,21.732 C43.742,18.876 43.352,17.286 43.268,16.962 L43.268,16.962 L41.72,11.184 L39.668,11.184 L38.12,16.962 C38.036,17.286 37.646,18.876 36.95,21.732 C36.698,20.676 36.302,19.098 35.762,16.998 L35.762,16.998 L34.196,11.184 L32.198,11.184 L35.798,24 L37.958,24 Z M52.196,24 L52.196,18.96 C52.196,18.096 52.448,17.436 52.952,16.98 C53.456,16.524 54.17,16.296 55.094,16.296 L55.094,16.296 L55.544,16.296 L55.544,14.586 C55.46,14.574 55.286,14.568 55.022,14.568 C53.678,14.568 52.712,15.168 52.124,16.368 L52.124,16.368 L52.124,14.712 L50.396,14.712 L50.396,24 L52.196,24 Z M58.802,13.398 L58.802,11.472 L56.966,11.472 L56.966,13.398 L58.802,13.398 Z M58.784,24 L58.784,14.712 L56.984,14.712 L56.984,24 L58.784,24 Z M64.112,24.054 C64.448,24.054 64.814,24.036 65.21,24 L65.21,24 L65.21,22.56 L64.4,22.56 C64.016,22.56 63.743,22.497 63.581,22.371 C63.419,22.245 63.338,22.044 63.338,21.768 L63.338,21.768 L63.338,16.188 L65.21,16.188 L65.21,14.712 L63.338,14.712 L63.338,12.048 L61.538,12.048 L61.538,14.712 L60.044,14.712 L60.044,16.188 L61.538,16.188 L61.538,21.93 C61.538,22.674 61.748,23.214 62.168,23.55 C62.588,23.886 63.236,24.054 64.112,24.054 Z M70.664,24.216 C71.732,24.216 72.629,23.943 73.355,23.397 C74.081,22.851 74.57,22.104 74.822,21.156 L74.822,21.156 L73.004,21.156 C72.644,22.188 71.876,22.704 70.7,22.704 C69.92,22.704 69.302,22.473 68.846,22.011 C68.39,21.549 68.12,20.862 68.036,19.95 L68.036,19.95 L75.038,19.95 L75.038,19.428 C75.038,17.988 74.648,16.806 73.868,15.882 C73.076,14.958 71.996,14.496 70.628,14.496 C69.32,14.496 68.258,14.94 67.442,15.828 C66.626,16.716 66.218,17.892 66.218,19.356 C66.218,20.82 66.626,21.996 67.442,22.884 C68.258,23.772 69.332,24.216 70.664,24.216 Z M73.184,18.528 L68.054,18.528 C68.162,17.712 68.441,17.088 68.891,16.656 C69.341,16.224 69.92,16.008 70.628,16.008 C71.348,16.008 71.933,16.239 72.383,16.701 C72.833,17.163 73.1,17.772 73.184,18.528 L73.184,18.528 Z M84.452,24.216 C85.82,24.216 86.93,23.772 87.782,22.884 C88.622,22.008 89.042,20.832 89.042,19.356 C89.042,17.868 88.622,16.686 87.782,15.81 C86.942,14.934 85.832,14.496 84.452,14.496 C83.072,14.496 81.962,14.934 81.122,15.81 C80.27,16.698 79.844,17.88 79.844,19.356 C79.844,20.82 80.27,21.996 81.122,22.884 C81.974,23.772 83.084,24.216 84.452,24.216 Z M84.452,22.668 C83.612,22.668 82.946,22.374 82.454,21.786 C81.962,21.198 81.716,20.388 81.716,19.356 C81.716,18.324 81.962,17.514 82.454,16.926 C82.946,16.338 83.612,16.044 84.452,16.044 C85.292,16.044 85.955,16.338 86.441,16.926 C86.927,17.514 87.17,18.324 87.17,19.356 C87.17,20.388 86.927,21.198 86.441,21.786 C85.955,22.374 85.292,22.668 84.452,22.668 Z M92.426,24 L92.426,18.762 C92.426,17.898 92.666,17.232 93.146,16.764 C93.626,16.308 94.166,16.08 94.766,16.08 C96.074,16.08 96.728,16.728 96.728,18.024 L96.728,18.024 L96.728,24 L98.528,24 L98.528,17.772 C98.528,16.728 98.24,15.921 97.664,15.351 C97.088,14.781 96.29,14.496 95.27,14.496 C94.034,14.496 93.062,15.03 92.354,16.098 L92.354,16.098 L92.354,14.712 L90.626,14.712 L90.626,24 L92.426,24 Z M104.576,24.216 C105.644,24.216 106.541,23.943 107.267,23.397 C107.993,22.851 108.482,22.104 108.734,21.156 L108.734,21.156 L106.916,21.156 C106.556,22.188 105.788,22.704 104.612,22.704 C103.832,22.704 103.214,22.473 102.758,22.011 C102.302,21.549 102.032,20.862 101.948,19.95 L101.948,19.95 L108.95,19.95 L108.95,19.428 C108.95,17.988 108.56,16.806 107.78,15.882 C106.988,14.958 105.908,14.496 104.54,14.496 C103.232,14.496 102.17,14.94 101.354,15.828 C100.538,16.716 100.13,17.892 100.13,19.356 C100.13,20.82 100.538,21.996 101.354,22.884 C102.17,23.772 103.244,24.216 104.576,24.216 Z M107.096,18.528 L101.966,18.528 C102.074,17.712 102.353,17.088 102.803,16.656 C103.253,16.224 103.832,16.008 104.54,16.008 C105.26,16.008 105.845,16.239 106.295,16.701 C106.745,17.163 107.012,17.772 107.096,18.528 L107.096,18.528 Z M115.988,27.528 L115.988,22.704 C116.684,23.712 117.692,24.216 119.012,24.216 C120.296,24.216 121.328,23.772 122.108,22.884 C122.876,22.008 123.26,20.832 123.26,19.356 C123.26,17.868 122.876,16.686 122.108,15.81 C121.34,14.934 120.308,14.496 119.012,14.496 C117.644,14.496 116.612,15.036 115.916,16.116 L115.916,16.116 L115.916,14.712 L114.188,14.712 L114.188,27.528 L115.988,27.528 Z M118.67,22.668 C117.83,22.668 117.17,22.374 116.69,21.786 C116.198,21.198 115.952,20.388 115.952,19.356 C115.952,18.324 116.198,17.508 116.69,16.908 C117.182,16.332 117.842,16.044 118.67,16.044 C119.522,16.044 120.188,16.326 120.668,16.89 C121.148,17.454 121.388,18.252 121.388,19.284 C121.388,20.352 121.148,21.18 120.668,21.768 C120.176,22.368 119.51,22.668 118.67,22.668 Z M127.634,24.216 C129.026,24.216 130.034,23.724 130.658,22.74 C130.718,23.196 130.889,23.529 131.171,23.739 C131.453,23.949 131.882,24.054 132.458,24.054 C132.782,24.054 133.076,24.036 133.34,24 L133.34,24 L133.34,22.614 L132.836,22.614 C132.5,22.614 132.332,22.458 132.332,22.146 L132.332,22.146 L132.332,17.232 C132.332,15.408 131.108,14.496 128.66,14.496 C126.164,14.496 124.85,15.534 124.718,17.61 L124.718,17.61 L126.5,17.61 C126.548,16.986 126.734,16.551 127.058,16.305 C127.382,16.059 127.916,15.936 128.66,15.936 C129.344,15.936 129.833,16.041 130.127,16.251 C130.421,16.461 130.568,16.8 130.568,17.268 C130.568,17.616 130.457,17.883 130.235,18.069 C130.013,18.255 129.662,18.378 129.182,18.438 L129.182,18.438 L127.814,18.582 C125.486,18.822 124.322,19.782 124.322,21.462 C124.322,22.326 124.619,23.001 125.213,23.487 C125.807,23.973 126.614,24.216 127.634,24.216 Z M127.904,22.812 C127.34,22.812 126.911,22.689 126.617,22.443 C126.323,22.197 126.176,21.852 126.176,21.408 C126.176,20.964 126.326,20.619 126.626,20.373 C126.926,20.127 127.424,19.962 128.12,19.878 L128.12,19.878 L129.416,19.734 C129.956,19.674 130.34,19.548 130.568,19.356 L130.568,19.356 L130.568,20.328 C130.568,21.12 130.316,21.732 129.812,22.164 C129.308,22.596 128.672,22.812 127.904,22.812 Z M138.722,27.744 C140.138,27.744 141.23,27.381 141.998,26.655 C142.766,25.929 143.15,24.93 143.15,23.658 L143.15,23.658 L143.15,14.712 L141.422,14.712 L141.422,16.026 C140.726,15.006 139.7,14.496 138.344,14.496 C137.06,14.496 136.034,14.934 135.266,15.81 C134.486,16.698 134.096,17.862 134.096,19.302 C134.096,20.742 134.486,21.906 135.266,22.794 C136.034,23.67 137.066,24.108 138.362,24.108 C139.646,24.108 140.642,23.628 141.35,22.668 L141.35,22.668 L141.35,23.694 C141.35,25.422 140.48,26.286 138.74,26.286 C137.336,26.286 136.562,25.74 136.418,24.648 L136.418,24.648 L134.618,24.648 C134.714,25.608 135.119,26.364 135.833,26.916 C136.547,27.468 137.51,27.744 138.722,27.744 Z M138.686,22.56 C137.858,22.56 137.198,22.269 136.706,21.687 C136.214,21.105 135.968,20.31 135.968,19.302 C135.968,18.306 136.214,17.514 136.706,16.926 C137.198,16.338 137.858,16.044 138.686,16.044 C139.526,16.044 140.189,16.335 140.675,16.917 C141.161,17.499 141.404,18.294 141.404,19.302 C141.404,20.31 141.161,21.105 140.675,21.687 C140.189,22.269 139.526,22.56 138.686,22.56 Z M149.198,24.216 C150.266,24.216 151.163,23.943 151.889,23.397 C152.615,22.851 153.104,22.104 153.356,21.156 L153.356,21.156 L151.538,21.156 C151.178,22.188 150.41,22.704 149.234,22.704 C148.454,22.704 147.836,22.473 147.38,22.011 C146.924,21.549 146.654,20.862 146.57,19.95 L146.57,19.95 L153.572,19.95 L153.572,19.428 C153.572,17.988 153.182,16.806 152.402,15.882 C151.61,14.958 150.53,14.496 149.162,14.496 C147.854,14.496 146.792,14.94 145.976,15.828 C145.16,16.716 144.752,17.892 144.752,19.356 C144.752,20.82 145.16,21.996 145.976,22.884 C146.792,23.772 147.866,24.216 149.198,24.216 Z M151.718,18.528 L146.588,18.528 C146.696,17.712 146.975,17.088 147.425,16.656 C147.875,16.224 148.454,16.008 149.162,16.008 C149.882,16.008 150.467,16.239 150.917,16.701 C151.367,17.163 151.634,17.772 151.718,18.528 L151.718,18.528 Z M162.986,24.216 C164.354,24.216 165.464,23.772 166.316,22.884 C167.156,22.008 167.576,20.832 167.576,19.356 C167.576,17.868 167.156,16.686 166.316,15.81 C165.476,14.934 164.366,14.496 162.986,14.496 C161.606,14.496 160.496,14.934 159.656,15.81 C158.804,16.698 158.378,17.88 158.378,19.356 C158.378,20.82 158.804,21.996 159.656,22.884 C160.508,23.772 161.618,24.216 162.986,24.216 Z M162.986,22.668 C162.146,22.668 161.48,22.374 160.988,21.786 C160.496,21.198 160.25,20.388 160.25,19.356 C160.25,18.324 160.496,17.514 160.988,16.926 C161.48,16.338 162.146,16.044 162.986,16.044 C163.826,16.044 164.489,16.338 164.975,16.926 C165.461,17.514 165.704,18.324 165.704,19.356 C165.704,20.388 165.461,21.198 164.975,21.786 C164.489,22.374 163.826,22.668 162.986,22.668 Z M170.96,24 L170.96,18.762 C170.96,17.898 171.2,17.232 171.68,16.764 C172.16,16.308 172.7,16.08 173.3,16.08 C174.608,16.08 175.262,16.728 175.262,18.024 L175.262,18.024 L175.262,24 L177.062,24 L177.062,17.772 C177.062,16.728 176.774,15.921 176.198,15.351 C175.622,14.781 174.824,14.496 173.804,14.496 C172.568,14.496 171.596,15.03 170.888,16.098 L170.888,16.098 L170.888,14.712 L169.16,14.712 L169.16,24 L170.96,24 Z M186.17,24.234 C187.394,24.234 188.348,23.985 189.032,23.487 C189.716,22.989 190.058,22.29 190.058,21.39 C190.058,20.622 189.806,20.022 189.302,19.59 C188.798,19.158 187.976,18.834 186.836,18.618 L186.836,18.618 L185.864,18.456 C185.264,18.336 184.826,18.177 184.55,17.979 C184.274,17.781 184.136,17.502 184.136,17.142 C184.136,16.746 184.292,16.44 184.604,16.224 C184.916,16.008 185.36,15.9 185.936,15.9 C186.656,15.9 187.19,16.029 187.538,16.287 C187.886,16.545 188.078,16.986 188.114,17.61 L188.114,17.61 L189.86,17.61 C189.8,15.534 188.492,14.496 185.936,14.496 C184.82,14.496 183.944,14.739 183.308,15.225 C182.672,15.711 182.354,16.368 182.354,17.196 C182.354,18.684 183.338,19.608 185.306,19.968 L185.306,19.968 L186.26,20.148 C187.004,20.28 187.52,20.448 187.808,20.652 C188.096,20.856 188.24,21.144 188.24,21.516 C188.24,22.38 187.556,22.812 186.188,22.812 C185.432,22.812 184.88,22.68 184.532,22.416 C184.184,22.152 183.974,21.696 183.902,21.048 L183.902,21.048 L182.102,21.048 C182.234,23.172 183.59,24.234 186.17,24.234 Z M194.702,24.054 C195.038,24.054 195.404,24.036 195.8,24 L195.8,24 L195.8,22.56 L194.99,22.56 C194.606,22.56 194.333,22.497 194.171,22.371 C194.009,22.245 193.928,22.044 193.928,21.768 L193.928,21.768 L193.928,16.188 L195.8,16.188 L195.8,14.712 L193.928,14.712 L193.928,12.048 L192.128,12.048 L192.128,14.712 L190.634,14.712 L190.634,16.188 L192.128,16.188 L192.128,21.93 C192.128,22.674 192.338,23.214 192.758,23.55 C193.178,23.886 193.826,24.054 194.702,24.054 Z M200.03,24.216 C201.422,24.216 202.43,23.724 203.054,22.74 C203.114,23.196 203.285,23.529 203.567,23.739 C203.849,23.949 204.278,24.054 204.854,24.054 C205.178,24.054 205.472,24.036 205.736,24 L205.736,24 L205.736,22.614 L205.232,22.614 C204.896,22.614 204.728,22.458 204.728,22.146 L204.728,22.146 L204.728,17.232 C204.728,15.408 203.504,14.496 201.056,14.496 C198.56,14.496 197.246,15.534 197.114,17.61 L197.114,17.61 L198.896,17.61 C198.944,16.986 199.13,16.551 199.454,16.305 C199.778,16.059 200.312,15.936 201.056,15.936 C201.74,15.936 202.229,16.041 202.523,16.251 C202.817,16.461 202.964,16.8 202.964,17.268 C202.964,17.616 202.853,17.883 202.631,18.069 C202.409,18.255 202.058,18.378 201.578,18.438 L201.578,18.438 L200.21,18.582 C197.882,18.822 196.718,19.782 196.718,21.462 C196.718,22.326 197.015,23.001 197.609,23.487 C198.203,23.973 199.01,24.216 200.03,24.216 Z M200.3,22.812 C199.736,22.812 199.307,22.689 199.013,22.443 C198.719,22.197 198.572,21.852 198.572,21.408 C198.572,20.964 198.722,20.619 199.022,20.373 C199.322,20.127 199.82,19.962 200.516,19.878 L200.516,19.878 L201.812,19.734 C202.352,19.674 202.736,19.548 202.964,19.356 L202.964,19.356 L202.964,20.328 C202.964,21.12 202.712,21.732 202.208,22.164 C201.704,22.596 201.068,22.812 200.3,22.812 Z M210.236,24.054 C210.572,24.054 210.938,24.036 211.334,24 L211.334,24 L211.334,22.56 L210.524,22.56 C210.14,22.56 209.867,22.497 209.705,22.371 C209.543,22.245 209.462,22.044 209.462,21.768 L209.462,21.768 L209.462,16.188 L211.334,16.188 L211.334,14.712 L209.462,14.712 L209.462,12.048 L207.662,12.048 L207.662,14.712 L206.168,14.712 L206.168,16.188 L207.662,16.188 L207.662,21.93 C207.662,22.674 207.872,23.214 208.292,23.55 C208.712,23.886 209.36,24.054 210.236,24.054 Z M214.592,13.398 L214.592,11.472 L212.756,11.472 L212.756,13.398 L214.592,13.398 Z M214.574,24 L214.574,14.712 L212.774,14.712 L212.774,24 L214.574,24 Z M220.028,24.234 C221.252,24.234 222.206,23.985 222.89,23.487 C223.574,22.989 223.916,22.29 223.916,21.39 C223.916,20.622 223.664,20.022 223.16,19.59 C222.656,19.158 221.834,18.834 220.694,18.618 L220.694,18.618 L219.722,18.456 C219.122,18.336 218.684,18.177 218.408,17.979 C218.132,17.781 217.994,17.502 217.994,17.142 C217.994,16.746 218.15,16.44 218.462,16.224 C218.774,16.008 219.218,15.9 219.794,15.9 C220.514,15.9 221.048,16.029 221.396,16.287 C221.744,16.545 221.936,16.986 221.972,17.61 L221.972,17.61 L223.718,17.61 C223.658,15.534 222.35,14.496 219.794,14.496 C218.678,14.496 217.802,14.739 217.166,15.225 C216.53,15.711 216.212,16.368 216.212,17.196 C216.212,18.684 217.196,19.608 219.164,19.968 L219.164,19.968 L220.118,20.148 C220.862,20.28 221.378,20.448 221.666,20.652 C221.954,20.856 222.098,21.144 222.098,21.516 C222.098,22.38 221.414,22.812 220.046,22.812 C219.29,22.812 218.738,22.68 218.39,22.416 C218.042,22.152 217.832,21.696 217.76,21.048 L217.76,21.048 L215.96,21.048 C216.092,23.172 217.448,24.234 220.028,24.234 Z M228.56,24.054 C228.896,24.054 229.262,24.036 229.658,24 L229.658,24 L229.658,22.56 L228.848,22.56 C228.464,22.56 228.191,22.497 228.029,22.371 C227.867,22.245 227.786,22.044 227.786,21.768 L227.786,21.768 L227.786,16.188 L229.658,16.188 L229.658,14.712 L227.786,14.712 L227.786,12.048 L225.986,12.048 L225.986,14.712 L224.492,14.712 L224.492,16.188 L225.986,16.188 L225.986,21.93 C225.986,22.674 226.196,23.214 226.616,23.55 C227.036,23.886 227.684,24.054 228.56,24.054 Z M232.916,13.398 L232.916,11.472 L231.08,11.472 L231.08,13.398 L232.916,13.398 Z M232.898,24 L232.898,14.712 L231.098,14.712 L231.098,24 L232.898,24 Z M238.91,24.216 C240.026,24.216 240.962,23.898 241.718,23.262 C242.474,22.626 242.924,21.768 243.068,20.688 L243.068,20.688 L241.232,20.688 C241.124,21.324 240.86,21.81 240.44,22.146 C240.02,22.482 239.51,22.65 238.91,22.65 C238.13,22.65 237.509,22.365 237.047,21.795 C236.585,21.225 236.354,20.412 236.354,19.356 C236.354,18.3 236.585,17.487 237.047,16.917 C237.509,16.347 238.13,16.062 238.91,16.062 C239.498,16.062 239.999,16.224 240.413,16.548 C240.827,16.872 241.094,17.34 241.214,17.952 L241.214,17.952 L243.05,17.952 C242.906,16.896 242.465,16.056 241.727,15.432 C240.989,14.808 240.05,14.496 238.91,14.496 C237.578,14.496 236.51,14.934 235.706,15.81 C234.89,16.698 234.482,17.88 234.482,19.356 C234.482,20.82 234.89,21.996 235.706,22.884 C236.522,23.772 237.59,24.216 238.91,24.216 Z M247.91,24.234 C249.134,24.234 250.088,23.985 250.772,23.487 C251.456,22.989 251.798,22.29 251.798,21.39 C251.798,20.622 251.546,20.022 251.042,19.59 C250.538,19.158 249.716,18.834 248.576,18.618 L248.576,18.618 L247.604,18.456 C247.004,18.336 246.566,18.177 246.29,17.979 C246.014,17.781 245.876,17.502 245.876,17.142 C245.876,16.746 246.032,16.44 246.344,16.224 C246.656,16.008 247.1,15.9 247.676,15.9 C248.396,15.9 248.93,16.029 249.278,16.287 C249.626,16.545 249.818,16.986 249.854,17.61 L249.854,17.61 L251.6,17.61 C251.54,15.534 250.232,14.496 247.676,14.496 C246.56,14.496 245.684,14.739 245.048,15.225 C244.412,15.711 244.094,16.368 244.094,17.196 C244.094,18.684 245.078,19.608 247.046,19.968 L247.046,19.968 L248,20.148 C248.744,20.28 249.26,20.448 249.548,20.652 C249.836,20.856 249.98,21.144 249.98,21.516 C249.98,22.38 249.296,22.812 247.928,22.812 C247.172,22.812 246.62,22.68 246.272,22.416 C245.924,22.152 245.714,21.696 245.642,21.048 L245.642,21.048 L243.842,21.048 C243.974,23.172 245.33,24.234 247.91,24.234 Z" id="Writeonepageonstatistics" fill="#000000" fill-rule="nonzero"></path>
            <circle id="Oval" stroke="url(#linearGradient-2)" stroke-width="2" cx="18" cy="18" r="7"></circle>
            <line x1="1.5" y1="34.5" x2="408.5" y2="34.5" id="Line-10" stroke="#F5F5F5" stroke-linecap="square"></line>
        </g>
    </g>
</svg>