<?xml version="1.0" encoding="utf-8"?>
<!-- Generator: Adobe Illustrator 23.0.4, SVG Export Plug-In . SVG Version: 6.00 Build 0)  -->
<svg version="1.1" id="Layer_1" xmlns="http://www.w3.org/2000/svg" xmlns:xlink="http://www.w3.org/1999/xlink" x="0px" y="0px"
	 viewBox="0 0 1034 530" style="enable-background:new 0 0 1034 530;" xml:space="preserve">
<style type="text/css">
	.st0{enable-background:new    ;}
	.st1{fill:#151515;}
	.st2{fill:none;stroke:#FFD900;stroke-width:2;}
	.st3{fill:none;stroke:#FF0000;stroke-width:3;stroke-linecap:round;}
	.st4{fill:none;stroke:#000000;stroke-width:2;stroke-dasharray:12,12,12,12,12,12;}
	.st5{fill:none;stroke:#27CC15;stroke-width:2;}
	.st6{fill:none;stroke:#000000;}
</style>
<title>Group 11</title>
<g class="st0">
	<path class="st1" d="M66.7,152h-6.7l-9-33.8h7.3l5.3,24.5H64l6.3-24.5h6l6.3,24.5h0.2l5.3-24.5h7.3l-9,33.8h-6.7l-6.4-23.1h-0.2
		L66.7,152z"/>
	<path class="st1" d="M118.8,144.3c-0.8,4.9-5.2,8.2-11.5,8.2c-7.7,0-12.4-4.9-12.4-13c0-8,4.7-13.2,12.1-13.2
		c7.3,0,11.9,4.9,11.9,12.6v2.1h-17.3v0.4c0,3.6,2.3,6,5.8,6c2.5,0,4.4-1.2,5.1-3.2H118.8z M101.7,136.8h10.7
		c-0.1-3.2-2.2-5.4-5.3-5.4C104.1,131.4,102,133.7,101.7,136.8z"/>
	<path class="st1" d="M139,147.7h-0.1v4.3h-6.8v-33.8h6.8v13.1h0.1c1.4-3,4.2-4.8,7.8-4.8c6.3,0,10.2,4.9,10.2,13
		c0,8.1-3.9,13-10.2,13C143.2,152.4,140.4,150.6,139,147.7z M139,139.4c0,4.5,2.2,7.5,5.6,7.5c3.4,0,5.6-2.9,5.6-7.5
		c0-4.6-2.2-7.5-5.6-7.5C141.2,132,139,134.9,139,139.4z"/>
	<path class="st1" d="M183.6,144.3c-0.8,4.9-5.2,8.2-11.5,8.2c-7.7,0-12.4-4.9-12.4-13c0-8,4.7-13.2,12.1-13.2
		c7.3,0,11.9,4.9,11.9,12.6v2.1h-17.3v0.4c0,3.6,2.3,6,5.8,6c2.5,0,4.4-1.2,5.1-3.2H183.6z M166.5,136.8h10.7
		c-0.1-3.2-2.2-5.4-5.3-5.4C168.9,131.4,166.8,133.7,166.5,136.8z"/>
	<path class="st1" d="M187.5,118.2h6.8V152h-6.8V118.2z"/>
	<path class="st1" d="M198.9,120c0-1.9,1.6-3.5,3.6-3.5s3.6,1.6,3.6,3.5c0,1.9-1.6,3.5-3.6,3.5S198.9,121.9,198.9,120z M199,126.9
		h6.8V152H199V126.9z"/>
	<path class="st1" d="M233.4,144.3c-0.8,4.9-5.2,8.2-11.5,8.2c-7.7,0-12.4-4.9-12.4-13c0-8,4.7-13.2,12.1-13.2
		c7.3,0,11.9,4.9,11.9,12.6v2.1h-17.3v0.4c0,3.6,2.3,6,5.8,6c2.5,0,4.4-1.2,5.1-3.2H233.4z M216.3,136.8H227
		c-0.1-3.2-2.2-5.4-5.3-5.4C218.7,131.4,216.6,133.7,216.3,136.8z"/>
	<path class="st1" d="M251.1,152h-7.7l-8.7-25.1h7.3l5.2,19.1h0.1l5.2-19.1h7.1L251.1,152z"/>
	<path class="st1" d="M284.3,144.3c-0.8,4.9-5.2,8.2-11.5,8.2c-7.7,0-12.4-4.9-12.4-13c0-8,4.7-13.2,12.1-13.2
		c7.3,0,11.9,4.9,11.9,12.6v2.1h-17.3v0.4c0,3.6,2.3,6,5.8,6c2.5,0,4.4-1.2,5.1-3.2H284.3z M267.2,136.8h10.7
		c-0.1-3.2-2.2-5.4-5.3-5.4C269.6,131.4,267.5,133.7,267.2,136.8z"/>
	<path class="st1" d="M306.2,121.1v5.8h4.6v5.2h-4.6v12c0,1.9,0.9,2.8,3,2.8c0.6,0,1.2,0,1.7-0.1v5c-0.7,0.2-1.9,0.3-3.3,0.3
		c-5.9,0-8.2-2-8.2-6.9V132h-3.5v-5.2h3.5v-5.8H306.2z"/>
	<path class="st1" d="M314.7,118.2h6.7v13.2h0.1c1.3-3.2,4.1-4.9,7.9-4.9c5.6,0,8.8,3.6,8.8,9.4V152h-6.8v-14.7
		c0-3.2-1.6-5.2-4.7-5.2c-3.2,0-5.1,2.3-5.1,5.6V152h-6.8V118.2z"/>
	<path class="st1" d="M341.7,144.8c0-4.6,3.5-7.2,9.8-7.6l6.3-0.4v-1.7c0-2.3-1.6-3.7-4.2-3.7c-2.6,0-4.2,1.3-4.5,3.1h-6.3
		c0.3-4.9,4.4-8.2,11.1-8.2c6.4,0,10.6,3.3,10.6,8.4V152h-6.6v-3.8h-0.1c-1.4,2.7-4.5,4.2-7.7,4.2
		C345.3,152.4,341.7,149.3,341.7,144.8z M357.8,142.8V141l-5.3,0.3c-2.6,0.2-4,1.3-4,3.1c0,1.9,1.5,3,3.9,3
		C355.3,147.5,357.8,145.5,357.8,142.8z"/>
	<path class="st1" d="M377.6,121.1v5.8h4.6v5.2h-4.6v12c0,1.9,0.9,2.8,3,2.8c0.6,0,1.2,0,1.7-0.1v5c-0.7,0.2-1.9,0.3-3.3,0.3
		c-5.9,0-8.2-2-8.2-6.9V132h-3.5v-5.2h3.5v-5.8H377.6z"/>
	<path class="st1" d="M395.5,126.9h6.6v4.5h0.1c1.1-3,3.8-5,7.2-5c3.6,0,6.2,1.9,7,5.2h0.1c1.1-3.2,4.1-5.2,7.8-5.2
		c4.9,0,8.2,3.4,8.2,8.4V152h-6.8v-15.4c0-2.9-1.5-4.5-4.1-4.5c-2.6,0-4.3,1.9-4.3,4.7V152h-6.6v-15.7c0-2.7-1.5-4.3-4.1-4.3
		c-2.6,0-4.4,2-4.4,4.8V152h-6.8V126.9z"/>
	<path class="st1" d="M436,139.4c0-8.1,4.9-13.1,12.4-13.1s12.4,4.9,12.4,13.1c0,8.3-4.9,13.1-12.4,13.1S436,147.7,436,139.4z
		 M453.9,139.4c0-5-2.2-7.9-5.5-7.9s-5.5,2.9-5.5,7.9c0,5,2.1,7.9,5.5,7.9C451.8,147.3,453.9,144.5,453.9,139.4z"/>
	<path class="st1" d="M474.5,126.3c6.4,0,10.4,3.3,10.6,8.2h-6.3c-0.2-2-1.7-3.4-4.3-3.4c-2.4,0-3.9,1.1-3.9,2.7
		c0,1.3,0.9,2.2,3.5,2.7l4.3,0.9c5.2,1.1,7.4,3.2,7.4,6.8c0,4.9-4.5,8.2-11,8.2c-6.9,0-10.9-3.2-11.4-8.2h6.7c0.4,2.2,2,3.4,4.7,3.4
		c2.6,0,4.2-1.1,4.2-2.7c0-1.3-0.9-2.1-3.3-2.6l-4.3-0.9c-4.9-1-7.3-3.5-7.3-7.2C464,129.5,468.1,126.3,474.5,126.3z"/>
	<path class="st1" d="M497.8,121.1v5.8h4.6v5.2h-4.6v12c0,1.9,0.9,2.8,3,2.8c0.6,0,1.2,0,1.7-0.1v5c-0.7,0.2-1.9,0.3-3.3,0.3
		c-5.9,0-8.2-2-8.2-6.9V132h-3.5v-5.2h3.5v-5.8H497.8z"/>
	<path class="st1" d="M514.7,139.4c0-8.1,4.9-13.1,12.4-13.1s12.4,4.9,12.4,13.1c0,8.3-4.9,13.1-12.4,13.1S514.7,147.7,514.7,139.4z
		 M532.7,139.4c0-5-2.2-7.9-5.5-7.9s-5.5,2.9-5.5,7.9c0,5,2.1,7.9,5.5,7.9C530.5,147.3,532.7,144.5,532.7,139.4z"/>
	<path class="st1" d="M545,132h-3.4v-5h3.4v-1.9c0-4.9,2.3-7.2,8.3-7.2c1.3,0,2.7,0.1,3.5,0.3v4.5c-0.5-0.1-1.2-0.1-1.9-0.1
		c-2.2,0-3.2,1-3.2,2.8v1.7h5v5h-4.8v20H545V132z"/>
	<path class="st1" d="M578.4,121.1v5.8h4.6v5.2h-4.6v12c0,1.9,0.9,2.8,3,2.8c0.6,0,1.2,0,1.7-0.1v5c-0.7,0.2-1.9,0.3-3.3,0.3
		c-5.9,0-8.2-2-8.2-6.9V132H568v-5.2h3.5v-5.8H578.4z"/>
	<path class="st1" d="M586.9,118.2h6.7v13.2h0.1c1.3-3.2,4.1-4.9,7.9-4.9c5.6,0,8.8,3.6,8.8,9.4V152h-6.8v-14.7
		c0-3.2-1.6-5.2-4.7-5.2c-3.2,0-5.1,2.3-5.1,5.6V152h-6.8V118.2z"/>
	<path class="st1" d="M637.8,144.3c-0.8,4.9-5.2,8.2-11.5,8.2c-7.7,0-12.4-4.9-12.4-13c0-8,4.7-13.2,12.1-13.2
		c7.3,0,11.9,4.9,11.9,12.6v2.1h-17.3v0.4c0,3.6,2.3,6,5.8,6c2.5,0,4.4-1.2,5.1-3.2H637.8z M620.7,136.8h10.7
		c-0.1-3.2-2.2-5.4-5.3-5.4C623.1,131.4,620.9,133.7,620.7,136.8z"/>
	<path class="st1" d="M650.8,153.8h6.7c0.5,1.7,2.5,2.9,5.1,2.9c3.5,0,5.5-2,5.5-4.9v-4.4H668c-1.2,2.7-4.1,4.5-7.8,4.5
		c-6.1,0-10.2-4.7-10.2-12.6c0-8,3.9-12.9,10.3-12.9c3.6,0,6.4,1.9,7.8,4.8h0.1v-4.4h6.8v24.8c0,6-5,9.8-12.5,9.8
		C655.8,161.5,651.4,158.3,650.8,153.8z M668.2,139.4c0-4.5-2.2-7.4-5.6-7.4c-3.4,0-5.5,2.9-5.5,7.4c0,4.6,2.1,7.3,5.5,7.3
		C666,146.7,668.2,143.9,668.2,139.4z"/>
	<path class="st1" d="M679.4,126.9h6.6v4.5h0.1c0.9-3.2,3-4.9,6-4.9c0.8,0,1.5,0.1,1.9,0.3v6c-0.6-0.2-1.5-0.4-2.5-0.4
		c-3.4,0-5.3,2.1-5.3,5.6v14h-6.8V126.9z"/>
	<path class="st1" d="M719,144.3c-0.8,4.9-5.2,8.2-11.5,8.2c-7.7,0-12.4-4.9-12.4-13c0-8,4.7-13.2,12.1-13.2
		c7.3,0,11.9,4.9,11.9,12.6v2.1h-17.3v0.4c0,3.6,2.3,6,5.8,6c2.5,0,4.4-1.2,5.1-3.2H719z M702,136.8h10.7c-0.1-3.2-2.2-5.4-5.3-5.4
		C704.4,131.4,702.2,133.7,702,136.8z"/>
	<path class="st1" d="M721.8,144.8c0-4.6,3.5-7.2,9.8-7.6l6.3-0.4v-1.7c0-2.3-1.6-3.7-4.2-3.7c-2.6,0-4.2,1.3-4.5,3.1h-6.3
		c0.3-4.9,4.4-8.2,11.1-8.2c6.4,0,10.6,3.3,10.6,8.4V152H738v-3.8h-0.1c-1.4,2.7-4.5,4.2-7.7,4.2
		C725.4,152.4,721.8,149.3,721.8,144.8z M737.9,142.8V141l-5.3,0.3c-2.6,0.2-4,1.3-4,3.1c0,1.9,1.5,3,3.9,3
		C735.4,147.5,737.9,145.5,737.9,142.8z"/>
	<path class="st1" d="M757.7,121.1v5.8h4.6v5.2h-4.6v12c0,1.9,0.9,2.8,3,2.8c0.6,0,1.2,0,1.7-0.1v5c-0.7,0.2-1.9,0.3-3.3,0.3
		c-5.9,0-8.2-2-8.2-6.9V132h-3.5v-5.2h3.5v-5.8H757.7z"/>
	<path class="st1" d="M788.6,144.3c-0.8,4.9-5.2,8.2-11.5,8.2c-7.7,0-12.4-4.9-12.4-13c0-8,4.7-13.2,12.1-13.2
		c7.3,0,11.9,4.9,11.9,12.6v2.1h-17.3v0.4c0,3.6,2.3,6,5.8,6c2.5,0,4.4-1.2,5.1-3.2H788.6z M771.6,136.8h10.7
		c-0.1-3.2-2.2-5.4-5.3-5.4C774,131.4,771.8,133.7,771.6,136.8z"/>
	<path class="st1" d="M802.5,126.3c6.4,0,10.4,3.3,10.6,8.2h-6.3c-0.2-2-1.7-3.4-4.3-3.4c-2.4,0-3.9,1.1-3.9,2.7
		c0,1.3,0.9,2.2,3.5,2.7l4.3,0.9c5.2,1.1,7.4,3.2,7.4,6.8c0,4.9-4.5,8.2-11,8.2c-6.9,0-10.9-3.2-11.4-8.2h6.7c0.4,2.2,2,3.4,4.7,3.4
		c2.6,0,4.2-1.1,4.2-2.7c0-1.3-0.9-2.1-3.3-2.6l-4.3-0.9c-4.9-1-7.3-3.5-7.3-7.2C791.9,129.5,796.1,126.3,802.5,126.3z"/>
	<path class="st1" d="M825.7,121.1v5.8h4.6v5.2h-4.6v12c0,1.9,0.9,2.8,3,2.8c0.6,0,1.2,0,1.7-0.1v5c-0.7,0.2-1.9,0.3-3.3,0.3
		c-5.9,0-8.2-2-8.2-6.9V132h-3.5v-5.2h3.5v-5.8H825.7z"/>
	<path class="st1" d="M852.3,121.1v5.8h4.6v5.2h-4.6v12c0,1.9,0.9,2.8,3,2.8c0.6,0,1.2,0,1.7-0.1v5c-0.7,0.2-1.9,0.3-3.3,0.3
		c-5.9,0-8.2-2-8.2-6.9V132h-3.5v-5.2h3.5v-5.8H852.3z"/>
	<path class="st1" d="M860.9,118.2h6.7v13.2h0.1c1.3-3.2,4.1-4.9,7.9-4.9c5.6,0,8.8,3.6,8.8,9.4V152h-6.8v-14.7
		c0-3.2-1.6-5.2-4.7-5.2c-3.2,0-5.1,2.3-5.1,5.6V152h-6.8V118.2z"/>
	<path class="st1" d="M888.7,120c0-1.9,1.6-3.5,3.6-3.5s3.6,1.6,3.6,3.5c0,1.9-1.6,3.5-3.6,3.5S888.7,121.9,888.7,120z M888.9,126.9
		h6.8V152h-6.8V126.9z"/>
	<path class="st1" d="M900.2,126.9h6.6v4.5h0.1c1.3-3.1,4-4.9,7.9-4.9c5.6,0,8.7,3.5,8.7,9.4V152h-6.8v-14.8c0-3.3-1.5-5.2-4.6-5.2
		s-5,2.2-5,5.5V152h-6.8V126.9z"/>
	<path class="st1" d="M927.8,153.8h6.7c0.5,1.7,2.5,2.9,5.1,2.9c3.5,0,5.5-2,5.5-4.9v-4.4h-0.1c-1.2,2.7-4.1,4.5-7.8,4.5
		c-6.1,0-10.2-4.7-10.2-12.6c0-8,3.9-12.9,10.3-12.9c3.6,0,6.4,1.9,7.8,4.8h0.1v-4.4h6.8v24.8c0,6-5,9.8-12.5,9.8
		C932.8,161.5,928.3,158.3,927.8,153.8z M945.1,139.4c0-4.5-2.2-7.4-5.6-7.4c-3.4,0-5.5,2.9-5.5,7.4c0,4.6,2.1,7.3,5.5,7.3
		C942.9,146.7,945.1,143.9,945.1,139.4z"/>
	<path class="st1" d="M966.5,126.3c6.4,0,10.4,3.3,10.6,8.2h-6.3c-0.2-2-1.7-3.4-4.3-3.4c-2.4,0-3.9,1.1-3.9,2.7
		c0,1.3,0.9,2.2,3.5,2.7l4.3,0.9c5.2,1.1,7.4,3.2,7.4,6.8c0,4.9-4.5,8.2-11,8.2c-6.9,0-10.9-3.2-11.4-8.2h6.7c0.4,2.2,2,3.4,4.7,3.4
		c2.6,0,4.2-1.1,4.2-2.7c0-1.3-0.9-2.1-3.3-2.6l-4.3-0.9c-4.9-1-7.3-3.5-7.3-7.2C956,129.5,960.1,126.3,966.5,126.3z"/>
</g>
<g class="st0">
	<path class="st1" d="M22.9,178c0-1.9,1.6-3.5,3.6-3.5s3.6,1.6,3.6,3.5c0,1.9-1.6,3.5-3.6,3.5S22.9,179.9,22.9,178z M23.1,184.9H30
		V210h-6.8V184.9z"/>
	<path class="st1" d="M34.5,184.9h6.6v4.5h0.1c1.3-3.1,4-4.9,7.9-4.9c5.6,0,8.7,3.5,8.7,9.4V210H51v-14.8c0-3.3-1.5-5.2-4.6-5.2
		s-5,2.2-5,5.5V210h-6.8V184.9z"/>
	<path class="st1" d="M72.3,219.2V214c0.2,0,1.5,0,1.7,0c2.5,0,3.7-0.8,4.2-2.8c0-0.1,0.3-1.1,0.2-1.2l-8.7-25.1h7.5l5.3,19.6h0.1
		l5.3-19.6h7.2l-8.6,25.7c-2.1,6.4-5.3,8.7-11.7,8.7C74.6,219.3,72.5,219.3,72.3,219.2z"/>
	<path class="st1" d="M96.1,197.4c0-8.1,4.9-13.1,12.4-13.1s12.4,4.9,12.4,13.1c0,8.3-4.9,13.1-12.4,13.1S96.1,205.7,96.1,197.4z
		 M114.1,197.4c0-5-2.2-7.9-5.5-7.9s-5.5,2.9-5.5,7.9c0,5,2.1,7.9,5.5,7.9C111.9,205.3,114.1,202.5,114.1,197.4z"/>
	<path class="st1" d="M147.7,210h-6.6v-4.5H141c-1.2,3.2-3.7,5-7.5,5c-5.4,0-9-3.5-9-9.4v-16.2h6.8v14.8c0,3.4,1.7,5.1,4.7,5.1
		c3,0,4.9-2.2,4.9-5.5v-14.4h6.8V210z"/>
	<path class="st1" d="M152.2,184.9h6.6v4.5h0.1c0.9-3.2,3-4.9,6-4.9c0.8,0,1.5,0.1,1.9,0.3v6c-0.6-0.2-1.5-0.4-2.5-0.4
		c-3.4,0-5.3,2.1-5.3,5.6v14h-6.8V184.9z"/>
	<path class="st1" d="M179.3,176.2h6.8V210h-6.8V176.2z"/>
	<path class="st1" d="M190.7,178c0-1.9,1.6-3.5,3.6-3.5s3.6,1.6,3.6,3.5c0,1.9-1.6,3.5-3.6,3.5S190.7,179.9,190.7,178z M190.9,184.9
		h6.8V210h-6.8V184.9z"/>
	<path class="st1" d="M204.1,190h-3.4v-5h3.4v-1.9c0-4.9,2.3-7.2,8.3-7.2c1.3,0,2.7,0.1,3.5,0.3v4.5c-0.5-0.1-1.2-0.1-1.9-0.1
		c-2.2,0-3.2,1-3.2,2.8v1.7h5v5h-4.8v20h-6.8V190z"/>
	<path class="st1" d="M241.6,202.3c-0.8,4.9-5.2,8.2-11.5,8.2c-7.7,0-12.4-4.9-12.4-13c0-8,4.7-13.2,12.1-13.2
		c7.3,0,11.9,4.9,11.9,12.6v2.1h-17.3v0.4c0,3.6,2.3,6,5.8,6c2.5,0,4.4-1.2,5.1-3.2H241.6z M224.5,194.8h10.7
		c-0.1-3.2-2.2-5.4-5.3-5.4C226.9,189.4,224.8,191.7,224.5,194.8z"/>
	<path class="st1" d="M253.9,197.4c0-8,4-12.9,10.3-12.9c3.6,0,6.4,1.9,7.7,4.7h0.1v-13h6.8V210h-6.8v-4.3h-0.1
		c-1.2,2.8-4.1,4.7-7.8,4.7C257.8,210.4,253.9,205.4,253.9,197.4z M260.9,197.4c0,4.6,2.1,7.5,5.6,7.5c3.4,0,5.6-2.9,5.6-7.5
		c0-4.6-2.2-7.5-5.6-7.5C263,190,260.9,192.8,260.9,197.4z"/>
	<path class="st1" d="M282.5,197.4c0-8.1,4.9-13.1,12.4-13.1s12.4,4.9,12.4,13.1c0,8.3-4.9,13.1-12.4,13.1S282.5,205.7,282.5,197.4z
		 M300.4,197.4c0-5-2.2-7.9-5.5-7.9s-5.5,2.9-5.5,7.9c0,5,2.1,7.9,5.5,7.9C298.3,205.3,300.4,202.5,300.4,197.4z"/>
	<path class="st1" d="M320.4,184.9h6.6v4.5h0.1c1.3-3.1,4-4.9,7.9-4.9c5.6,0,8.7,3.5,8.7,9.4V210h-6.8v-14.8c0-3.3-1.5-5.2-4.6-5.2
		s-5,2.2-5,5.5V210h-6.8V184.9z"/>
	<path class="st1" d="M347.1,197.4c0-8.1,4.9-13.1,12.4-13.1s12.4,4.9,12.4,13.1c0,8.3-4.9,13.1-12.4,13.1S347.1,205.7,347.1,197.4z
		 M365,197.4c0-5-2.2-7.9-5.5-7.9s-5.5,2.9-5.5,7.9c0,5,2.1,7.9,5.5,7.9C362.9,205.3,365,202.5,365,197.4z"/>
	<path class="st1" d="M384.2,179.1v5.8h4.6v5.2h-4.6v12c0,1.9,0.9,2.8,3,2.8c0.6,0,1.2,0,1.7-0.1v5c-0.7,0.2-1.9,0.3-3.3,0.3
		c-5.9,0-8.2-2-8.2-6.9V190h-3.5v-5.2h3.5v-5.8H384.2z"/>
	<path class="st1" d="M418.6,194.2c-0.4-2.6-2.2-4.5-5-4.5c-3.4,0-5.5,2.9-5.5,7.7c0,4.9,2.1,7.8,5.5,7.8c2.7,0,4.5-1.6,4.9-4.4h6.4
		c-0.4,5.9-4.8,9.8-11.4,9.8c-7.6,0-12.4-4.9-12.4-13.1c0-8.1,4.8-13.1,12.3-13.1c6.8,0,11.1,4.2,11.4,9.9H418.6z"/>
	<path class="st1" d="M427.3,197.4c0-8.1,4.9-13.1,12.4-13.1s12.4,4.9,12.4,13.1c0,8.3-4.9,13.1-12.4,13.1S427.3,205.7,427.3,197.4z
		 M445.2,197.4c0-5-2.2-7.9-5.5-7.9s-5.5,2.9-5.5,7.9c0,5,2.1,7.9,5.5,7.9C443.1,205.3,445.2,202.5,445.2,197.4z"/>
	<path class="st1" d="M455.7,184.9h6.6v4.5h0.1c1.1-3,3.8-5,7.2-5c3.6,0,6.2,1.9,7,5.2h0.1c1.1-3.2,4.1-5.2,7.8-5.2
		c4.9,0,8.2,3.4,8.2,8.4V210H486v-15.4c0-2.9-1.5-4.5-4.1-4.5c-2.6,0-4.3,1.9-4.3,4.7V210H471v-15.7c0-2.7-1.5-4.3-4.1-4.3
		c-2.6,0-4.4,2-4.4,4.8V210h-6.8V184.9z"/>
	<path class="st1" d="M520.1,202.3c-0.8,4.9-5.2,8.2-11.5,8.2c-7.7,0-12.4-4.9-12.4-13c0-8,4.7-13.2,12.1-13.2
		c7.3,0,11.9,4.9,11.9,12.6v2.1H503v0.4c0,3.6,2.3,6,5.8,6c2.5,0,4.4-1.2,5.1-3.2H520.1z M503,194.8h10.7c-0.1-3.2-2.2-5.4-5.3-5.4
		C505.4,189.4,503.3,191.7,503,194.8z"/>
	<path class="st1" d="M540.4,205.7h-0.1v4.3h-6.8v-33.8h6.8v13.1h0.1c1.4-3,4.2-4.8,7.8-4.8c6.3,0,10.2,4.9,10.2,13
		c0,8.1-3.9,13-10.2,13C544.6,210.4,541.7,208.6,540.4,205.7z M540.3,197.4c0,4.5,2.2,7.5,5.6,7.5c3.4,0,5.6-2.9,5.6-7.5
		c0-4.6-2.2-7.5-5.6-7.5C542.6,190,540.3,192.9,540.3,197.4z"/>
	<path class="st1" d="M562,219.2V214c0.2,0,1.5,0,1.7,0c2.5,0,3.7-0.8,4.2-2.8c0-0.1,0.3-1.1,0.2-1.2l-8.7-25.1h7.5l5.3,19.6h0.1
		l5.3-19.6h7.2l-8.6,25.7c-2.1,6.4-5.3,8.7-11.7,8.7C564.4,219.3,562.2,219.3,562,219.2z"/>
	<path class="st1" d="M596,197.4c0-8,4-12.9,10.3-12.9c3.6,0,6.4,1.9,7.7,4.7h0.1v-13h6.8V210h-6.8v-4.3h-0.1
		c-1.2,2.8-4.1,4.7-7.8,4.7C600,210.4,596,205.4,596,197.4z M603.1,197.4c0,4.6,2.1,7.5,5.6,7.5c3.4,0,5.6-2.9,5.6-7.5
		c0-4.6-2.2-7.5-5.6-7.5C605.2,190,603.1,192.8,603.1,197.4z"/>
	<path class="st1" d="M648.5,202.3c-0.8,4.9-5.2,8.2-11.5,8.2c-7.7,0-12.4-4.9-12.4-13c0-8,4.7-13.2,12.1-13.2
		c7.3,0,11.9,4.9,11.9,12.6v2.1h-17.3v0.4c0,3.6,2.3,6,5.8,6c2.5,0,4.4-1.2,5.1-3.2H648.5z M631.4,194.8h10.7
		c-0.1-3.2-2.2-5.4-5.3-5.4C633.8,189.4,631.7,191.7,631.4,194.8z"/>
	<path class="st1" d="M654,190h-3.4v-5h3.4v-1.9c0-4.9,2.3-7.2,8.3-7.2c1.3,0,2.7,0.1,3.5,0.3v4.5c-0.5-0.1-1.2-0.1-1.9-0.1
		c-2.2,0-3.2,1-3.2,2.8v1.7h5v5h-4.8v20H654V190z"/>
	<path class="st1" d="M667,202.8c0-4.6,3.5-7.2,9.8-7.6l6.3-0.4v-1.7c0-2.3-1.6-3.7-4.2-3.7c-2.6,0-4.2,1.3-4.5,3.1h-6.3
		c0.3-4.9,4.4-8.2,11.1-8.2c6.4,0,10.6,3.3,10.6,8.4V210h-6.6v-3.8h-0.1c-1.4,2.7-4.5,4.2-7.7,4.2C670.7,210.4,667,207.3,667,202.8z
		 M683.1,200.8V199l-5.3,0.3c-2.6,0.2-4,1.3-4,3.1c0,1.9,1.5,3,3.9,3C680.7,205.5,683.1,203.5,683.1,200.8z"/>
	<path class="st1" d="M717.5,210h-6.6v-4.5h-0.1c-1.2,3.2-3.7,5-7.5,5c-5.4,0-9-3.5-9-9.4v-16.2h6.8v14.8c0,3.4,1.7,5.1,4.7,5.1
		c3,0,4.9-2.2,4.9-5.5v-14.4h6.8V210z"/>
	<path class="st1" d="M722.1,176.2h6.8V210h-6.8V176.2z"/>
	<path class="st1" d="M742.2,179.1v5.8h4.6v5.2h-4.6v12c0,1.9,0.9,2.8,3,2.8c0.6,0,1.2,0,1.7-0.1v5c-0.7,0.2-1.9,0.3-3.3,0.3
		c-5.9,0-8.2-2-8.2-6.9V190h-3.5v-5.2h3.5v-5.8H742.2z"/>
	<path class="st1" d="M750.5,217.4l1.8-13.2h6.5l-3.1,13.2H750.5z"/>
	<path class="st1" d="M777.7,205.7h-0.1v4.3h-6.8v-33.8h6.8v13.1h0.1c1.4-3,4.2-4.8,7.8-4.8c6.3,0,10.2,4.9,10.2,13
		c0,8.1-3.9,13-10.2,13C781.9,210.4,779.1,208.6,777.7,205.7z M777.6,197.4c0,4.5,2.2,7.5,5.6,7.5c3.4,0,5.6-2.9,5.6-7.5
		c0-4.6-2.2-7.5-5.6-7.5C779.9,190,777.6,192.9,777.6,197.4z"/>
	<path class="st1" d="M822.5,210h-6.6v-4.5h-0.1c-1.2,3.2-3.7,5-7.5,5c-5.4,0-9-3.5-9-9.4v-16.2h6.8v14.8c0,3.4,1.7,5.1,4.7,5.1
		c3,0,4.9-2.2,4.9-5.5v-14.4h6.8V210z"/>
	<path class="st1" d="M835.6,179.1v5.8h4.6v5.2h-4.6v12c0,1.9,0.9,2.8,3,2.8c0.6,0,1.2,0,1.7-0.1v5c-0.7,0.2-1.9,0.3-3.3,0.3
		c-5.9,0-8.2-2-8.2-6.9V190h-3.5v-5.2h3.5v-5.8H835.6z"/>
	<path class="st1" d="M853.5,184.9h6.6v4.5h0.1c0.9-3.2,3-4.9,6-4.9c0.8,0,1.5,0.1,1.9,0.3v6c-0.6-0.2-1.5-0.4-2.5-0.4
		c-3.4,0-5.3,2.1-5.3,5.6v14h-6.8V184.9z"/>
	<path class="st1" d="M893.1,202.3c-0.8,4.9-5.2,8.2-11.5,8.2c-7.7,0-12.4-4.9-12.4-13c0-8,4.7-13.2,12.1-13.2
		c7.3,0,11.9,4.9,11.9,12.6v2.1H876v0.4c0,3.6,2.3,6,5.8,6c2.5,0,4.4-1.2,5.1-3.2H893.1z M876,194.8h10.7c-0.1-3.2-2.2-5.4-5.3-5.4
		C878.4,189.4,876.3,191.7,876,194.8z"/>
	<path class="st1" d="M913.9,189.3h0.1v-4.4h6.8v33.3H914v-12.5h-0.1c-1.2,2.8-4.1,4.7-7.8,4.7c-6.3,0-10.2-5-10.2-13
		c0-8,4-12.9,10.3-12.9C909.8,184.5,912.6,186.4,913.9,189.3z M914,197.4c0-4.6-2.2-7.5-5.6-7.5c-3.4,0-5.5,2.9-5.5,7.5
		s2.1,7.5,5.5,7.5C911.8,204.9,914,202,914,197.4z"/>
	<path class="st1" d="M948.5,210h-6.6v-4.5h-0.1c-1.2,3.2-3.7,5-7.5,5c-5.4,0-9-3.5-9-9.4v-16.2h6.8v14.8c0,3.4,1.7,5.1,4.7,5.1
		c3,0,4.9-2.2,4.9-5.5v-14.4h6.8V210z"/>
	<path class="st1" d="M952.9,178c0-1.9,1.6-3.5,3.6-3.5s3.6,1.6,3.6,3.5c0,1.9-1.6,3.5-3.6,3.5S952.9,179.9,952.9,178z M953,184.9
		h6.8V210H953V184.9z"/>
	<path class="st1" d="M964.4,184.9h6.6v4.5h0.1c0.9-3.2,3-4.9,6-4.9c0.8,0,1.5,0.1,1.9,0.3v6c-0.6-0.2-1.5-0.4-2.5-0.4
		c-3.4,0-5.3,2.1-5.3,5.6v14h-6.8V184.9z"/>
	<path class="st1" d="M1004,202.3c-0.8,4.9-5.2,8.2-11.5,8.2c-7.7,0-12.4-4.9-12.4-13c0-8,4.7-13.2,12.1-13.2
		c7.3,0,11.9,4.9,11.9,12.6v2.1h-17.3v0.4c0,3.6,2.3,6,5.8,6c2.5,0,4.4-1.2,5.1-3.2H1004z M987,194.8h10.7c-0.1-3.2-2.2-5.4-5.3-5.4
		C989.3,189.4,987.2,191.7,987,194.8z"/>
</g>
<g class="st0">
	<path class="st1" d="M63.9,260.8c0-4.6,3.5-7.2,9.8-7.6l6.3-0.4v-1.7c0-2.3-1.6-3.7-4.2-3.7c-2.6,0-4.2,1.3-4.5,3.1H65
		c0.3-4.9,4.4-8.2,11.1-8.2c6.4,0,10.6,3.3,10.6,8.4V268h-6.6v-3.8H80c-1.4,2.7-4.5,4.2-7.7,4.2C67.5,268.4,63.9,265.3,63.9,260.8z
		 M80,258.8V257l-5.3,0.3c-2.6,0.2-4,1.3-4,3.1c0,1.9,1.5,3,3.9,3C77.5,263.5,80,261.5,80,258.8z"/>
	<path class="st1" d="M129.2,268h-7.3l-4.5-17.8h-0.1l-4.5,17.8h-7.2l-6.7-25.1h6.9l3.8,18.6h0.1l4.5-18.6h6.6l4.5,18.6h0.1
		l3.8-18.6h6.8L129.2,268z"/>
	<path class="st1" d="M161.1,260.3c-0.8,4.9-5.2,8.2-11.5,8.2c-7.7,0-12.4-4.9-12.4-13c0-8,4.7-13.2,12.1-13.2
		c7.3,0,11.9,4.9,11.9,12.6v2.1H144v0.4c0,3.6,2.3,6,5.8,6c2.5,0,4.4-1.2,5.1-3.2H161.1z M144.1,252.8h10.7
		c-0.1-3.2-2.2-5.4-5.3-5.4C146.5,247.4,144.3,249.7,144.1,252.8z"/>
	<path class="st1" d="M165,234.2h6.8V268H165V234.2z"/>
	<path class="st1" d="M176.6,234.2h6.8V268h-6.8V234.2z"/>
	<path class="st1" d="M196.7,255.4c0-8,4-12.9,10.3-12.9c3.6,0,6.4,1.9,7.7,4.7h0.1v-13h6.8V268h-6.8v-4.3h-0.1
		c-1.2,2.8-4.1,4.7-7.8,4.7C200.6,268.4,196.7,263.4,196.7,255.4z M203.7,255.4c0,4.6,2.1,7.5,5.6,7.5c3.4,0,5.6-2.9,5.6-7.5
		c0-4.6-2.2-7.5-5.6-7.5C205.8,248,203.7,250.8,203.7,255.4z"/>
	<path class="st1" d="M249.1,260.3c-0.8,4.9-5.2,8.2-11.5,8.2c-7.7,0-12.4-4.9-12.4-13c0-8,4.7-13.2,12.1-13.2
		c7.3,0,11.9,4.9,11.9,12.6v2.1H232v0.4c0,3.6,2.3,6,5.8,6c2.5,0,4.4-1.2,5.1-3.2H249.1z M232,252.8h10.7c-0.1-3.2-2.2-5.4-5.3-5.4
		C234.4,247.4,232.3,249.7,232,252.8z"/>
	<path class="st1" d="M254.6,248h-3.4v-5h3.4v-1.9c0-4.9,2.3-7.2,8.3-7.2c1.3,0,2.7,0.1,3.5,0.3v4.5c-0.5-0.1-1.2-0.1-1.9-0.1
		c-2.2,0-3.2,1-3.2,2.8v1.7h5v5h-4.8v20h-6.8V248z"/>
	<path class="st1" d="M269.9,236c0-1.9,1.6-3.5,3.6-3.5s3.6,1.6,3.6,3.5c0,1.9-1.6,3.5-3.6,3.5S269.9,237.9,269.9,236z M270,242.9
		h6.8V268H270V242.9z"/>
	<path class="st1" d="M281.4,242.9h6.6v4.5h0.1c1.3-3.1,4-4.9,7.9-4.9c5.6,0,8.7,3.5,8.7,9.4V268h-6.8v-14.8c0-3.3-1.5-5.2-4.6-5.2
		s-5,2.2-5,5.5V268h-6.8V242.9z"/>
	<path class="st1" d="M332,260.3c-0.8,4.9-5.2,8.2-11.5,8.2c-7.7,0-12.4-4.9-12.4-13c0-8,4.7-13.2,12.1-13.2
		c7.3,0,11.9,4.9,11.9,12.6v2.1h-17.3v0.4c0,3.6,2.3,6,5.8,6c2.5,0,4.4-1.2,5.1-3.2H332z M314.9,252.8h10.7
		c-0.1-3.2-2.2-5.4-5.3-5.4C317.3,247.4,315.2,249.7,314.9,252.8z"/>
	<path class="st1" d="M334.8,255.4c0-8,4-12.9,10.3-12.9c3.6,0,6.4,1.9,7.7,4.7h0.1v-13h6.8V268H353v-4.3h-0.1
		c-1.2,2.8-4.1,4.7-7.8,4.7C338.8,268.4,334.8,263.4,334.8,255.4z M341.8,255.4c0,4.6,2.1,7.5,5.6,7.5c3.4,0,5.6-2.9,5.6-7.5
		c0-4.6-2.2-7.5-5.6-7.5C343.9,248,341.8,250.8,341.8,255.4z"/>
	<path class="st1" d="M373.7,269.8h6.7c0.5,1.7,2.5,2.9,5.1,2.9c3.5,0,5.5-2,5.5-4.9v-4.4h-0.1c-1.2,2.7-4.1,4.5-7.8,4.5
		c-6.1,0-10.2-4.7-10.2-12.6c0-8,3.9-12.9,10.3-12.9c3.6,0,6.4,1.9,7.8,4.8h0.1v-4.4h6.8v24.8c0,6-5,9.8-12.5,9.8
		C378.7,277.5,374.2,274.3,373.7,269.8z M391,255.4c0-4.5-2.2-7.4-5.6-7.4c-3.4,0-5.5,2.9-5.5,7.4c0,4.6,2.1,7.3,5.5,7.3
		C388.8,262.7,391,259.9,391,255.4z"/>
	<path class="st1" d="M401.4,255.4c0-8.1,4.9-13.1,12.4-13.1s12.4,4.9,12.4,13.1c0,8.3-4.9,13.1-12.4,13.1S401.4,263.7,401.4,255.4z
		 M419.3,255.4c0-5-2.2-7.9-5.5-7.9s-5.5,2.9-5.5,7.9c0,5,2.1,7.9,5.5,7.9C417.2,263.3,419.3,260.5,419.3,255.4z"/>
	<path class="st1" d="M428.8,260.8c0-4.6,3.5-7.2,9.8-7.6l6.3-0.4v-1.7c0-2.3-1.6-3.7-4.2-3.7c-2.6,0-4.2,1.3-4.5,3.1h-6.3
		c0.3-4.9,4.4-8.2,11.1-8.2c6.4,0,10.6,3.3,10.6,8.4V268H445v-3.8h-0.1c-1.4,2.7-4.5,4.2-7.7,4.2
		C432.4,268.4,428.8,265.3,428.8,260.8z M444.9,258.8V257l-5.3,0.3c-2.6,0.2-4,1.3-4,3.1c0,1.9,1.5,3,3.9,3
		C442.4,263.5,444.9,261.5,444.9,258.8z"/>
	<path class="st1" d="M456.2,234.2h6.8V268h-6.8V234.2z"/>
	<path class="st1" d="M467.6,275.4l1.8-13.2h6.5l-3.1,13.2H467.6z"/>
	<path class="st1" d="M486.8,255.4c0-8,4-12.9,10.3-12.9c3.6,0,6.4,1.9,7.7,4.7h0.1v-13h6.8V268H505v-4.3h-0.1
		c-1.2,2.8-4.1,4.7-7.8,4.7C490.7,268.4,486.8,263.4,486.8,255.4z M493.8,255.4c0,4.6,2.1,7.5,5.6,7.5c3.4,0,5.6-2.9,5.6-7.5
		c0-4.6-2.2-7.5-5.6-7.5C495.9,248,493.8,250.8,493.8,255.4z"/>
	<path class="st1" d="M539.2,260.3c-0.8,4.9-5.2,8.2-11.5,8.2c-7.7,0-12.4-4.9-12.4-13c0-8,4.7-13.2,12.1-13.2
		c7.3,0,11.9,4.9,11.9,12.6v2.1h-17.3v0.4c0,3.6,2.3,6,5.8,6c2.5,0,4.4-1.2,5.1-3.2H539.2z M522.2,252.8h10.7
		c-0.1-3.2-2.2-5.4-5.3-5.4C524.5,247.4,522.4,249.7,522.2,252.8z"/>
	<path class="st1" d="M542,255.4c0-8,4-12.9,10.3-12.9c3.6,0,6.4,1.9,7.7,4.7h0.1v-13h6.8V268h-6.8v-4.3h-0.1
		c-1.2,2.8-4.1,4.7-7.8,4.7C546,268.4,542,263.4,542,255.4z M549,255.4c0,4.6,2.1,7.5,5.6,7.5c3.4,0,5.6-2.9,5.6-7.5
		c0-4.6-2.2-7.5-5.6-7.5C551.1,248,549,250.8,549,255.4z"/>
	<path class="st1" d="M571.5,236c0-1.9,1.6-3.5,3.6-3.5s3.6,1.6,3.6,3.5c0,1.9-1.6,3.5-3.6,3.5S571.5,237.9,571.5,236z M571.6,242.9
		h6.8V268h-6.8V242.9z"/>
	<path class="st1" d="M599.5,252.2c-0.4-2.6-2.2-4.5-5-4.5c-3.4,0-5.5,2.9-5.5,7.7c0,4.9,2.1,7.8,5.5,7.8c2.7,0,4.5-1.6,4.9-4.4h6.4
		c-0.4,5.9-4.8,9.8-11.4,9.8c-7.6,0-12.4-4.9-12.4-13.1c0-8.1,4.8-13.1,12.3-13.1c6.8,0,11.1,4.2,11.4,9.9H599.5z"/>
	<path class="st1" d="M608.2,260.8c0-4.6,3.5-7.2,9.8-7.6l6.3-0.4v-1.7c0-2.3-1.6-3.7-4.2-3.7c-2.6,0-4.2,1.3-4.5,3.1h-6.3
		c0.3-4.9,4.4-8.2,11.1-8.2c6.4,0,10.6,3.3,10.6,8.4V268h-6.6v-3.8h-0.1c-1.4,2.7-4.5,4.2-7.7,4.2
		C611.9,268.4,608.2,265.3,608.2,260.8z M624.3,258.8V257l-5.3,0.3c-2.6,0.2-4,1.3-4,3.1c0,1.9,1.5,3,3.9,3
		C621.9,263.5,624.3,261.5,624.3,258.8z"/>
	<path class="st1" d="M644.1,237.1v5.8h4.6v5.2h-4.6v12c0,1.9,0.9,2.8,3,2.8c0.6,0,1.2,0,1.7-0.1v5c-0.7,0.2-1.9,0.3-3.3,0.3
		c-5.9,0-8.2-2-8.2-6.9V248h-3.5v-5.2h3.5v-5.8H644.1z"/>
	<path class="st1" d="M652.5,236c0-1.9,1.6-3.5,3.6-3.5s3.6,1.6,3.6,3.5c0,1.9-1.6,3.5-3.6,3.5S652.5,237.9,652.5,236z M652.6,242.9
		h6.8V268h-6.8V242.9z"/>
	<path class="st1" d="M663.1,255.4c0-8.1,4.9-13.1,12.4-13.1s12.4,4.9,12.4,13.1c0,8.3-4.9,13.1-12.4,13.1S663.1,263.7,663.1,255.4z
		 M681,255.4c0-5-2.2-7.9-5.5-7.9s-5.5,2.9-5.5,7.9c0,5,2.1,7.9,5.5,7.9C678.9,263.3,681,260.5,681,255.4z"/>
	<path class="st1" d="M691.5,242.9h6.6v4.5h0.1c1.3-3.1,4-4.9,7.9-4.9c5.6,0,8.7,3.5,8.7,9.4V268H708v-14.8c0-3.3-1.5-5.2-4.6-5.2
		s-5,2.2-5,5.5V268h-6.8V242.9z"/>
	<path class="st1" d="M719.1,275.4l1.8-13.2h6.5l-3.1,13.2H719.1z"/>
	<path class="st1" d="M738.2,260.8c0-4.6,3.5-7.2,9.8-7.6l6.3-0.4v-1.7c0-2.3-1.6-3.7-4.2-3.7c-2.6,0-4.2,1.3-4.5,3.1h-6.3
		c0.3-4.9,4.4-8.2,11.1-8.2c6.4,0,10.6,3.3,10.6,8.4V268h-6.6v-3.8h-0.1c-1.4,2.7-4.5,4.2-7.7,4.2
		C741.9,268.4,738.2,265.3,738.2,260.8z M754.3,258.8V257l-5.3,0.3c-2.6,0.2-4,1.3-4,3.1c0,1.9,1.5,3,3.9,3
		C751.9,263.5,754.3,261.5,754.3,258.8z"/>
	<path class="st1" d="M765.5,242.9h6.6v4.5h0.1c1.3-3.1,4-4.9,7.9-4.9c5.6,0,8.7,3.5,8.7,9.4V268h-6.8v-14.8c0-3.3-1.5-5.2-4.6-5.2
		s-5,2.2-5,5.5V268h-6.8V242.9z"/>
	<path class="st1" d="M792.2,255.4c0-8,4-12.9,10.3-12.9c3.6,0,6.4,1.9,7.7,4.7h0.1v-13h6.8V268h-6.8v-4.3h-0.1
		c-1.2,2.8-4.1,4.7-7.8,4.7C796.2,268.4,792.2,263.4,792.2,255.4z M799.2,255.4c0,4.6,2.1,7.5,5.6,7.5c3.4,0,5.6-2.9,5.6-7.5
		c0-4.6-2.2-7.5-5.6-7.5C801.3,248,799.2,250.8,799.2,255.4z"/>
	<path class="st1" d="M833,248h-3.4v-5h3.4v-1.9c0-4.9,2.3-7.2,8.3-7.2c1.3,0,2.7,0.1,3.5,0.3v4.5c-0.5-0.1-1.2-0.1-1.9-0.1
		c-2.2,0-3.2,1-3.2,2.8v1.7h5v5h-4.8v20H833V248z"/>
	<path class="st1" d="M846.7,255.4c0-8.1,4.9-13.1,12.4-13.1s12.4,4.9,12.4,13.1c0,8.3-4.9,13.1-12.4,13.1S846.7,263.7,846.7,255.4z
		 M864.6,255.4c0-5-2.2-7.9-5.5-7.9s-5.5,2.9-5.5,7.9c0,5,2.1,7.9,5.5,7.9C862.5,263.3,864.6,260.5,864.6,255.4z"/>
	<path class="st1" d="M891.6,252.2c-0.4-2.6-2.2-4.5-5-4.5c-3.4,0-5.5,2.9-5.5,7.7c0,4.9,2.1,7.8,5.5,7.8c2.7,0,4.5-1.6,4.9-4.4h6.4
		c-0.4,5.9-4.8,9.8-11.4,9.8c-7.6,0-12.4-4.9-12.4-13.1c0-8.1,4.8-13.1,12.3-13.1c6.8,0,11.1,4.2,11.4,9.9H891.6z"/>
	<path class="st1" d="M924.4,268h-6.6v-4.5h-0.1c-1.2,3.2-3.7,5-7.5,5c-5.4,0-9-3.5-9-9.4v-16.2h6.8v14.8c0,3.4,1.7,5.1,4.7,5.1
		c3,0,4.9-2.2,4.9-5.5v-14.4h6.8V268z"/>
	<path class="st1" d="M939,242.3c6.4,0,10.4,3.3,10.6,8.2h-6.3c-0.2-2-1.7-3.4-4.3-3.4c-2.4,0-3.9,1.1-3.9,2.7
		c0,1.3,0.9,2.2,3.5,2.7l4.3,0.9c5.2,1.1,7.4,3.2,7.4,6.8c0,4.9-4.5,8.2-11,8.2c-6.9,0-10.9-3.2-11.4-8.2h6.7c0.4,2.2,2,3.4,4.7,3.4
		c2.6,0,4.2-1.1,4.2-2.7c0-1.3-0.9-2.1-3.3-2.6l-4.3-0.9c-4.9-1-7.3-3.5-7.3-7.2C928.5,245.5,932.6,242.3,939,242.3z"/>
	<path class="st1" d="M954.3,264.5c0-2.1,1.7-3.8,3.8-3.8c2.1,0,3.8,1.7,3.8,3.8c0,2.1-1.7,3.8-3.8,3.8
		C955.9,268.3,954.3,266.6,954.3,264.5z"/>
</g>
<g class="st0">
	<path d="M358.4,34h-5l-6.7-25.4h5.5l4,18.4h0.1l4.7-18.4h4.5l4.7,18.4h0.1l4-18.4h5.5L373.2,34h-5l-4.8-17.3h-0.2L358.4,34z"/>
	<path d="M397.5,28.2c-0.6,3.7-3.9,6.2-8.6,6.2c-5.8,0-9.3-3.7-9.3-9.7c0-6,3.5-9.9,9.1-9.9c5.5,0,8.9,3.7,8.9,9.4v1.6h-13v0.3
		c0,2.7,1.7,4.5,4.3,4.5c1.9,0,3.3-0.9,3.8-2.4H397.5z M384.7,22.6h8c-0.1-2.4-1.7-4.1-4-4.1C386.5,18.5,384.9,20.3,384.7,22.6z"/>
	<path d="M400.4,8.6h5.1V34h-5.1V8.6z"/>
	<path d="M421.3,22.2c-0.3-2-1.6-3.4-3.7-3.4c-2.5,0-4.1,2.1-4.1,5.8c0,3.7,1.6,5.8,4.1,5.8c2.1,0,3.4-1.2,3.7-3.3h4.8
		c-0.3,4.4-3.6,7.3-8.5,7.3c-5.7,0-9.3-3.7-9.3-9.8c0-6,3.6-9.8,9.2-9.8c5.1,0,8.3,3.1,8.6,7.4H421.3z"/>
	<path d="M427.9,24.6c0-6.1,3.7-9.8,9.3-9.8s9.3,3.7,9.3,9.8c0,6.2-3.6,9.8-9.3,9.8S427.9,30.7,427.9,24.6z M441.4,24.6
		c0-3.7-1.6-5.9-4.1-5.9s-4.1,2.2-4.1,5.9c0,3.8,1.6,5.9,4.1,5.9C439.8,30.5,441.4,28.4,441.4,24.6z"/>
	<path d="M449.2,15.2h5v3.4h0.1c0.8-2.3,2.8-3.8,5.4-3.8c2.7,0,4.6,1.4,5.3,3.9h0.1c0.8-2.4,3.1-3.9,5.9-3.9c3.7,0,6.2,2.5,6.2,6.3
		V34h-5.1V22.4c0-2.2-1.1-3.4-3.1-3.4c-2,0-3.2,1.4-3.2,3.5V34h-4.9V22.3c0-2-1.1-3.2-3-3.2c-2,0-3.3,1.5-3.3,3.6V34h-5.1V15.2z"/>
	<path d="M497.5,28.2c-0.6,3.7-3.9,6.2-8.6,6.2c-5.8,0-9.3-3.7-9.3-9.7c0-6,3.5-9.9,9.1-9.9c5.5,0,8.9,3.7,8.9,9.4v1.6h-13v0.3
		c0,2.7,1.7,4.5,4.3,4.5c1.9,0,3.3-0.9,3.8-2.4H497.5z M484.7,22.6h8c-0.1-2.4-1.7-4.1-4-4.1C486.5,18.5,484.9,20.3,484.7,22.6z"/>
	<path d="M513.9,10.8v4.3h3.5V19h-3.5v9c0,1.4,0.7,2.1,2.2,2.1c0.5,0,0.9,0,1.2-0.1v3.8c-0.5,0.1-1.4,0.2-2.4,0.2
		c-4.4,0-6.2-1.5-6.2-5.2V19h-2.7v-3.9h2.7v-4.3H513.9z"/>
	<path d="M519.2,24.6c0-6.1,3.7-9.8,9.3-9.8s9.3,3.7,9.3,9.8c0,6.2-3.6,9.8-9.3,9.8S519.2,30.7,519.2,24.6z M532.7,24.6
		c0-3.7-1.6-5.9-4.1-5.9s-4.1,2.2-4.1,5.9c0,3.8,1.6,5.9,4.1,5.9C531.1,30.5,532.7,28.4,532.7,24.6z"/>
	<path d="M554.2,34V13h-7.3V8.6h20V13h-7.3v21H554.2z"/>
	<path d="M564.3,28.6c0-3.4,2.6-5.4,7.3-5.7l4.7-0.3v-1.2c0-1.8-1.2-2.8-3.2-2.8c-1.9,0-3.1,0.9-3.4,2.3h-4.7
		c0.2-3.7,3.3-6.2,8.3-6.2c4.8,0,8,2.5,8,6.3v13h-5v-2.9h-0.1c-1.1,2-3.4,3.2-5.7,3.2C567,34.3,564.3,32,564.3,28.6z M576.4,27.1
		v-1.4l-4,0.2c-1.9,0.1-3,1-3,2.3c0,1.4,1.2,2.3,2.9,2.3C574.5,30.6,576.4,29.1,576.4,27.1z"/>
	<path d="M592.3,14.8c4.8,0,7.8,2.5,7.9,6.2h-4.7c-0.2-1.5-1.3-2.6-3.2-2.6c-1.8,0-3,0.8-3,2.1c0,1,0.7,1.6,2.6,2l3.2,0.7
		c3.9,0.8,5.6,2.4,5.6,5.1c0,3.7-3.4,6.2-8.2,6.2c-5.2,0-8.2-2.4-8.5-6.1h5c0.3,1.7,1.5,2.5,3.5,2.5c1.9,0,3.1-0.8,3.1-2
		c0-1-0.7-1.6-2.5-2l-3.2-0.7c-3.6-0.8-5.5-2.6-5.5-5.4C584.4,17.1,587.5,14.8,592.3,14.8z"/>
	<path d="M615.6,22.2c-0.3-2-1.6-3.4-3.7-3.4c-2.5,0-4.1,2.1-4.1,5.8c0,3.7,1.6,5.8,4.1,5.8c2.1,0,3.4-1.2,3.7-3.3h4.8
		c-0.3,4.4-3.6,7.3-8.5,7.3c-5.7,0-9.3-3.7-9.3-9.8c0-6,3.6-9.8,9.2-9.8c5.1,0,8.3,3.1,8.6,7.4H615.6z"/>
	<path d="M622.2,28.6c0-3.4,2.6-5.4,7.3-5.7l4.7-0.3v-1.2c0-1.8-1.2-2.8-3.2-2.8c-1.9,0-3.1,0.9-3.4,2.3H623
		c0.2-3.7,3.3-6.2,8.3-6.2c4.8,0,8,2.5,8,6.3v13h-5v-2.9h-0.1c-1.1,2-3.4,3.2-5.7,3.2C624.9,34.3,622.2,32,622.2,28.6z M634.2,27.1
		v-1.4l-4,0.2c-1.9,0.1-3,1-3,2.3c0,1.4,1.2,2.3,2.9,2.3C632.4,30.6,634.2,29.1,634.2,27.1z"/>
	<path d="M642.6,15.2h5v3.4h0.1c1-2.3,3-3.7,5.9-3.7c4.2,0,6.5,2.6,6.5,7V34h-5.1V22.9c0-2.5-1.2-3.9-3.5-3.9s-3.8,1.7-3.8,4.1V34
		h-5.1V15.2z"/>
	<path d="M662.6,28.6c0-3.4,2.6-5.4,7.3-5.7l4.7-0.3v-1.2c0-1.8-1.2-2.8-3.2-2.8c-1.9,0-3.1,0.9-3.4,2.3h-4.7
		c0.2-3.7,3.3-6.2,8.3-6.2c4.8,0,8,2.5,8,6.3v13h-5v-2.9h-0.1c-1.1,2-3.4,3.2-5.7,3.2C665.3,34.3,662.6,32,662.6,28.6z M674.7,27.1
		v-1.4l-4,0.2c-1.9,0.1-3,1-3,2.3c0,1.4,1.2,2.3,2.9,2.3C672.8,30.6,674.7,29.1,674.7,27.1z"/>
</g>
<path id="Stroke-11" class="st2" d="M962.4,238.4c5.9-4.5,11.9-8.9,17.9-13.4"/>
<path id="Stroke-13" class="st2" d="M975.1,271.7c6,2.3,12,4.6,17.9,6.8"/>
<path id="Stroke-15" class="st2" d="M893,293.9c-2.2,8.2-4.4,16.4-6.6,24.6"/>
<line id="Stroke-17" class="st2" x1="840.3" y1="274.1" x2="824" y2="290.5"/>
<path id="Stroke-23" class="st3" d="M402.2,293.9c14.2,10.6,28.5,21.2,42.7,31.8"/>
<path id="Stroke-25" class="st3" d="M412.9,329.1c8-15.2,16-30.5,24.1-45.7"/>
<path id="Stroke-27" class="st4" d="M424.9,335c-12,132,51.5,190,100.9,193.2c49.3,3.2,99.4-24.1,123.4-67.4
	c11.7-21-2.1-51.5-25.5-56.7c-23.5-5.2-48.8,16.7-47.1,40.6c2.9,41.4,44.4,75.9,85.6,71.2c41.2-4.7,74-47.5,67.6-88.5
	c-6.7-43.5,35.2-87.4,78.9-82.7c43.8,4.7,75.3,56.6,59.5,97.6c-9.6,24.7-50.3,23.7-64.1,1c-13.8-22.7-3.3-54,17.1-70.9
	c20.5-16.8,52.4-14.1,76.5-25c11.6-5.2,31.9-26.7,19.1-57"/>
<line id="Stroke-69" class="st2" x1="939.2" y1="283.4" x2="948.8" y2="297.6"/>
<line id="Stroke-71" class="st2" x1="939.8" y1="216.6" x2="933.6" y2="231.8"/>
<path id="Stroke-73" class="st2" d="M875.4,275.2c-2.5,5.5-4.9,11-7.4,16.5"/>
<path id="Stroke-75" class="st2" d="M899.1,224c0,3.3,0,6.6-0.1,9.9"/>
<path id="Stroke-77" class="st2" d="M868,235.8c-5.4-7.2-10.9-14.4-16.3-21.6"/>
<path id="Stroke-79" class="st5" d="M492.4,278.6c5.9,0,5.9,6,11.8,6c5.9,0,5.9-6,11.8-6c5.9,0,5.9,6,11.8,6c5.9,0,5.9-6,11.8-6
	c5.9,0,5.9,6,11.8,6c5.9,0,5.9-6,11.8-6c5.9,0,5.9,6,11.8,6c5.9,0,5.9-6,11.8-6s5.9,6,11.8,6s5.9-6,11.8-6c5.9,0,5.9,6,11.8,6
	c5.9,0,5.9-6,11.8-6s5.9,6,11.8,6c5.9,0,5.9-6,11.8-6c5.9,0,5.9,6,11.8,6c5.9,0,5.9-6,11.8-6c5.9,0,5.9,6,11.8,6c5.9,0,5.9-6,11.8-6
	c5.9,0,5.9,6,11.8,6"/>
<line id="Stroke-83" class="st6" x1="356.1" y1="58.4" x2="682.7" y2="58.4"/>
</svg>
