<?xml version="1.0" encoding="UTF-8"?>
<svg width="410px" height="100px" viewBox="0 0 410 100" version="1.1" xmlns="http://www.w3.org/2000/svg" xmlns:xlink="http://www.w3.org/1999/xlink">
    <title>Group 2 Copy</title>
    <defs>
        <linearGradient x1="50%" y1="-2.48949813e-15%" x2="50%" y2="100%" id="linearGradient-1">
            <stop stop-color="#E2E2E2" offset="0%"></stop>
            <stop stop-color="#BBBBBB" offset="100%"></stop>
        </linearGradient>
        <linearGradient x1="50%" y1="-2.48949813e-15%" x2="50%" y2="100%" id="linearGradient-2">
            <stop stop-color="#47F0E7" offset="0%"></stop>
            <stop stop-color="#00E795" offset="100%"></stop>
        </linearGradient>
    </defs>
    <g id="Web" stroke="none" stroke-width="1" fill="none" fill-rule="evenodd">
        <g id="Group-2-Copy">
            <g id="Group-5">
                <rect id="Rectangle-Copy-7" stroke="url(#linearGradient-1)" x="0.5" y="0.5" width="409" height="99" rx="12"></rect>
                <path d="M212.324,24 L212.324,20.976 C212.324,18.7453333 212.305333,17.0746667 212.268,15.964 C212.669333,16.7013333 213.318,17.77 214.214,19.17 L214.214,19.17 L217.28,24 L219.002,24 L219.002,14.032 L217.56,14.032 L217.560875,17.8664687 C217.564958,19.6968229 217.583333,21.102 217.616,22.082 C217.149333,21.2513333 216.500667,20.178 215.67,18.862 L215.67,18.862 L212.59,14.032 L210.868,14.032 L210.868,24 L212.324,24 Z M223.902,24.168 C224.966,24.168 225.829333,23.8226667 226.492,23.132 C227.145333,22.4506667 227.472,21.536 227.472,20.388 C227.472,19.2306667 227.145333,18.3113333 226.492,17.63 C225.838667,16.9486667 224.975333,16.608 223.902,16.608 C222.828667,16.608 221.965333,16.9486667 221.312,17.63 C220.649333,18.3206667 220.318,19.24 220.318,20.388 C220.318,21.5266667 220.649333,22.4413333 221.312,23.132 C221.974667,23.8226667 222.838,24.168 223.902,24.168 Z M223.902,22.964 C223.248667,22.964 222.730667,22.7353333 222.348,22.278 C221.965333,21.8206667 221.774,21.1906667 221.774,20.388 C221.774,19.5853333 221.965333,18.9553333 222.348,18.498 C222.730667,18.0406667 223.248667,17.812 223.902,17.812 C224.555333,17.812 225.071,18.0406667 225.449,18.498 C225.827,18.9553333 226.016,19.5853333 226.016,20.388 C226.016,21.1906667 225.827,21.8206667 225.449,22.278 C225.071,22.7353333 224.555333,22.964 223.902,22.964 Z M231.462,24 L232.442,20.822 C232.582,20.3646667 232.806,19.59 233.114,18.498 C233.319333,19.2446667 233.548,20.0193333 233.8,20.822 L233.8,20.822 L234.794,24 L236.264,24 L238.658,16.776 L237.16,16.776 L236.222,19.786 C235.839333,21.0833333 235.592,21.9373333 235.48,22.348 C235.368,21.9373333 235.120667,21.0833333 234.738,19.786 L234.738,19.786 L233.828,16.776 L232.428,16.776 L231.504,19.786 C231.186667,20.8313333 230.944,21.69 230.776,22.362 C230.524,21.4566667 230.272,20.598 230.02,19.786 L230.02,19.786 L229.096,16.776 L227.584,16.776 L229.978,24 L231.462,24 Z M245.434,24.168 C246.302,24.168 247.03,23.9206667 247.618,23.426 C248.206,22.9313333 248.556,22.264 248.668,21.424 L248.668,21.424 L247.24,21.424 C247.156,21.9186667 246.950667,22.2966667 246.624,22.558 C246.297333,22.8193333 245.900667,22.95 245.434,22.95 C244.827333,22.95 244.344333,22.7283333 243.985,22.285 C243.625667,21.8416667 243.446,21.2093333 243.446,20.388 C243.446,19.5666667 243.625667,18.9343333 243.985,18.491 C244.344333,18.0476667 244.827333,17.826 245.434,17.826 C245.891333,17.826 246.281,17.952 246.603,18.204 C246.925,18.456 247.132667,18.82 247.226,19.296 L247.226,19.296 L248.654,19.296 C248.542,18.4746667 248.199,17.8213333 247.625,17.336 C247.051,16.8506667 246.320667,16.608 245.434,16.608 C244.398,16.608 243.567333,16.9486667 242.942,17.63 C242.307333,18.3206667 241.99,19.24 241.99,20.388 C241.99,21.5266667 242.307333,22.4413333 242.942,23.132 C243.576667,23.8226667 244.407333,24.168 245.434,24.168 Z M251.16,24 L251.16,14.032 L249.76,14.032 L249.76,24 L251.16,24 Z M254.142,15.754 L254.142,14.256 L252.714,14.256 L252.714,15.754 L254.142,15.754 Z M254.128,24 L254.128,16.776 L252.728,16.776 L252.728,24 L254.128,24 Z M258.804,24.168 C259.672,24.168 260.4,23.9206667 260.988,23.426 C261.576,22.9313333 261.926,22.264 262.038,21.424 L262.038,21.424 L260.61,21.424 C260.526,21.9186667 260.320667,22.2966667 259.994,22.558 C259.667333,22.8193333 259.270667,22.95 258.804,22.95 C258.197333,22.95 257.714333,22.7283333 257.355,22.285 C256.995667,21.8416667 256.816,21.2093333 256.816,20.388 C256.816,19.5666667 256.995667,18.9343333 257.355,18.491 C257.714333,18.0476667 258.197333,17.826 258.804,17.826 C259.261333,17.826 259.651,17.952 259.973,18.204 C260.295,18.456 260.502667,18.82 260.596,19.296 L260.596,19.296 L262.024,19.296 C261.912,18.4746667 261.569,17.8213333 260.995,17.336 C260.421,16.8506667 259.690667,16.608 258.804,16.608 C257.768,16.608 256.937333,16.9486667 256.312,17.63 C255.677333,18.3206667 255.36,19.24 255.36,20.388 C255.36,21.5266667 255.677333,22.4413333 256.312,23.132 C256.946667,23.8226667 257.777333,24.168 258.804,24.168 Z M264.516,24 L264.516,21.522 L265.72,20.346 L268.016,24 L269.626,24 L266.714,19.436 L269.444,16.776 L267.694,16.776 L264.516,19.912 L264.516,14.032 L263.13,14.032 L263.13,24 L264.516,24 Z M274.666,17.896 L274.876,14.032 L273.378,14.032 L273.588,17.896 L274.666,17.896 Z M280.112,22.138 L280.112,19.632 L282.632,19.632 L282.632,18.4 L280.112,18.4 L280.112,15.88 L278.782,15.88 L278.782,18.4 L276.262,18.4 L276.262,19.632 L278.782,19.632 L278.782,22.138 L280.112,22.138 Z M285.306,17.896 L285.516,14.032 L284.018,14.032 L284.228,17.896 L285.306,17.896 Z M292.166,24.168 C293.248667,24.168 294.032667,23.7853333 294.518,23.02 C294.564667,23.3746667 294.697667,23.6336667 294.917,23.797 C295.136333,23.9603333 295.47,24.042 295.918,24.042 C296.17,24.042 296.398667,24.028 296.604,24 L296.604,24 L296.604,22.922 L296.212,22.922 C295.950667,22.922 295.82,22.8006667 295.82,22.558 L295.82,22.558 L295.82,18.736 C295.82,17.3173333 294.868,16.608 292.964,16.608 C291.022667,16.608 290.000667,17.4153333 289.898,19.03 L289.898,19.03 L291.284,19.03 C291.321333,18.5446667 291.466,18.2063333 291.718,18.015 C291.97,17.8236667 292.385333,17.728 292.964,17.728 C293.496,17.728 293.876333,17.8096667 294.105,17.973 C294.333667,18.1363333 294.448,18.4 294.448,18.764 C294.448,19.0346667 294.361667,19.2423333 294.189,19.387 C294.016333,19.5316667 293.743333,19.6273333 293.37,19.674 L293.37,19.674 L292.306,19.786 C290.495333,19.9726667 289.59,20.7193333 289.59,22.026 C289.59,22.698 289.821,23.223 290.283,23.601 C290.745,23.979 291.372667,24.168 292.166,24.168 Z M292.376,23.076 C291.937333,23.076 291.603667,22.9803333 291.375,22.789 C291.146333,22.5976667 291.032,22.3293333 291.032,21.984 C291.032,21.6386667 291.148667,21.3703333 291.382,21.179 C291.615333,20.9876667 292.002667,20.8593333 292.544,20.794 L292.544,20.794 L293.552,20.682 C293.972,20.6353333 294.270667,20.5373333 294.448,20.388 L294.448,20.388 L294.448,21.144 C294.448,21.76 294.252,22.236 293.86,22.572 C293.468,22.908 292.973333,23.076 292.376,23.076 Z M301.224,24.168 C302.222667,24.168 303.025333,23.8226667 303.632,23.132 C304.229333,22.4506667 304.528,21.536 304.528,20.388 C304.528,19.2306667 304.229333,18.3113333 303.632,17.63 C303.034667,16.9486667 302.232,16.608 301.224,16.608 C300.197333,16.608 299.413333,17 298.872,17.784 L298.872,17.784 L298.872,14.032 L297.472,14.032 L297.472,24 L298.816,24 L298.816,22.908 C299.357333,23.748 300.16,24.168 301.224,24.168 Z M300.958,22.964 C300.304667,22.964 299.791333,22.7353333 299.418,22.278 C299.035333,21.8206667 298.844,21.1906667 298.844,20.388 C298.844,19.5853333 299.035333,18.9506667 299.418,18.484 C299.800667,18.036 300.314,17.812 300.958,17.812 C301.620667,17.812 302.138667,18.0313333 302.512,18.47 C302.885333,18.9086667 303.072,19.5293333 303.072,20.332 C303.072,21.1626667 302.885333,21.8066667 302.512,22.264 C302.129333,22.7306667 301.611333,22.964 300.958,22.964 Z M309.008,24.168 C310.072,24.168 310.935333,23.8226667 311.598,23.132 C312.251333,22.4506667 312.578,21.536 312.578,20.388 C312.578,19.2306667 312.251333,18.3113333 311.598,17.63 C310.944667,16.9486667 310.081333,16.608 309.008,16.608 C307.934667,16.608 307.071333,16.9486667 306.418,17.63 C305.755333,18.3206667 305.424,19.24 305.424,20.388 C305.424,21.5266667 305.755333,22.4413333 306.418,23.132 C307.080667,23.8226667 307.944,24.168 309.008,24.168 Z M309.008,22.964 C308.354667,22.964 307.836667,22.7353333 307.454,22.278 C307.071333,21.8206667 306.88,21.1906667 306.88,20.388 C306.88,19.5853333 307.071333,18.9553333 307.454,18.498 C307.836667,18.0406667 308.354667,17.812 309.008,17.812 C309.661333,17.812 310.177,18.0406667 310.555,18.498 C310.933,18.9553333 311.122,19.5853333 311.122,20.388 C311.122,21.1906667 310.933,21.8206667 310.555,22.278 C310.177,22.7353333 309.661333,22.964 309.008,22.964 Z M317.002,24 L319.774,16.776 L318.29,16.776 L317.324,19.422 C317.156,19.9353333 316.988,20.437 316.82,20.927 C316.652,21.417 316.521333,21.802 316.428,22.082 C316.334667,22.362 316.274,22.5486667 316.246,22.642 C316.199333,22.4646667 315.844667,21.3913333 315.182,19.422 L315.182,19.422 L314.202,16.776 L312.69,16.776 L315.448,24 L317.002,24 Z M323.344,24.168 C324.174667,24.168 324.872333,23.9556667 325.437,23.531 C326.001667,23.1063333 326.382,22.5253333 326.578,21.788 L326.578,21.788 L325.164,21.788 C324.884,22.5906667 324.286667,22.992 323.372,22.992 C322.765333,22.992 322.284667,22.8123333 321.93,22.453 C321.575333,22.0936667 321.365333,21.5593333 321.3,20.85 L321.3,20.85 L326.746,20.85 L326.746,20.444 C326.746,19.324 326.442667,18.4046667 325.836,17.686 C325.22,16.9673333 324.38,16.608 323.316,16.608 C322.298667,16.608 321.472667,16.9533333 320.838,17.644 C320.203333,18.3346667 319.886,19.2493333 319.886,20.388 C319.886,21.5266667 320.203333,22.4413333 320.838,23.132 C321.472667,23.8226667 322.308,24.168 323.344,24.168 Z M325.304,19.744 L321.314,19.744 C321.398,19.1093333 321.615,18.624 321.965,18.288 C322.315,17.952 322.765333,17.784 323.316,17.784 C323.876,17.784 324.331,17.9636667 324.681,18.323 C325.031,18.6823333 325.238667,19.156 325.304,19.744 L325.304,19.744 Z M332.99,24.168 C334.072667,24.168 334.856667,23.7853333 335.342,23.02 C335.388667,23.3746667 335.521667,23.6336667 335.741,23.797 C335.960333,23.9603333 336.294,24.042 336.742,24.042 C336.994,24.042 337.222667,24.028 337.428,24 L337.428,24 L337.428,22.922 L337.036,22.922 C336.774667,22.922 336.644,22.8006667 336.644,22.558 L336.644,22.558 L336.644,18.736 C336.644,17.3173333 335.692,16.608 333.788,16.608 C331.846667,16.608 330.824667,17.4153333 330.722,19.03 L330.722,19.03 L332.108,19.03 C332.145333,18.5446667 332.29,18.2063333 332.542,18.015 C332.794,17.8236667 333.209333,17.728 333.788,17.728 C334.32,17.728 334.700333,17.8096667 334.929,17.973 C335.157667,18.1363333 335.272,18.4 335.272,18.764 C335.272,19.0346667 335.185667,19.2423333 335.013,19.387 C334.840333,19.5316667 334.567333,19.6273333 334.194,19.674 L334.194,19.674 L333.13,19.786 C331.319333,19.9726667 330.414,20.7193333 330.414,22.026 C330.414,22.698 330.645,23.223 331.107,23.601 C331.569,23.979 332.196667,24.168 332.99,24.168 Z M333.2,23.076 C332.761333,23.076 332.427667,22.9803333 332.199,22.789 C331.970333,22.5976667 331.856,22.3293333 331.856,21.984 C331.856,21.6386667 331.972667,21.3703333 332.206,21.179 C332.439333,20.9876667 332.826667,20.8593333 333.368,20.794 L333.368,20.794 L334.376,20.682 C334.796,20.6353333 335.094667,20.5373333 335.272,20.388 L335.272,20.388 L335.272,21.144 C335.272,21.76 335.076,22.236 334.684,22.572 C334.292,22.908 333.797333,23.076 333.2,23.076 Z M339.752,24 L339.752,19.926 C339.752,19.254 339.938667,18.736 340.312,18.372 C340.685333,18.0173333 341.105333,17.84 341.572,17.84 C342.589333,17.84 343.098,18.344 343.098,19.352 L343.098,19.352 L343.098,24 L344.498,24 L344.498,19.156 C344.498,18.344 344.274,17.7163333 343.826,17.273 C343.378,16.8296667 342.757333,16.608 341.964,16.608 C341.002667,16.608 340.246667,17.0233333 339.696,17.854 L339.696,17.854 L339.696,16.776 L338.352,16.776 L338.352,24 L339.752,24 Z M349.048,24.168 C350.102667,24.168 350.900667,23.7573333 351.442,22.936 L351.442,22.936 L351.442,24 L352.786,24 L352.786,14.032 L351.386,14.032 L351.386,17.756 C350.844667,16.9906667 350.065333,16.608 349.048,16.608 C348.04,16.608 347.237333,16.9486667 346.64,17.63 C346.042667,18.3113333 345.744,19.2306667 345.744,20.388 C345.744,21.5453333 346.042667,22.4646667 346.64,23.146 C347.237333,23.8273333 348.04,24.168 349.048,24.168 Z M349.314,22.964 C348.67,22.964 348.156667,22.7446667 347.774,22.306 C347.391333,21.8673333 347.2,21.2466667 347.2,20.444 C347.2,19.6226667 347.391333,18.9786667 347.774,18.512 C348.156667,18.0453333 348.67,17.812 349.314,17.812 C349.976667,17.812 350.494667,18.036 350.868,18.484 C351.241333,18.9413333 351.428,19.576 351.428,20.388 C351.428,21.2093333 351.241333,21.8393333 350.868,22.278 C350.494667,22.7353333 349.976667,22.964 349.314,22.964 Z M360.164,24.168 C361.218667,24.168 362.016667,23.7573333 362.558,22.936 L362.558,22.936 L362.558,24 L363.902,24 L363.902,14.032 L362.502,14.032 L362.502,17.756 C361.960667,16.9906667 361.181333,16.608 360.164,16.608 C359.156,16.608 358.353333,16.9486667 357.756,17.63 C357.158667,18.3113333 356.86,19.2306667 356.86,20.388 C356.86,21.5453333 357.158667,22.4646667 357.756,23.146 C358.353333,23.8273333 359.156,24.168 360.164,24.168 Z M360.43,22.964 C359.786,22.964 359.272667,22.7446667 358.89,22.306 C358.507333,21.8673333 358.316,21.2466667 358.316,20.444 C358.316,19.6226667 358.507333,18.9786667 358.89,18.512 C359.272667,18.0453333 359.786,17.812 360.43,17.812 C361.092667,17.812 361.610667,18.036 361.984,18.484 C362.357333,18.9413333 362.544,19.576 362.544,20.388 C362.544,21.2093333 362.357333,21.8393333 361.984,22.278 C361.610667,22.7353333 361.092667,22.964 360.43,22.964 Z M368.606,24.168 C369.436667,24.168 370.134333,23.9556667 370.699,23.531 C371.263667,23.1063333 371.644,22.5253333 371.84,21.788 L371.84,21.788 L370.426,21.788 C370.146,22.5906667 369.548667,22.992 368.634,22.992 C368.027333,22.992 367.546667,22.8123333 367.192,22.453 C366.837333,22.0936667 366.627333,21.5593333 366.562,20.85 L366.562,20.85 L372.008,20.85 L372.008,20.444 C372.008,19.324 371.704667,18.4046667 371.098,17.686 C370.482,16.9673333 369.642,16.608 368.578,16.608 C367.560667,16.608 366.734667,16.9533333 366.1,17.644 C365.465333,18.3346667 365.148,19.2493333 365.148,20.388 C365.148,21.5266667 365.465333,22.4413333 366.1,23.132 C366.734667,23.8226667 367.57,24.168 368.606,24.168 Z M370.566,19.744 L366.576,19.744 C366.66,19.1093333 366.877,18.624 367.227,18.288 C367.577,17.952 368.027333,17.784 368.578,17.784 C369.138,17.784 369.593,17.9636667 369.943,18.323 C370.293,18.6823333 370.500667,19.156 370.566,19.744 L370.566,19.744 Z M374.836,24 L374.836,17.924 L376.348,17.924 L376.348,16.776 L374.836,16.776 L374.836,16.118 C374.836,15.4833333 375.148667,15.166 375.774,15.166 L375.774,15.166 L376.404,15.166 L376.404,14.032 C376.012,14.004 375.746,13.99 375.606,13.99 C374.159333,13.99 373.436,14.6993333 373.436,16.118 L373.436,16.118 L373.436,16.776 L372.274,16.776 L372.274,17.924 L373.436,17.924 L373.436,24 L374.836,24 Z M378.826,15.754 L378.826,14.256 L377.398,14.256 L377.398,15.754 L378.826,15.754 Z M378.812,24 L378.812,16.776 L377.412,16.776 L377.412,24 L378.812,24 Z M381.794,24 L381.794,19.926 C381.794,19.254 381.980667,18.736 382.354,18.372 C382.727333,18.0173333 383.147333,17.84 383.614,17.84 C384.631333,17.84 385.14,18.344 385.14,19.352 L385.14,19.352 L385.14,24 L386.54,24 L386.54,19.156 C386.54,18.344 386.316,17.7163333 385.868,17.273 C385.42,16.8296667 384.799333,16.608 384.006,16.608 C383.044667,16.608 382.288667,17.0233333 381.738,17.854 L381.738,17.854 L381.738,16.776 L380.394,16.776 L380.394,24 L381.794,24 Z M391.244,24.168 C392.074667,24.168 392.772333,23.9556667 393.337,23.531 C393.901667,23.1063333 394.282,22.5253333 394.478,21.788 L394.478,21.788 L393.064,21.788 C392.784,22.5906667 392.186667,22.992 391.272,22.992 C390.665333,22.992 390.184667,22.8123333 389.83,22.453 C389.475333,22.0936667 389.265333,21.5593333 389.2,20.85 L389.2,20.85 L394.646,20.85 L394.646,20.444 C394.646,19.324 394.342667,18.4046667 393.736,17.686 C393.12,16.9673333 392.28,16.608 391.216,16.608 C390.198667,16.608 389.372667,16.9533333 388.738,17.644 C388.103333,18.3346667 387.786,19.2493333 387.786,20.388 C387.786,21.5266667 388.103333,22.4413333 388.738,23.132 C389.372667,23.8226667 390.208,24.168 391.244,24.168 Z M393.204,19.744 L389.214,19.744 C389.298,19.1093333 389.515,18.624 389.865,18.288 C390.215,17.952 390.665333,17.784 391.216,17.784 C391.776,17.784 392.231,17.9636667 392.581,18.323 C392.931,18.6823333 393.138667,19.156 393.204,19.744 L393.204,19.744 Z M213.934,42 L214.914,38.822 C215.054,38.3646667 215.278,37.59 215.586,36.498 C215.791333,37.2446667 216.02,38.0193333 216.272,38.822 L216.272,38.822 L217.266,42 L218.736,42 L221.13,34.776 L219.632,34.776 L218.694,37.786 C218.311333,39.0833333 218.064,39.9373333 217.952,40.348 C217.84,39.9373333 217.592667,39.0833333 217.21,37.786 L217.21,37.786 L216.3,34.776 L214.9,34.776 L213.976,37.786 C213.658667,38.8313333 213.416,39.69 213.248,40.362 C212.996,39.4566667 212.744,38.598 212.492,37.786 L212.492,37.786 L211.568,34.776 L210.056,34.776 L212.45,42 L213.934,42 Z M223.244,42 L223.244,37.926 C223.244,37.254 223.430667,36.736 223.804,36.372 C224.177333,36.0173333 224.597333,35.84 225.064,35.84 C226.081333,35.84 226.59,36.344 226.59,37.352 L226.59,37.352 L226.59,42 L227.99,42 L227.99,37.156 C227.99,36.344 227.766,35.7163333 227.318,35.273 C226.87,34.8296667 226.249333,34.608 225.456,34.608 C224.532,34.608 223.794667,34.9953333 223.244,35.77 L223.244,35.77 L223.244,32.032 L221.844,32.032 L221.844,42 L223.244,42 Z M231.742,42.168 C232.824667,42.168 233.608667,41.7853333 234.094,41.02 C234.140667,41.3746667 234.273667,41.6336667 234.493,41.797 C234.712333,41.9603333 235.046,42.042 235.494,42.042 C235.746,42.042 235.974667,42.028 236.18,42 L236.18,42 L236.18,40.922 L235.788,40.922 C235.526667,40.922 235.396,40.8006667 235.396,40.558 L235.396,40.558 L235.396,36.736 C235.396,35.3173333 234.444,34.608 232.54,34.608 C230.598667,34.608 229.576667,35.4153333 229.474,37.03 L229.474,37.03 L230.86,37.03 C230.897333,36.5446667 231.042,36.2063333 231.294,36.015 C231.546,35.8236667 231.961333,35.728 232.54,35.728 C233.072,35.728 233.452333,35.8096667 233.681,35.973 C233.909667,36.1363333 234.024,36.4 234.024,36.764 C234.024,37.0346667 233.937667,37.2423333 233.765,37.387 C233.592333,37.5316667 233.319333,37.6273333 232.946,37.674 L232.946,37.674 L231.882,37.786 C230.071333,37.9726667 229.166,38.7193333 229.166,40.026 C229.166,40.698 229.397,41.223 229.859,41.601 C230.321,41.979 230.948667,42.168 231.742,42.168 Z M231.952,41.076 C231.513333,41.076 231.179667,40.9803333 230.951,40.789 C230.722333,40.5976667 230.608,40.3293333 230.608,39.984 C230.608,39.6386667 230.724667,39.3703333 230.958,39.179 C231.191333,38.9876667 231.578667,38.8593333 232.12,38.794 L232.12,38.794 L233.128,38.682 C233.548,38.6353333 233.846667,38.5373333 234.024,38.388 L234.024,38.388 L234.024,39.144 C234.024,39.76 233.828,40.236 233.436,40.572 C233.044,40.908 232.549333,41.076 231.952,41.076 Z M239.428,42.042 C239.689333,42.042 239.974,42.028 240.282,42 L240.282,42 L240.282,40.88 L239.652,40.88 C239.353333,40.88 239.141,40.831 239.015,40.733 C238.889,40.635 238.826,40.4786667 238.826,40.264 L238.826,40.264 L238.826,35.924 L240.282,35.924 L240.282,34.776 L238.826,34.776 L238.826,32.704 L237.426,32.704 L237.426,34.776 L236.264,34.776 L236.264,35.924 L237.426,35.924 L237.426,40.39 C237.426,40.9686667 237.589333,41.3886667 237.916,41.65 C238.242667,41.9113333 238.746667,42.042 239.428,42.042 Z M246.904,42.182 C247.856,42.182 248.598,41.9883333 249.13,41.601 C249.662,41.2136667 249.928,40.67 249.928,39.97 C249.928,39.3726667 249.732,38.906 249.34,38.57 C248.948,38.234 248.308667,37.982 247.422,37.814 L247.422,37.814 L246.666,37.688 C246.199333,37.5946667 245.858667,37.471 245.644,37.317 C245.429333,37.163 245.322,36.946 245.322,36.666 C245.322,36.358 245.443333,36.12 245.686,35.952 C245.928667,35.784 246.274,35.7 246.722,35.7 C247.282,35.7 247.697333,35.8003333 247.968,36.001 C248.238667,36.2016667 248.388,36.5446667 248.416,37.03 L248.416,37.03 L249.774,37.03 C249.727333,35.4153333 248.71,34.608 246.722,34.608 C245.854,34.608 245.172667,34.797 244.678,35.175 C244.183333,35.553 243.936,36.064 243.936,36.708 C243.936,37.8653333 244.701333,38.584 246.232,38.864 L246.232,38.864 L246.974,39.004 C247.552667,39.1066667 247.954,39.2373333 248.178,39.396 C248.402,39.5546667 248.514,39.7786667 248.514,40.068 C248.514,40.74 247.982,41.076 246.918,41.076 C246.33,41.076 245.900667,40.9733333 245.63,40.768 C245.359333,40.5626667 245.196,40.208 245.14,39.704 L245.14,39.704 L243.74,39.704 C243.842667,41.356 244.897333,42.182 246.904,42.182 Z M253.414,42.042 C253.675333,42.042 253.96,42.028 254.268,42 L254.268,42 L254.268,40.88 L253.638,40.88 C253.339333,40.88 253.127,40.831 253.001,40.733 C252.875,40.635 252.812,40.4786667 252.812,40.264 L252.812,40.264 L252.812,35.924 L254.268,35.924 L254.268,34.776 L252.812,34.776 L252.812,32.704 L251.412,32.704 L251.412,34.776 L250.25,34.776 L250.25,35.924 L251.412,35.924 L251.412,40.39 C251.412,40.9686667 251.575333,41.3886667 251.902,41.65 C252.228667,41.9113333 252.732667,42.042 253.414,42.042 Z M258.37,42.168 C259.200667,42.168 259.898333,41.9556667 260.463,41.531 C261.027667,41.1063333 261.408,40.5253333 261.604,39.788 L261.604,39.788 L260.19,39.788 C259.91,40.5906667 259.312667,40.992 258.398,40.992 C257.791333,40.992 257.310667,40.8123333 256.956,40.453 C256.601333,40.0936667 256.391333,39.5593333 256.326,38.85 L256.326,38.85 L261.772,38.85 L261.772,38.444 C261.772,37.324 261.468667,36.4046667 260.862,35.686 C260.246,34.9673333 259.406,34.608 258.342,34.608 C257.324667,34.608 256.498667,34.9533333 255.864,35.644 C255.229333,36.3346667 254.912,37.2493333 254.912,38.388 C254.912,39.5266667 255.229333,40.4413333 255.864,41.132 C256.498667,41.8226667 257.334,42.168 258.37,42.168 Z M260.33,37.744 L256.34,37.744 C256.424,37.1093333 256.641,36.624 256.991,36.288 C257.341,35.952 257.791333,35.784 258.342,35.784 C258.902,35.784 259.357,35.9636667 259.707,36.323 C260.057,36.6823333 260.264667,37.156 260.33,37.744 L260.33,37.744 Z M264.418,44.744 L264.418,40.992 C264.959333,41.776 265.743333,42.168 266.77,42.168 C267.768667,42.168 268.571333,41.8226667 269.178,41.132 C269.775333,40.4506667 270.074,39.536 270.074,38.388 C270.074,37.2306667 269.775333,36.3113333 269.178,35.63 C268.580667,34.9486667 267.778,34.608 266.77,34.608 C265.706,34.608 264.903333,35.028 264.362,35.868 L264.362,35.868 L264.362,34.776 L263.018,34.776 L263.018,44.744 L264.418,44.744 Z M266.504,40.964 C265.850667,40.964 265.337333,40.7353333 264.964,40.278 C264.581333,39.8206667 264.39,39.1906667 264.39,38.388 C264.39,37.5853333 264.581333,36.9506667 264.964,36.484 C265.346667,36.036 265.86,35.812 266.504,35.812 C267.166667,35.812 267.684667,36.0313333 268.058,36.47 C268.431333,36.9086667 268.618,37.5293333 268.618,38.332 C268.618,39.1626667 268.431333,39.8066667 268.058,40.264 C267.675333,40.7306667 267.157333,40.964 266.504,40.964 Z M273.868,42.182 C274.82,42.182 275.562,41.9883333 276.094,41.601 C276.626,41.2136667 276.892,40.67 276.892,39.97 C276.892,39.3726667 276.696,38.906 276.304,38.57 C275.912,38.234 275.272667,37.982 274.386,37.814 L274.386,37.814 L273.63,37.688 C273.163333,37.5946667 272.822667,37.471 272.608,37.317 C272.393333,37.163 272.286,36.946 272.286,36.666 C272.286,36.358 272.407333,36.12 272.65,35.952 C272.892667,35.784 273.238,35.7 273.686,35.7 C274.246,35.7 274.661333,35.8003333 274.932,36.001 C275.202667,36.2016667 275.352,36.5446667 275.38,37.03 L275.38,37.03 L276.738,37.03 C276.691333,35.4153333 275.674,34.608 273.686,34.608 C272.818,34.608 272.136667,34.797 271.642,35.175 C271.147333,35.553 270.9,36.064 270.9,36.708 C270.9,37.8653333 271.665333,38.584 273.196,38.864 L273.196,38.864 L273.938,39.004 C274.516667,39.1066667 274.918,39.2373333 275.142,39.396 C275.366,39.5546667 275.478,39.7786667 275.478,40.068 C275.478,40.74 274.946,41.076 273.882,41.076 C273.294,41.076 272.864667,40.9733333 272.594,40.768 C272.323333,40.5626667 272.16,40.208 272.104,39.704 L272.104,39.704 L270.704,39.704 C270.806667,41.356 271.861333,42.182 273.868,42.182 Z M281.274,44.786 C282.011333,44.786 282.580667,44.646 282.982,44.366 C283.383333,44.086 283.705333,43.6006667 283.948,42.91 L283.948,42.91 L286.888,34.776 L285.404,34.776 L284.564,37.254 C284.2,38.374 283.836,39.5266667 283.472,40.712 C283.201333,39.788 282.842,38.6353333 282.394,37.254 L282.394,37.254 L281.554,34.776 L280.028,34.776 L282.702,42.196 C282.674,42.2613333 282.639,42.3546667 282.597,42.476 C282.576,42.5366667 282.557917,42.5891667 282.54275,42.6335 L282.506,42.742 C282.291333,43.3206667 281.871333,43.61 281.246,43.61 L281.246,43.61 L280.546,43.61 L280.546,44.744 C280.779333,44.772 281.022,44.786 281.274,44.786 Z M290.584,42.168 C291.648,42.168 292.511333,41.8226667 293.174,41.132 C293.827333,40.4506667 294.154,39.536 294.154,38.388 C294.154,37.2306667 293.827333,36.3113333 293.174,35.63 C292.520667,34.9486667 291.657333,34.608 290.584,34.608 C289.510667,34.608 288.647333,34.9486667 287.994,35.63 C287.331333,36.3206667 287,37.24 287,38.388 C287,39.5266667 287.331333,40.4413333 287.994,41.132 C288.656667,41.8226667 289.52,42.168 290.584,42.168 Z M290.584,40.964 C289.930667,40.964 289.412667,40.7353333 289.03,40.278 C288.647333,39.8206667 288.456,39.1906667 288.456,38.388 C288.456,37.5853333 288.647333,36.9553333 289.03,36.498 C289.412667,36.0406667 289.930667,35.812 290.584,35.812 C291.237333,35.812 291.753,36.0406667 292.131,36.498 C292.509,36.9553333 292.698,37.5853333 292.698,38.388 C292.698,39.1906667 292.509,39.8206667 292.131,40.278 C291.753,40.7353333 291.237333,40.964 290.584,40.964 Z M297.724,42.168 C298.685333,42.168 299.441333,41.7526667 299.992,40.922 L299.992,40.922 L299.992,42 L301.336,42 L301.336,34.776 L299.936,34.776 L299.936,38.85 C299.936,39.5033333 299.761,40.0143333 299.411,40.383 C299.061,40.7516667 298.629333,40.936 298.116,40.936 C297.098667,40.936 296.59,40.432 296.59,39.424 L296.59,39.424 L296.59,34.776 L295.19,34.776 L295.19,39.62 C295.19,40.4226667 295.414,41.048 295.862,41.496 C296.31,41.944 296.930667,42.168 297.724,42.168 Z M307.146,42 L307.146,37.926 C307.146,37.254 307.332667,36.736 307.706,36.372 C308.079333,36.0173333 308.499333,35.84 308.966,35.84 C309.983333,35.84 310.492,36.344 310.492,37.352 L310.492,37.352 L310.492,42 L311.892,42 L311.892,37.156 C311.892,36.344 311.668,35.7163333 311.22,35.273 C310.772,34.8296667 310.151333,34.608 309.358,34.608 C308.396667,34.608 307.640667,35.0233333 307.09,35.854 L307.09,35.854 L307.09,34.776 L305.746,34.776 L305.746,42 L307.146,42 Z M316.596,42.168 C317.426667,42.168 318.124333,41.9556667 318.689,41.531 C319.253667,41.1063333 319.634,40.5253333 319.83,39.788 L319.83,39.788 L318.416,39.788 C318.136,40.5906667 317.538667,40.992 316.624,40.992 C316.017333,40.992 315.536667,40.8123333 315.182,40.453 C314.827333,40.0936667 314.617333,39.5593333 314.552,38.85 L314.552,38.85 L319.998,38.85 L319.998,38.444 C319.998,37.324 319.694667,36.4046667 319.088,35.686 C318.472,34.9673333 317.632,34.608 316.568,34.608 C315.550667,34.608 314.724667,34.9533333 314.09,35.644 C313.455333,36.3346667 313.138,37.2493333 313.138,38.388 C313.138,39.5266667 313.455333,40.4413333 314.09,41.132 C314.724667,41.8226667 315.56,42.168 316.596,42.168 Z M318.556,37.744 L314.566,37.744 C314.65,37.1093333 314.867,36.624 315.217,36.288 C315.567,35.952 316.017333,35.784 316.568,35.784 C317.128,35.784 317.583,35.9636667 317.933,36.323 C318.283,36.6823333 318.490667,37.156 318.556,37.744 L318.556,37.744 Z M324.366,42.168 C325.196667,42.168 325.894333,41.9556667 326.459,41.531 C327.023667,41.1063333 327.404,40.5253333 327.6,39.788 L327.6,39.788 L326.186,39.788 C325.906,40.5906667 325.308667,40.992 324.394,40.992 C323.787333,40.992 323.306667,40.8123333 322.952,40.453 C322.597333,40.0936667 322.387333,39.5593333 322.322,38.85 L322.322,38.85 L327.768,38.85 L327.768,38.444 C327.768,37.324 327.464667,36.4046667 326.858,35.686 C326.242,34.9673333 325.402,34.608 324.338,34.608 C323.320667,34.608 322.494667,34.9533333 321.86,35.644 C321.225333,36.3346667 320.908,37.2493333 320.908,38.388 C320.908,39.5266667 321.225333,40.4413333 321.86,41.132 C322.494667,41.8226667 323.33,42.168 324.366,42.168 Z M326.326,37.744 L322.336,37.744 C322.42,37.1093333 322.637,36.624 322.987,36.288 C323.337,35.952 323.787333,35.784 324.338,35.784 C324.898,35.784 325.353,35.9636667 325.703,36.323 C326.053,36.6823333 326.260667,37.156 326.326,37.744 L326.326,37.744 Z M331.982,42.168 C333.036667,42.168 333.834667,41.7573333 334.376,40.936 L334.376,40.936 L334.376,42 L335.72,42 L335.72,32.032 L334.32,32.032 L334.32,35.756 C333.778667,34.9906667 332.999333,34.608 331.982,34.608 C330.974,34.608 330.171333,34.9486667 329.574,35.63 C328.976667,36.3113333 328.678,37.2306667 328.678,38.388 C328.678,39.5453333 328.976667,40.4646667 329.574,41.146 C330.171333,41.8273333 330.974,42.168 331.982,42.168 Z M332.248,40.964 C331.604,40.964 331.090667,40.7446667 330.708,40.306 C330.325333,39.8673333 330.134,39.2466667 330.134,38.444 C330.134,37.6226667 330.325333,36.9786667 330.708,36.512 C331.090667,36.0453333 331.604,35.812 332.248,35.812 C332.910667,35.812 333.428667,36.036 333.802,36.484 C334.175333,36.9413333 334.362,37.576 334.362,38.388 C334.362,39.2093333 334.175333,39.8393333 333.802,40.278 C333.428667,40.7353333 332.910667,40.964 332.248,40.964 Z M342.706,42.042 C342.967333,42.042 343.252,42.028 343.56,42 L343.56,42 L343.56,40.88 L342.93,40.88 C342.631333,40.88 342.419,40.831 342.293,40.733 C342.167,40.635 342.104,40.4786667 342.104,40.264 L342.104,40.264 L342.104,35.924 L343.56,35.924 L343.56,34.776 L342.104,34.776 L342.104,32.704 L340.704,32.704 L340.704,34.776 L339.542,34.776 L339.542,35.924 L340.704,35.924 L340.704,40.39 C340.704,40.9686667 340.867333,41.3886667 341.194,41.65 C341.520667,41.9113333 342.024667,42.042 342.706,42.042 Z M347.788,42.168 C348.852,42.168 349.715333,41.8226667 350.378,41.132 C351.031333,40.4506667 351.358,39.536 351.358,38.388 C351.358,37.2306667 351.031333,36.3113333 350.378,35.63 C349.724667,34.9486667 348.861333,34.608 347.788,34.608 C346.714667,34.608 345.851333,34.9486667 345.198,35.63 C344.535333,36.3206667 344.204,37.24 344.204,38.388 C344.204,39.5266667 344.535333,40.4413333 345.198,41.132 C345.860667,41.8226667 346.724,42.168 347.788,42.168 Z M347.788,40.964 C347.134667,40.964 346.616667,40.7353333 346.234,40.278 C345.851333,39.8206667 345.66,39.1906667 345.66,38.388 C345.66,37.5853333 345.851333,36.9553333 346.234,36.498 C346.616667,36.0406667 347.134667,35.812 347.788,35.812 C348.441333,35.812 348.957,36.0406667 349.335,36.498 C349.713,36.9553333 349.902,37.5853333 349.902,38.388 C349.902,39.1906667 349.713,39.8206667 349.335,40.278 C348.957,40.7353333 348.441333,40.964 347.788,40.964 Z M357.994,42.042 C358.255333,42.042 358.54,42.028 358.848,42 L358.848,42 L358.848,40.88 L358.218,40.88 C357.919333,40.88 357.707,40.831 357.581,40.733 C357.455,40.635 357.392,40.4786667 357.392,40.264 L357.392,40.264 L357.392,35.924 L358.848,35.924 L358.848,34.776 L357.392,34.776 L357.392,32.704 L355.992,32.704 L355.992,34.776 L354.83,34.776 L354.83,35.924 L355.992,35.924 L355.992,40.39 C355.992,40.9686667 356.155333,41.3886667 356.482,41.65 C356.808667,41.9113333 357.312667,42.042 357.994,42.042 Z M362.082,42.168 C363.164667,42.168 363.948667,41.7853333 364.434,41.02 C364.480667,41.3746667 364.613667,41.6336667 364.833,41.797 C365.052333,41.9603333 365.386,42.042 365.834,42.042 C366.086,42.042 366.314667,42.028 366.52,42 L366.52,42 L366.52,40.922 L366.128,40.922 C365.866667,40.922 365.736,40.8006667 365.736,40.558 L365.736,40.558 L365.736,36.736 C365.736,35.3173333 364.784,34.608 362.88,34.608 C360.938667,34.608 359.916667,35.4153333 359.814,37.03 L359.814,37.03 L361.2,37.03 C361.237333,36.5446667 361.382,36.2063333 361.634,36.015 C361.886,35.8236667 362.301333,35.728 362.88,35.728 C363.412,35.728 363.792333,35.8096667 364.021,35.973 C364.249667,36.1363333 364.364,36.4 364.364,36.764 C364.364,37.0346667 364.277667,37.2423333 364.105,37.387 C363.932333,37.5316667 363.659333,37.6273333 363.286,37.674 L363.286,37.674 L362.222,37.786 C360.411333,37.9726667 359.506,38.7193333 359.506,40.026 C359.506,40.698 359.737,41.223 360.199,41.601 C360.661,41.979 361.288667,42.168 362.082,42.168 Z M362.292,41.076 C361.853333,41.076 361.519667,40.9803333 361.291,40.789 C361.062333,40.5976667 360.948,40.3293333 360.948,39.984 C360.948,39.6386667 361.064667,39.3703333 361.298,39.179 C361.531333,38.9876667 361.918667,38.8593333 362.46,38.794 L362.46,38.794 L363.468,38.682 C363.888,38.6353333 364.186667,38.5373333 364.364,38.388 L364.364,38.388 L364.364,39.144 C364.364,39.76 364.168,40.236 363.776,40.572 C363.384,40.908 362.889333,41.076 362.292,41.076 Z M368.774,42 L368.774,39.522 L369.978,38.346 L372.274,42 L373.884,42 L370.972,37.436 L373.702,34.776 L371.952,34.776 L368.774,37.912 L368.774,32.032 L367.388,32.032 L367.388,42 L368.774,42 Z M377.328,42.168 C378.158667,42.168 378.856333,41.9556667 379.421,41.531 C379.985667,41.1063333 380.366,40.5253333 380.562,39.788 L380.562,39.788 L379.148,39.788 C378.868,40.5906667 378.270667,40.992 377.356,40.992 C376.749333,40.992 376.268667,40.8123333 375.914,40.453 C375.559333,40.0936667 375.349333,39.5593333 375.284,38.85 L375.284,38.85 L380.73,38.85 L380.73,38.444 C380.73,37.324 380.426667,36.4046667 379.82,35.686 C379.204,34.9673333 378.364,34.608 377.3,34.608 C376.282667,34.608 375.456667,34.9533333 374.822,35.644 C374.187333,36.3346667 373.87,37.2493333 373.87,38.388 C373.87,39.5266667 374.187333,40.4413333 374.822,41.132 C375.456667,41.8226667 376.292,42.168 377.328,42.168 Z M379.288,37.744 L375.298,37.744 C375.382,37.1093333 375.599,36.624 375.949,36.288 C376.299,35.952 376.749333,35.784 377.3,35.784 C377.86,35.784 378.315,35.9636667 378.665,36.323 C379.015,36.6823333 379.222667,37.156 379.288,37.744 L379.288,37.744 Z M387.38,42.042 C387.641333,42.042 387.926,42.028 388.234,42 L388.234,42 L388.234,40.88 L387.604,40.88 C387.305333,40.88 387.093,40.831 386.967,40.733 C386.841,40.635 386.778,40.4786667 386.778,40.264 L386.778,40.264 L386.778,35.924 L388.234,35.924 L388.234,34.776 L386.778,34.776 L386.778,32.704 L385.378,32.704 L385.378,34.776 L384.216,34.776 L384.216,35.924 L385.378,35.924 L385.378,40.39 C385.378,40.9686667 385.541333,41.3886667 385.868,41.65 C386.194667,41.9113333 386.698667,42.042 387.38,42.042 Z M392.462,42.168 C393.526,42.168 394.389333,41.8226667 395.052,41.132 C395.705333,40.4506667 396.032,39.536 396.032,38.388 C396.032,37.2306667 395.705333,36.3113333 395.052,35.63 C394.398667,34.9486667 393.535333,34.608 392.462,34.608 C391.388667,34.608 390.525333,34.9486667 389.872,35.63 C389.209333,36.3206667 388.878,37.24 388.878,38.388 C388.878,39.5266667 389.209333,40.4413333 389.872,41.132 C390.534667,41.8226667 391.398,42.168 392.462,42.168 Z M392.462,40.964 C391.808667,40.964 391.290667,40.7353333 390.908,40.278 C390.525333,39.8206667 390.334,39.1906667 390.334,38.388 C390.334,37.5853333 390.525333,36.9553333 390.908,36.498 C391.290667,36.0406667 391.808667,35.812 392.462,35.812 C393.115333,35.812 393.631,36.0406667 394.009,36.498 C394.387,36.9553333 394.576,37.5853333 394.576,38.388 C394.576,39.1906667 394.387,39.8206667 394.009,40.278 C393.631,40.7353333 393.115333,40.964 392.462,40.964 Z M212.184,62.744 L212.184,58.992 C212.725333,59.776 213.509333,60.168 214.536,60.168 C215.534667,60.168 216.337333,59.8226667 216.944,59.132 C217.541333,58.4506667 217.84,57.536 217.84,56.388 C217.84,55.2306667 217.541333,54.3113333 216.944,53.63 C216.346667,52.9486667 215.544,52.608 214.536,52.608 C213.472,52.608 212.669333,53.028 212.128,53.868 L212.128,53.868 L212.128,52.776 L210.784,52.776 L210.784,62.744 L212.184,62.744 Z M214.27,58.964 C213.616667,58.964 213.103333,58.7353333 212.73,58.278 C212.347333,57.8206667 212.156,57.1906667 212.156,56.388 C212.156,55.5853333 212.347333,54.9506667 212.73,54.484 C213.112667,54.036 213.626,53.812 214.27,53.812 C214.932667,53.812 215.450667,54.0313333 215.824,54.47 C216.197333,54.9086667 216.384,55.5293333 216.384,56.332 C216.384,57.1626667 216.197333,57.8066667 215.824,58.264 C215.441333,58.7306667 214.923333,58.964 214.27,58.964 Z M220.472,60 L220.472,56.08 C220.472,55.408 220.668,54.8946667 221.06,54.54 C221.452,54.1853333 222.007333,54.008 222.726,54.008 L222.726,54.008 L223.076,54.008 L223.076,52.678 C223.010667,52.6686667 222.875333,52.664 222.67,52.664 C221.624667,52.664 220.873333,53.1306667 220.416,54.064 L220.416,54.064 L220.416,52.776 L219.072,52.776 L219.072,60 L220.472,60 Z M226.954,60.168 C228.018,60.168 228.881333,59.8226667 229.544,59.132 C230.197333,58.4506667 230.524,57.536 230.524,56.388 C230.524,55.2306667 230.197333,54.3113333 229.544,53.63 C228.890667,52.9486667 228.027333,52.608 226.954,52.608 C225.880667,52.608 225.017333,52.9486667 224.364,53.63 C223.701333,54.3206667 223.37,55.24 223.37,56.388 C223.37,57.5266667 223.701333,58.4413333 224.364,59.132 C225.026667,59.8226667 225.89,60.168 226.954,60.168 Z M226.954,58.964 C226.300667,58.964 225.782667,58.7353333 225.4,58.278 C225.017333,57.8206667 224.826,57.1906667 224.826,56.388 C224.826,55.5853333 225.017333,54.9553333 225.4,54.498 C225.782667,54.0406667 226.300667,53.812 226.954,53.812 C227.607333,53.812 228.123,54.0406667 228.501,54.498 C228.879,54.9553333 229.068,55.5853333 229.068,56.388 C229.068,57.1906667 228.879,57.8206667 228.501,58.278 C228.123,58.7353333 227.607333,58.964 226.954,58.964 Z M235.018,62.912 C236.119333,62.912 236.968667,62.6296667 237.566,62.065 C238.163333,61.5003333 238.462,60.7233333 238.462,59.734 L238.462,59.734 L238.462,52.776 L237.118,52.776 L237.118,53.798 C236.576667,53.0046667 235.778667,52.608 234.724,52.608 C233.725333,52.608 232.927333,52.9486667 232.33,53.63 C231.723333,54.3206667 231.42,55.226 231.42,56.346 C231.42,57.466 231.723333,58.3713333 232.33,59.062 C232.927333,59.7433333 233.73,60.084 234.738,60.084 C235.736667,60.084 236.511333,59.7106667 237.062,58.964 L237.062,58.964 L237.062,59.762 C237.062,61.106 236.385333,61.778 235.032,61.778 C233.94,61.778 233.338,61.3533333 233.226,60.504 L233.226,60.504 L231.826,60.504 C231.900667,61.2506667 232.215667,61.8386667 232.771,62.268 C233.326333,62.6973333 234.075333,62.912 235.018,62.912 Z M234.99,58.88 C234.346,58.88 233.832667,58.6536667 233.45,58.201 C233.067333,57.7483333 232.876,57.13 232.876,56.346 C232.876,55.5713333 233.067333,54.9553333 233.45,54.498 C233.832667,54.0406667 234.346,53.812 234.99,53.812 C235.643333,53.812 236.159,54.0383333 236.537,54.491 C236.915,54.9436667 237.104,55.562 237.104,56.346 C237.104,57.13 236.915,57.7483333 236.537,58.201 C236.159,58.6536667 235.643333,58.88 234.99,58.88 Z M241.444,60 L241.444,56.08 C241.444,55.408 241.64,54.8946667 242.032,54.54 C242.424,54.1853333 242.979333,54.008 243.698,54.008 L243.698,54.008 L244.048,54.008 L244.048,52.678 C243.982667,52.6686667 243.847333,52.664 243.642,52.664 C242.596667,52.664 241.845333,53.1306667 241.388,54.064 L241.388,54.064 L241.388,52.776 L240.044,52.776 L240.044,60 L241.444,60 Z M247.8,60.168 C248.630667,60.168 249.328333,59.9556667 249.893,59.531 C250.457667,59.1063333 250.838,58.5253333 251.034,57.788 L251.034,57.788 L249.62,57.788 C249.34,58.5906667 248.742667,58.992 247.828,58.992 C247.221333,58.992 246.740667,58.8123333 246.386,58.453 C246.031333,58.0936667 245.821333,57.5593333 245.756,56.85 L245.756,56.85 L251.202,56.85 L251.202,56.444 C251.202,55.324 250.898667,54.4046667 250.292,53.686 C249.676,52.9673333 248.836,52.608 247.772,52.608 C246.754667,52.608 245.928667,52.9533333 245.294,53.644 C244.659333,54.3346667 244.342,55.2493333 244.342,56.388 C244.342,57.5266667 244.659333,58.4413333 245.294,59.132 C245.928667,59.8226667 246.764,60.168 247.8,60.168 Z M249.76,55.744 L245.77,55.744 C245.854,55.1093333 246.071,54.624 246.421,54.288 C246.771,53.952 247.221333,53.784 247.772,53.784 C248.332,53.784 248.787,53.9636667 249.137,54.323 C249.487,54.6823333 249.694667,55.156 249.76,55.744 L249.76,55.744 Z M255.08,60.182 C256.032,60.182 256.774,59.9883333 257.306,59.601 C257.838,59.2136667 258.104,58.67 258.104,57.97 C258.104,57.3726667 257.908,56.906 257.516,56.57 C257.124,56.234 256.484667,55.982 255.598,55.814 L255.598,55.814 L254.842,55.688 C254.375333,55.5946667 254.034667,55.471 253.82,55.317 C253.605333,55.163 253.498,54.946 253.498,54.666 C253.498,54.358 253.619333,54.12 253.862,53.952 C254.104667,53.784 254.45,53.7 254.898,53.7 C255.458,53.7 255.873333,53.8003333 256.144,54.001 C256.414667,54.2016667 256.564,54.5446667 256.592,55.03 L256.592,55.03 L257.95,55.03 C257.903333,53.4153333 256.886,52.608 254.898,52.608 C254.03,52.608 253.348667,52.797 252.854,53.175 C252.359333,53.553 252.112,54.064 252.112,54.708 C252.112,55.8653333 252.877333,56.584 254.408,56.864 L254.408,56.864 L255.15,57.004 C255.728667,57.1066667 256.13,57.2373333 256.354,57.396 C256.578,57.5546667 256.69,57.7786667 256.69,58.068 C256.69,58.74 256.158,59.076 255.094,59.076 C254.506,59.076 254.076667,58.9733333 253.806,58.768 C253.535333,58.5626667 253.372,58.208 253.316,57.704 L253.316,57.704 L251.916,57.704 C252.018667,59.356 253.073333,60.182 255.08,60.182 Z M261.982,60.182 C262.934,60.182 263.676,59.9883333 264.208,59.601 C264.74,59.2136667 265.006,58.67 265.006,57.97 C265.006,57.3726667 264.81,56.906 264.418,56.57 C264.026,56.234 263.386667,55.982 262.5,55.814 L262.5,55.814 L261.744,55.688 C261.277333,55.5946667 260.936667,55.471 260.722,55.317 C260.507333,55.163 260.4,54.946 260.4,54.666 C260.4,54.358 260.521333,54.12 260.764,53.952 C261.006667,53.784 261.352,53.7 261.8,53.7 C262.36,53.7 262.775333,53.8003333 263.046,54.001 C263.316667,54.2016667 263.466,54.5446667 263.494,55.03 L263.494,55.03 L264.852,55.03 C264.805333,53.4153333 263.788,52.608 261.8,52.608 C260.932,52.608 260.250667,52.797 259.756,53.175 C259.261333,53.553 259.014,54.064 259.014,54.708 C259.014,55.8653333 259.779333,56.584 261.31,56.864 L261.31,56.864 L262.052,57.004 C262.630667,57.1066667 263.032,57.2373333 263.256,57.396 C263.48,57.5546667 263.592,57.7786667 263.592,58.068 C263.592,58.74 263.06,59.076 261.996,59.076 C261.408,59.076 260.978667,58.9733333 260.708,58.768 C260.437333,58.5626667 260.274,58.208 260.218,57.704 L260.218,57.704 L258.818,57.704 C258.920667,59.356 259.975333,60.182 261.982,60.182 Z M271.446,60.042 C271.707333,60.042 271.992,60.028 272.3,60 L272.3,60 L272.3,58.88 L271.67,58.88 C271.371333,58.88 271.159,58.831 271.033,58.733 C270.907,58.635 270.844,58.4786667 270.844,58.264 L270.844,58.264 L270.844,53.924 L272.3,53.924 L272.3,52.776 L270.844,52.776 L270.844,50.704 L269.444,50.704 L269.444,52.776 L268.282,52.776 L268.282,53.924 L269.444,53.924 L269.444,58.39 C269.444,58.9686667 269.607333,59.3886667 269.934,59.65 C270.260667,59.9113333 270.764667,60.042 271.446,60.042 Z M276.528,60.168 C277.592,60.168 278.455333,59.8226667 279.118,59.132 C279.771333,58.4506667 280.098,57.536 280.098,56.388 C280.098,55.2306667 279.771333,54.3113333 279.118,53.63 C278.464667,52.9486667 277.601333,52.608 276.528,52.608 C275.454667,52.608 274.591333,52.9486667 273.938,53.63 C273.275333,54.3206667 272.944,55.24 272.944,56.388 C272.944,57.5266667 273.275333,58.4413333 273.938,59.132 C274.600667,59.8226667 275.464,60.168 276.528,60.168 Z M276.528,58.964 C275.874667,58.964 275.356667,58.7353333 274.974,58.278 C274.591333,57.8206667 274.4,57.1906667 274.4,56.388 C274.4,55.5853333 274.591333,54.9553333 274.974,54.498 C275.356667,54.0406667 275.874667,53.812 276.528,53.812 C277.181333,53.812 277.697,54.0406667 278.075,54.498 C278.453,54.9553333 278.642,55.5853333 278.642,56.388 C278.642,57.1906667 278.453,57.8206667 278.075,58.278 C277.697,58.7353333 277.181333,58.964 276.528,58.964 Z M284.088,60 L285.068,56.822 C285.208,56.3646667 285.432,55.59 285.74,54.498 C285.945333,55.2446667 286.174,56.0193333 286.426,56.822 L286.426,56.822 L287.42,60 L288.89,60 L291.284,52.776 L289.786,52.776 L288.848,55.786 C288.465333,57.0833333 288.218,57.9373333 288.106,58.348 C287.994,57.9373333 287.746667,57.0833333 287.364,55.786 L287.364,55.786 L286.454,52.776 L285.054,52.776 L284.13,55.786 C283.812667,56.8313333 283.57,57.69 283.402,58.362 C283.15,57.4566667 282.898,56.598 282.646,55.786 L282.646,55.786 L281.722,52.776 L280.21,52.776 L282.604,60 L284.088,60 Z M293.944,60.168 C295.026667,60.168 295.810667,59.7853333 296.296,59.02 C296.342667,59.3746667 296.475667,59.6336667 296.695,59.797 C296.914333,59.9603333 297.248,60.042 297.696,60.042 C297.948,60.042 298.176667,60.028 298.382,60 L298.382,60 L298.382,58.922 L297.99,58.922 C297.728667,58.922 297.598,58.8006667 297.598,58.558 L297.598,58.558 L297.598,54.736 C297.598,53.3173333 296.646,52.608 294.742,52.608 C292.800667,52.608 291.778667,53.4153333 291.676,55.03 L291.676,55.03 L293.062,55.03 C293.099333,54.5446667 293.244,54.2063333 293.496,54.015 C293.748,53.8236667 294.163333,53.728 294.742,53.728 C295.274,53.728 295.654333,53.8096667 295.883,53.973 C296.111667,54.1363333 296.226,54.4 296.226,54.764 C296.226,55.0346667 296.139667,55.2423333 295.967,55.387 C295.794333,55.5316667 295.521333,55.6273333 295.148,55.674 L295.148,55.674 L294.084,55.786 C292.273333,55.9726667 291.368,56.7193333 291.368,58.026 C291.368,58.698 291.599,59.223 292.061,59.601 C292.523,59.979 293.150667,60.168 293.944,60.168 Z M294.154,59.076 C293.715333,59.076 293.381667,58.9803333 293.153,58.789 C292.924333,58.5976667 292.81,58.3293333 292.81,57.984 C292.81,57.6386667 292.926667,57.3703333 293.16,57.179 C293.393333,56.9876667 293.780667,56.8593333 294.322,56.794 L294.322,56.794 L295.33,56.682 C295.75,56.6353333 296.048667,56.5373333 296.226,56.388 L296.226,56.388 L296.226,57.144 C296.226,57.76 296.03,58.236 295.638,58.572 C295.246,58.908 294.751333,59.076 294.154,59.076 Z M300.706,60 L300.706,56.08 C300.706,55.408 300.902,54.8946667 301.294,54.54 C301.686,54.1853333 302.241333,54.008 302.96,54.008 L302.96,54.008 L303.31,54.008 L303.31,52.678 C303.244667,52.6686667 303.109333,52.664 302.904,52.664 C301.858667,52.664 301.107333,53.1306667 300.65,54.064 L300.65,54.064 L300.65,52.776 L299.306,52.776 L299.306,60 L300.706,60 Z M306.908,60.168 C307.962667,60.168 308.760667,59.7573333 309.302,58.936 L309.302,58.936 L309.302,60 L310.646,60 L310.646,50.032 L309.246,50.032 L309.246,53.756 C308.704667,52.9906667 307.925333,52.608 306.908,52.608 C305.9,52.608 305.097333,52.9486667 304.5,53.63 C303.902667,54.3113333 303.604,55.2306667 303.604,56.388 C303.604,57.5453333 303.902667,58.4646667 304.5,59.146 C305.097333,59.8273333 305.9,60.168 306.908,60.168 Z M307.174,58.964 C306.53,58.964 306.016667,58.7446667 305.634,58.306 C305.251333,57.8673333 305.06,57.2466667 305.06,56.444 C305.06,55.6226667 305.251333,54.9786667 305.634,54.512 C306.016667,54.0453333 306.53,53.812 307.174,53.812 C307.836667,53.812 308.354667,54.036 308.728,54.484 C309.101333,54.9413333 309.288,55.576 309.288,56.388 C309.288,57.2093333 309.101333,57.8393333 308.728,58.278 C308.354667,58.7353333 307.836667,58.964 307.174,58.964 Z M314.902,60.182 C315.854,60.182 316.596,59.9883333 317.128,59.601 C317.66,59.2136667 317.926,58.67 317.926,57.97 C317.926,57.3726667 317.73,56.906 317.338,56.57 C316.946,56.234 316.306667,55.982 315.42,55.814 L315.42,55.814 L314.664,55.688 C314.197333,55.5946667 313.856667,55.471 313.642,55.317 C313.427333,55.163 313.32,54.946 313.32,54.666 C313.32,54.358 313.441333,54.12 313.684,53.952 C313.926667,53.784 314.272,53.7 314.72,53.7 C315.28,53.7 315.695333,53.8003333 315.966,54.001 C316.236667,54.2016667 316.386,54.5446667 316.414,55.03 L316.414,55.03 L317.772,55.03 C317.725333,53.4153333 316.708,52.608 314.72,52.608 C313.852,52.608 313.170667,52.797 312.676,53.175 C312.181333,53.553 311.934,54.064 311.934,54.708 C311.934,55.8653333 312.699333,56.584 314.23,56.864 L314.23,56.864 L314.972,57.004 C315.550667,57.1066667 315.952,57.2373333 316.176,57.396 C316.4,57.5546667 316.512,57.7786667 316.512,58.068 C316.512,58.74 315.98,59.076 314.916,59.076 C314.328,59.076 313.898667,58.9733333 313.628,58.768 C313.357333,58.5626667 313.194,58.208 313.138,57.704 L313.138,57.704 L311.738,57.704 C311.840667,59.356 312.895333,60.182 314.902,60.182 Z M324.366,60.042 C324.627333,60.042 324.912,60.028 325.22,60 L325.22,60 L325.22,58.88 L324.59,58.88 C324.291333,58.88 324.079,58.831 323.953,58.733 C323.827,58.635 323.764,58.4786667 323.764,58.264 L323.764,58.264 L323.764,53.924 L325.22,53.924 L325.22,52.776 L323.764,52.776 L323.764,50.704 L322.364,50.704 L322.364,52.776 L321.202,52.776 L321.202,53.924 L322.364,53.924 L322.364,58.39 C322.364,58.9686667 322.527333,59.3886667 322.854,59.65 C323.180667,59.9113333 323.684667,60.042 324.366,60.042 Z M327.74,60 L327.74,55.926 C327.74,55.254 327.926667,54.736 328.3,54.372 C328.673333,54.0173333 329.093333,53.84 329.56,53.84 C330.577333,53.84 331.086,54.344 331.086,55.352 L331.086,55.352 L331.086,60 L332.486,60 L332.486,55.156 C332.486,54.344 332.262,53.7163333 331.814,53.273 C331.366,52.8296667 330.745333,52.608 329.952,52.608 C329.028,52.608 328.290667,52.9953333 327.74,53.77 L327.74,53.77 L327.74,50.032 L326.34,50.032 L326.34,60 L327.74,60 Z M337.19,60.168 C338.020667,60.168 338.718333,59.9556667 339.283,59.531 C339.847667,59.1063333 340.228,58.5253333 340.424,57.788 L340.424,57.788 L339.01,57.788 C338.73,58.5906667 338.132667,58.992 337.218,58.992 C336.611333,58.992 336.130667,58.8123333 335.776,58.453 C335.421333,58.0936667 335.211333,57.5593333 335.146,56.85 L335.146,56.85 L340.592,56.85 L340.592,56.444 C340.592,55.324 340.288667,54.4046667 339.682,53.686 C339.066,52.9673333 338.226,52.608 337.162,52.608 C336.144667,52.608 335.318667,52.9533333 334.684,53.644 C334.049333,54.3346667 333.732,55.2493333 333.732,56.388 C333.732,57.5266667 334.049333,58.4413333 334.684,59.132 C335.318667,59.8226667 336.154,60.168 337.19,60.168 Z M339.15,55.744 L335.16,55.744 C335.244,55.1093333 335.461,54.624 335.811,54.288 C336.161,53.952 336.611333,53.784 337.162,53.784 C337.722,53.784 338.177,53.9636667 338.527,54.323 C338.877,54.6823333 339.084667,55.156 339.15,55.744 L339.15,55.744 Z M345.184,62.786 C345.921333,62.786 346.490667,62.646 346.892,62.366 C347.293333,62.086 347.615333,61.6006667 347.858,60.91 L347.858,60.91 L350.798,52.776 L349.314,52.776 L348.474,55.254 C348.11,56.374 347.746,57.5266667 347.382,58.712 C347.111333,57.788 346.752,56.6353333 346.304,55.254 L346.304,55.254 L345.464,52.776 L343.938,52.776 L346.612,60.196 C346.584,60.2613333 346.549,60.3546667 346.507,60.476 C346.486,60.5366667 346.467917,60.5891667 346.45275,60.6335 L346.416,60.742 C346.201333,61.3206667 345.781333,61.61 345.156,61.61 L345.156,61.61 L344.456,61.61 L344.456,62.744 C344.689333,62.772 344.932,62.786 345.184,62.786 Z M354.368,60.168 C355.198667,60.168 355.896333,59.9556667 356.461,59.531 C357.025667,59.1063333 357.406,58.5253333 357.602,57.788 L357.602,57.788 L356.188,57.788 C355.908,58.5906667 355.310667,58.992 354.396,58.992 C353.789333,58.992 353.308667,58.8123333 352.954,58.453 C352.599333,58.0936667 352.389333,57.5593333 352.324,56.85 L352.324,56.85 L357.77,56.85 L357.77,56.444 C357.77,55.324 357.466667,54.4046667 356.86,53.686 C356.244,52.9673333 355.404,52.608 354.34,52.608 C353.322667,52.608 352.496667,52.9533333 351.862,53.644 C351.227333,54.3346667 350.91,55.2493333 350.91,56.388 C350.91,57.5266667 351.227333,58.4413333 351.862,59.132 C352.496667,59.8226667 353.332,60.168 354.368,60.168 Z M356.328,55.744 L352.338,55.744 C352.422,55.1093333 352.639,54.624 352.989,54.288 C353.339,53.952 353.789333,53.784 354.34,53.784 C354.9,53.784 355.355,53.9636667 355.705,54.323 C356.055,54.6823333 356.262667,55.156 356.328,55.744 L356.328,55.744 Z M361.116,60.168 C362.198667,60.168 362.982667,59.7853333 363.468,59.02 C363.514667,59.3746667 363.647667,59.6336667 363.867,59.797 C364.086333,59.9603333 364.42,60.042 364.868,60.042 C365.12,60.042 365.348667,60.028 365.554,60 L365.554,60 L365.554,58.922 L365.162,58.922 C364.900667,58.922 364.77,58.8006667 364.77,58.558 L364.77,58.558 L364.77,54.736 C364.77,53.3173333 363.818,52.608 361.914,52.608 C359.972667,52.608 358.950667,53.4153333 358.848,55.03 L358.848,55.03 L360.234,55.03 C360.271333,54.5446667 360.416,54.2063333 360.668,54.015 C360.92,53.8236667 361.335333,53.728 361.914,53.728 C362.446,53.728 362.826333,53.8096667 363.055,53.973 C363.283667,54.1363333 363.398,54.4 363.398,54.764 C363.398,55.0346667 363.311667,55.2423333 363.139,55.387 C362.966333,55.5316667 362.693333,55.6273333 362.32,55.674 L362.32,55.674 L361.256,55.786 C359.445333,55.9726667 358.54,56.7193333 358.54,58.026 C358.54,58.698 358.771,59.223 359.233,59.601 C359.695,59.979 360.322667,60.168 361.116,60.168 Z M361.326,59.076 C360.887333,59.076 360.553667,58.9803333 360.325,58.789 C360.096333,58.5976667 359.982,58.3293333 359.982,57.984 C359.982,57.6386667 360.098667,57.3703333 360.332,57.179 C360.565333,56.9876667 360.952667,56.8593333 361.494,56.794 L361.494,56.794 L362.502,56.682 C362.922,56.6353333 363.220667,56.5373333 363.398,56.388 L363.398,56.388 L363.398,57.144 C363.398,57.76 363.202,58.236 362.81,58.572 C362.418,58.908 361.923333,59.076 361.326,59.076 Z M367.878,60 L367.878,56.08 C367.878,55.408 368.074,54.8946667 368.466,54.54 C368.858,54.1853333 369.413333,54.008 370.132,54.008 L370.132,54.008 L370.482,54.008 L370.482,52.678 C370.416667,52.6686667 370.281333,52.664 370.076,52.664 C369.030667,52.664 368.279333,53.1306667 367.822,54.064 L367.822,54.064 L367.822,52.776 L366.478,52.776 L366.478,60 L367.878,60 Z M372.89,60 L372.89,50.032 L371.49,50.032 L371.49,60 L372.89,60 Z M374.85,62.786 C375.587333,62.786 376.156667,62.646 376.558,62.366 C376.959333,62.086 377.281333,61.6006667 377.524,60.91 L377.524,60.91 L380.464,52.776 L378.98,52.776 L378.14,55.254 C377.776,56.374 377.412,57.5266667 377.048,58.712 C376.777333,57.788 376.418,56.6353333 375.97,55.254 L375.97,55.254 L375.13,52.776 L373.604,52.776 L376.278,60.196 C376.25,60.2613333 376.215,60.3546667 376.173,60.476 C376.152,60.5366667 376.133917,60.5891667 376.11875,60.6335 L376.082,60.742 C375.867333,61.3206667 375.447333,61.61 374.822,61.61 L374.822,61.61 L374.122,61.61 L374.122,62.744 C374.355333,62.772 374.598,62.786 374.85,62.786 Z M214.046,80.912 C215.147333,80.912 215.996667,80.6296667 216.594,80.065 C217.191333,79.5003333 217.49,78.7233333 217.49,77.734 L217.49,77.734 L217.49,70.776 L216.146,70.776 L216.146,71.798 C215.604667,71.0046667 214.806667,70.608 213.752,70.608 C212.753333,70.608 211.955333,70.9486667 211.358,71.63 C210.751333,72.3206667 210.448,73.226 210.448,74.346 C210.448,75.466 210.751333,76.3713333 211.358,77.062 C211.955333,77.7433333 212.758,78.084 213.766,78.084 C214.764667,78.084 215.539333,77.7106667 216.09,76.964 L216.09,76.964 L216.09,77.762 C216.09,79.106 215.413333,79.778 214.06,79.778 C212.968,79.778 212.366,79.3533333 212.254,78.504 L212.254,78.504 L210.854,78.504 C210.928667,79.2506667 211.243667,79.8386667 211.799,80.268 C212.354333,80.6973333 213.103333,80.912 214.046,80.912 Z M214.018,76.88 C213.374,76.88 212.860667,76.6536667 212.478,76.201 C212.095333,75.7483333 211.904,75.13 211.904,74.346 C211.904,73.5713333 212.095333,72.9553333 212.478,72.498 C212.860667,72.0406667 213.374,71.812 214.018,71.812 C214.671333,71.812 215.187,72.0383333 215.565,72.491 C215.943,72.9436667 216.132,73.562 216.132,74.346 C216.132,75.13 215.943,75.7483333 215.565,76.201 C215.187,76.6536667 214.671333,76.88 214.018,76.88 Z M222.32,78.168 C223.384,78.168 224.247333,77.8226667 224.91,77.132 C225.563333,76.4506667 225.89,75.536 225.89,74.388 C225.89,73.2306667 225.563333,72.3113333 224.91,71.63 C224.256667,70.9486667 223.393333,70.608 222.32,70.608 C221.246667,70.608 220.383333,70.9486667 219.73,71.63 C219.067333,72.3206667 218.736,73.24 218.736,74.388 C218.736,75.5266667 219.067333,76.4413333 219.73,77.132 C220.392667,77.8226667 221.256,78.168 222.32,78.168 Z M222.32,76.964 C221.666667,76.964 221.148667,76.7353333 220.766,76.278 C220.383333,75.8206667 220.192,75.1906667 220.192,74.388 C220.192,73.5853333 220.383333,72.9553333 220.766,72.498 C221.148667,72.0406667 221.666667,71.812 222.32,71.812 C222.973333,71.812 223.489,72.0406667 223.867,72.498 C224.245,72.9553333 224.434,73.5853333 224.434,74.388 C224.434,75.1906667 224.245,75.8206667 223.867,76.278 C223.489,76.7353333 222.973333,76.964 222.32,76.964 Z M229.18,78.168 C230.262667,78.168 231.046667,77.7853333 231.532,77.02 C231.578667,77.3746667 231.711667,77.6336667 231.931,77.797 C232.150333,77.9603333 232.484,78.042 232.932,78.042 C233.184,78.042 233.412667,78.028 233.618,78 L233.618,78 L233.618,76.922 L233.226,76.922 C232.964667,76.922 232.834,76.8006667 232.834,76.558 L232.834,76.558 L232.834,72.736 C232.834,71.3173333 231.882,70.608 229.978,70.608 C228.036667,70.608 227.014667,71.4153333 226.912,73.03 L226.912,73.03 L228.298,73.03 C228.335333,72.5446667 228.48,72.2063333 228.732,72.015 C228.984,71.8236667 229.399333,71.728 229.978,71.728 C230.51,71.728 230.890333,71.8096667 231.119,71.973 C231.347667,72.1363333 231.462,72.4 231.462,72.764 C231.462,73.0346667 231.375667,73.2423333 231.203,73.387 C231.030333,73.5316667 230.757333,73.6273333 230.384,73.674 L230.384,73.674 L229.32,73.786 C227.509333,73.9726667 226.604,74.7193333 226.604,76.026 C226.604,76.698 226.835,77.223 227.297,77.601 C227.759,77.979 228.386667,78.168 229.18,78.168 Z M229.39,77.076 C228.951333,77.076 228.617667,76.9803333 228.389,76.789 C228.160333,76.5976667 228.046,76.3293333 228.046,75.984 C228.046,75.6386667 228.162667,75.3703333 228.396,75.179 C228.629333,74.9876667 229.016667,74.8593333 229.558,74.794 L229.558,74.794 L230.566,74.682 C230.986,74.6353333 231.284667,74.5373333 231.462,74.388 L231.462,74.388 L231.462,75.144 C231.462,75.76 231.266,76.236 230.874,76.572 C230.482,76.908 229.987333,77.076 229.39,77.076 Z M235.886,78 L235.886,68.032 L234.486,68.032 L234.486,78 L235.886,78 Z M238.952,78 L238.952,76.334 L237.258,76.334 L237.258,78 L238.952,78 Z" id="Nowclick'+'aboveanddefinewhatstepsyouneedtotaketoprogresstowardstheyearlygoal." fill="#000000" fill-rule="nonzero"></path>
            </g>
            <g id="Group-Copy" transform="translate(-0.000000, -0.000000)">
                <rect id="Rectangle-Copy-7" stroke="url(#linearGradient-2)" stroke-width="2" fill="#FFFFFF" x="1" y="1" width="198" height="98" rx="12"></rect>
                <rect id="Rectangle" opacity="0.853143601" x="9.52380952" y="64" width="100" height="25" rx="12.5"></rect>
                <path d="M17.1923828,28 L17.1923828,23.0605469 L22.3515625,23.0605469 L22.3515625,20.8896484 L17.1923828,20.8896484 L17.1923828,17.5849609 L22.84375,17.5849609 L22.84375,15.3173828 L14.5380859,15.3173828 L14.5380859,28 L17.1923828,28 Z M25.9097969,16.8554688 C26.7096016,16.8554688 27.3599922,16.2050781 27.3599922,15.3876953 C27.3599922,14.5703125 26.7096016,13.9287109 25.9097969,13.9287109 C25.1187812,13.9287109 24.4596016,14.5703125 24.4596016,15.3876953 C24.4596016,16.2050781 25.1187812,16.8554688 25.9097969,16.8554688 Z M27.1842109,28 L27.1842109,18.3056641 L24.6265937,18.3056641 L24.6265937,28 L27.1842109,28 Z M31.8938125,28 L31.8938125,22.4101562 C31.8938125,21.1357422 32.6233047,20.3007812 33.8098281,20.3007812 C35.0227187,20.3007812 35.5940078,21.0039062 35.5940078,22.3398438 L35.5940078,28 L38.151625,28 L38.151625,21.7333984 C38.151625,19.4130859 36.9914687,18.0947266 34.8381484,18.0947266 C33.4055312,18.0947266 32.4211562,18.7714844 31.9729141,19.8613281 L31.8147109,19.8613281 L31.8147109,18.3056641 L29.3361953,18.3056641 L29.3361953,28 L31.8938125,28 Z M41.4989219,16.8554688 C42.2987266,16.8554688 42.9491172,16.2050781 42.9491172,15.3876953 C42.9491172,14.5703125 42.2987266,13.9287109 41.4989219,13.9287109 C40.7079063,13.9287109 40.0487266,14.5703125 40.0487266,15.3876953 C40.0487266,16.2050781 40.7079063,16.8554688 41.4989219,16.8554688 Z M42.7733359,28 L42.7733359,18.3056641 L40.2157188,18.3056641 L40.2157188,28 L42.7733359,28 Z M48.7485625,28.2109375 C51.2886016,28.2109375 53.0200469,26.9453125 53.0200469,25.0117188 C53.0200469,23.5615234 52.1762969,22.7705078 50.2954375,22.3574219 L48.4761016,21.9619141 C47.5796172,21.7597656 47.1665313,21.4697266 47.1665313,20.9951172 C47.1665313,20.3798828 47.8432891,19.9667969 48.7573516,19.9667969 C49.7065703,19.9667969 50.2954375,20.3535156 50.4272734,20.9775391 L52.7915313,20.9775391 C52.6509063,19.1230469 51.2007109,18.0947266 48.7397734,18.0947266 C46.3227813,18.0947266 44.7055938,19.3164062 44.7055938,21.1533203 C44.7055938,22.6474609 45.6196563,23.5439453 47.5005156,23.9570312 L49.2583281,24.3525391 C50.1108672,24.5371094 50.4800078,24.8271484 50.4800078,25.3017578 C50.4800078,25.9257812 49.7944609,26.3388672 48.8012969,26.3388672 C47.7817656,26.3388672 47.1577422,25.9609375 46.9643828,25.3017578 L44.4682891,25.3017578 C44.6440703,27.1650391 46.1909453,28.2109375 48.7485625,28.2109375 Z M57.3341406,28 L57.3341406,22.4365234 C57.3341406,21.1796875 58.0724219,20.3271484 59.355625,20.3271484 C60.5157813,20.3271484 61.1398047,21.0214844 61.1398047,22.3662109 L61.1398047,28 L63.6974219,28 L63.6974219,21.7597656 C63.6974219,19.4306641 62.4581641,18.1210938 60.3751563,18.1210938 C58.9513281,18.1210938 57.8966406,18.7890625 57.4483984,19.8964844 L57.2901953,19.8964844 L57.2901953,14.6054688 L54.7765234,14.6054688 L54.7765234,28 L57.3341406,28 Z M73.9691641,28.0351562 C74.4613516,28.0351562 74.9359609,27.9824219 75.2523672,27.9208984 L75.2523672,25.9697266 C75.0062734,25.9960938 74.8304922,26.0048828 74.4965078,26.0048828 C73.6263906,26.0048828 73.2396719,25.6181641 73.2396719,24.7744141 L73.2396719,20.4150391 L75.2523672,20.4150391 L75.2523672,18.4023438 L73.2396719,18.4023438 L73.2396719,16.0029297 L70.6820547,16.0029297 L70.6820547,18.4023438 L69.1703359,18.4023438 L69.1703359,20.4150391 L70.6820547,20.4150391 L70.6820547,25.3808594 C70.6820547,27.2705078 71.6136953,28.0351562 73.9691641,28.0351562 Z M79.5928281,28 L79.5928281,22.4365234 C79.5928281,21.1796875 80.3311094,20.3271484 81.6143125,20.3271484 C82.7744687,20.3271484 83.3984922,21.0214844 83.3984922,22.3662109 L83.3984922,28 L85.9561094,28 L85.9561094,21.7597656 C85.9561094,19.4306641 84.7168516,18.1210938 82.6338437,18.1210938 C81.2100156,18.1210938 80.1553281,18.7890625 79.7070859,19.8964844 L79.5488828,19.8964844 L79.5488828,14.6054688 L77.0352109,14.6054688 L77.0352109,28 L79.5928281,28 Z M92.221375,28.2109375 C94.5944219,28.2109375 96.2731328,27.0595703 96.6510625,25.2402344 L94.2692266,25.2402344 C93.9967656,25.8818359 93.3024297,26.2421875 92.2916875,26.2421875 C90.95575,26.2421875 90.112,25.3457031 90.0768437,23.9042969 L90.0768437,23.7724609 L96.7301641,23.7724609 L96.7301641,22.9902344 C96.7301641,19.9140625 95.0426641,18.0947266 92.1862187,18.0947266 C89.3034062,18.0947266 87.5280156,20.0458984 87.5280156,23.2011719 C87.5280156,26.3476562 89.26825,28.2109375 92.221375,28.2109375 Z M94.2164922,22.1376953 L90.0856328,22.1376953 C90.1735234,20.8808594 91.0084844,20.0546875 92.1950078,20.0546875 C93.3903203,20.0546875 94.1637578,20.8544922 94.2164922,22.1376953 Z M105.244094,28 L105.244094,14.6054688 L102.686477,14.6054688 L102.686477,28 L105.244094,28 Z M110.120687,28.1494141 C111.377523,28.1494141 112.432211,27.6220703 112.933187,26.734375 L113.091391,26.734375 L113.091391,28 L115.569906,28 L115.569906,21.3818359 C115.569906,19.3076172 114.119711,18.0947266 111.553305,18.0947266 C109.118734,18.0947266 107.47518,19.2197266 107.308187,21.0126953 L109.663656,21.0126953 C109.874594,20.4326172 110.489828,20.1162109 111.41268,20.1162109 C112.467367,20.1162109 113.047445,20.5732422 113.047445,21.3818359 L113.047445,22.1728516 L110.700766,22.3134766 C108.292562,22.4541016 106.947836,23.4736328 106.947836,25.2314453 C106.947836,27.0068359 108.257406,28.1494141 110.120687,28.1494141 Z M110.964437,26.2246094 C110.076742,26.2246094 109.452719,25.7851562 109.452719,25.0644531 C109.452719,24.3701172 109.988852,23.9746094 111.087484,23.8955078 L113.047445,23.7724609 L113.047445,24.484375 C113.047445,25.46875 112.150961,26.2246094 110.964437,26.2246094 Z M121.47482,28.2109375 C124.014859,28.2109375 125.746305,26.9453125 125.746305,25.0117188 C125.746305,23.5615234 124.902555,22.7705078 123.021695,22.3574219 L121.202359,21.9619141 C120.305875,21.7597656 119.892789,21.4697266 119.892789,20.9951172 C119.892789,20.3798828 120.569547,19.9667969 121.483609,19.9667969 C122.432828,19.9667969 123.021695,20.3535156 123.153531,20.9775391 L125.517789,20.9775391 C125.377164,19.1230469 123.926969,18.0947266 121.466031,18.0947266 C119.049039,18.0947266 117.431852,19.3164062 117.431852,21.1533203 C117.431852,22.6474609 118.345914,23.5439453 120.226773,23.9570312 L121.984586,24.3525391 C122.837125,24.5371094 123.206266,24.8271484 123.206266,25.3017578 C123.206266,25.9257812 122.520719,26.3388672 121.527555,26.3388672 C120.508023,26.3388672 119.884,25.9609375 119.690641,25.3017578 L117.194547,25.3017578 C117.370328,27.1650391 118.917203,28.2109375 121.47482,28.2109375 Z M131.387547,28.0351562 C131.879734,28.0351562 132.354344,27.9824219 132.67075,27.9208984 L132.67075,25.9697266 C132.424656,25.9960938 132.248875,26.0048828 131.914891,26.0048828 C131.044773,26.0048828 130.658055,25.6181641 130.658055,24.7744141 L130.658055,20.4150391 L132.67075,20.4150391 L132.67075,18.4023438 L130.658055,18.4023438 L130.658055,16.0029297 L128.100437,16.0029297 L128.100437,18.4023438 L126.588719,18.4023438 L126.588719,20.4150391 L128.100437,20.4150391 L128.100437,25.3808594 C128.100437,27.2705078 129.032078,28.0351562 131.387547,28.0351562 Z M18.1064453,50.2109375 C20.6464844,50.2109375 22.3779297,48.9453125 22.3779297,47.0117188 C22.3779297,45.5615234 21.5341797,44.7705078 19.6533203,44.3574219 L17.8339844,43.9619141 C16.9375,43.7597656 16.5244141,43.4697266 16.5244141,42.9951172 C16.5244141,42.3798828 17.2011719,41.9667969 18.1152344,41.9667969 C19.0644531,41.9667969 19.6533203,42.3535156 19.7851562,42.9775391 L22.1494141,42.9775391 C22.0087891,41.1230469 20.5585938,40.0947266 18.0976562,40.0947266 C15.6806641,40.0947266 14.0634766,41.3164062 14.0634766,43.1533203 C14.0634766,44.6474609 14.9775391,45.5439453 16.8583984,45.9570312 L18.6162109,46.3525391 C19.46875,46.5371094 19.8378906,46.8271484 19.8378906,47.3017578 C19.8378906,47.9257812 19.1523438,48.3388672 18.1591797,48.3388672 C17.1396484,48.3388672 16.515625,47.9609375 16.3222656,47.3017578 L13.8261719,47.3017578 C14.0019531,49.1650391 15.5488281,50.2109375 18.1064453,50.2109375 Z M28.2652656,50.2109375 C30.6383125,50.2109375 32.3170234,49.0595703 32.6949531,47.2402344 L30.3131172,47.2402344 C30.0406562,47.8818359 29.3463203,48.2421875 28.3355781,48.2421875 C26.9996406,48.2421875 26.1558906,47.3457031 26.1207344,45.9042969 L26.1207344,45.7724609 L32.7740547,45.7724609 L32.7740547,44.9902344 C32.7740547,41.9140625 31.0865547,40.0947266 28.2301094,40.0947266 C25.3472969,40.0947266 23.5719062,42.0458984 23.5719062,45.2011719 C23.5719062,48.3476562 25.3121406,50.2109375 28.2652656,50.2109375 Z M30.2603828,44.1376953 L26.1295234,44.1376953 C26.2174141,42.8808594 27.052375,42.0546875 28.2388984,42.0546875 C29.4342109,42.0546875 30.2076484,42.8544922 30.2603828,44.1376953 Z M38.6965469,50.2109375 C41.2190078,50.2109375 42.8010391,48.8134766 43.0119766,46.6425781 L40.6213516,46.6425781 C40.4279922,47.6005859 39.7424453,48.1103516 38.6965469,48.1103516 C37.3254531,48.1103516 36.5432266,47.0644531 36.5432266,45.1308594 C36.5432266,43.2236328 37.3166641,42.1953125 38.6965469,42.1953125 C39.7863906,42.1953125 40.4455703,42.8017578 40.6213516,43.7246094 L43.0119766,43.7246094 C42.8010391,41.5185547 41.2629531,40.0947266 38.6965469,40.0947266 C35.6643203,40.0947266 33.9592422,41.9140625 33.9592422,45.1308594 C33.9592422,48.3828125 35.6731094,50.2109375 38.6965469,50.2109375 Z M48.6795859,50.0351562 C49.1717734,50.0351562 49.6463828,49.9824219 49.9627891,49.9208984 L49.9627891,47.9697266 C49.7166953,47.9960938 49.5409141,48.0048828 49.2069297,48.0048828 C48.3368125,48.0048828 47.9500938,47.6181641 47.9500938,46.7744141 L47.9500938,42.4150391 L49.9627891,42.4150391 L49.9627891,40.4023438 L47.9500938,40.4023438 L47.9500938,38.0029297 L45.3924766,38.0029297 L45.3924766,40.4023438 L43.8807578,40.4023438 L43.8807578,42.4150391 L45.3924766,42.4150391 L45.3924766,47.3808594 C45.3924766,49.2705078 46.3241172,50.0351562 48.6795859,50.0351562 Z M52.9585234,38.8554688 C53.7583281,38.8554688 54.4087187,38.2050781 54.4087187,37.3876953 C54.4087187,36.5703125 53.7583281,35.9287109 52.9585234,35.9287109 C52.1675078,35.9287109 51.5083281,36.5703125 51.5083281,37.3876953 C51.5083281,38.2050781 52.1675078,38.8554688 52.9585234,38.8554688 Z M54.2329375,50 L54.2329375,40.3056641 L51.6753203,40.3056641 L51.6753203,50 L54.2329375,50 Z M60.6827734,50.2109375 C63.6622656,50.2109375 65.4552344,48.3212891 65.4552344,45.1484375 C65.4552344,42.0019531 63.6358984,40.0947266 60.6827734,40.0947266 C57.7296484,40.0947266 55.9103125,42.0107422 55.9103125,45.1484375 C55.9103125,48.3212891 57.7032813,50.2109375 60.6827734,50.2109375 Z M60.6827734,48.1191406 C59.3116797,48.1191406 58.5382422,47.0380859 58.5382422,45.1484375 C58.5382422,43.2851562 59.3204687,42.1865234 60.6827734,42.1865234 C62.0362891,42.1865234 62.8273047,43.2851562 62.8273047,45.1484375 C62.8273047,47.0292969 62.0450781,48.1191406 60.6827734,48.1191406 Z M69.6638594,50 L69.6638594,44.4101562 C69.6638594,43.1357422 70.3933516,42.3007812 71.579875,42.3007812 C72.7927656,42.3007812 73.3640547,43.0039062 73.3640547,44.3398438 L73.3640547,50 L75.9216719,50 L75.9216719,43.7333984 C75.9216719,41.4130859 74.7615156,40.0947266 72.6081953,40.0947266 C71.1755781,40.0947266 70.1912031,40.7714844 69.7429609,41.8613281 L69.5847578,41.8613281 L69.5847578,40.3056641 L67.1062422,40.3056641 L67.1062422,50 L69.6638594,50 Z" id="Finishthelastsection" fill="#000000" fill-rule="nonzero"></path>
            </g>
        </g>
    </g>
</svg>