<?xml version="1.0" encoding="UTF-8"?>
<svg width="53px" height="53px" viewBox="0 0 53 53" version="1.1" xmlns="http://www.w3.org/2000/svg" xmlns:xlink="http://www.w3.org/1999/xlink">
    <!-- Generator: Sketch 59.1 (86144) - https://sketch.com -->
    <desc>Created with Sketch.</desc>
    <g id="Web" stroke="none" stroke-width="1" fill="none" fill-rule="evenodd">
        <g id="github" fill="#000000" fill-rule="nonzero">
            <path d="M49.445203,13.5291583 C47.0754995,9.36714084 43.861148,6.07206583 39.8013025,3.64318994 C35.7408527,1.21419017 31.3080521,0 26.4997583,0 C21.6920688,0 17.2578179,1.21456183 13.1982141,3.64318994 C9.13800605,6.07194194 5.92377539,9.36714084 3.55407186,13.5291583 C1.18473091,17.6910519 0,22.2358719 0,27.1634944 C0,33.082687 1.68470354,38.4053766 5.05495661,43.1329259 C8.42484711,47.8608469 12.7782468,51.1323839 18.114793,52.9479086 C18.7359821,53.0660942 19.1958312,52.9829678 19.4948238,52.7006355 C19.7939372,52.4179315 19.9433127,52.0638701 19.9433127,51.639938 C19.9433127,51.5692 19.9373908,50.9328063 19.9259097,49.7300135 C19.914066,48.5272207 19.9085067,47.4779205 19.9085067,46.5826086 L19.1148591,46.7233411 C18.6088438,46.8183604 17.9704934,46.8586228 17.199808,46.8472255 C16.4294852,46.8361998 15.6297948,46.753445 14.8018247,46.5995807 C13.9734919,46.4470791 13.2030483,46.0933894 12.4898893,45.5392549 C11.7770929,44.9851203 11.2710776,44.2597777 10.9719642,43.3643418 L10.6269263,42.5504219 C10.3969413,42.0085519 10.0348629,41.406598 9.54020787,40.7467901 C9.0455528,40.0863628 8.54533846,39.6386449 8.03932313,39.4028931 L7.79773616,39.2256146 C7.63675874,39.1078006 7.48738331,38.9657053 7.34924729,38.8008153 C7.21123212,38.6359253 7.10790202,38.4709114 7.03889444,38.3056497 C6.969766,38.1402641 7.02705075,38.0046108 7.21135297,37.8981942 C7.39565519,37.7917776 7.72872857,37.7401178 8.21202337,37.7401178 L8.9018575,37.8457911 C9.36194835,37.9403148 9.93104942,38.2226472 10.6098859,38.6945226 C11.2883597,39.1660263 11.8461005,39.7790059 12.2832291,40.5332136 C12.8125693,41.5002545 13.4503154,42.2371184 14.1982802,42.7441769 C14.9456408,43.2512354 15.699165,43.5043311 16.4581275,43.5043311 C17.2170901,43.5043311 17.8726017,43.4453622 18.4249041,43.3280437 C18.9766022,43.2101058 19.4942195,43.0328274 19.9775143,42.7971994 C20.1845371,41.2166833 20.7481997,40.0024932 21.6680189,39.1537617 C20.3569956,39.0125336 19.1783074,38.7998242 18.13135,38.5169963 C17.0849968,38.2337968 16.0037168,37.774186 14.8882352,37.1369251 C13.7721493,36.5005313 12.8462875,35.7102733 12.110408,34.7675137 C11.3744077,33.8242585 10.7703798,32.5859109 10.2991704,31.0535858 C9.82771933,29.5206412 9.59193334,27.7523165 9.59193334,25.7481161 C9.59193334,22.8944409 10.5007548,20.4660605 12.3180351,18.4616123 C11.4667401,16.3161837 11.5471079,13.9110936 12.5593803,11.2465898 C13.2264939,11.0341282 14.215804,11.1935673 15.5268273,11.7239161 C16.8380922,12.2545126 17.7981557,12.7090441 18.4079846,13.0859002 C19.0178134,13.4626324 19.5064258,13.7818823 19.8745468,14.0408005 C22.0142653,13.4279448 24.2223872,13.121455 26.4995166,13.121455 C28.776646,13.121455 30.9852513,13.4279448 33.1250906,14.0408005 L34.4362347,13.1923168 C35.3328499,12.6261655 36.391651,12.107338 37.6101002,11.6357104 C38.8292745,11.1643306 39.7615415,11.0344998 40.4059346,11.2469614 C41.4406858,13.9115892 41.5328973,16.3165554 40.6813607,18.461984 C42.4985201,20.4664322 43.4077041,22.895432 43.4077041,25.7484877 C43.4077041,27.7526882 43.1710721,29.5265877 42.7003461,31.0713012 C42.2290159,32.6162625 41.6197913,33.8533713 40.8724307,34.7852291 C40.1242241,35.716963 39.1924405,36.5010269 38.0769589,37.1372967 C36.9612355,37.7740621 35.879593,38.2336729 34.8332398,38.5168725 C33.7864033,38.800072 32.607715,39.0129052 31.2966918,39.1543811 C32.4924204,40.2150786 33.0904056,41.8893752 33.0904056,44.1765274 L33.0904056,51.6389469 C33.0904056,52.062879 33.2342217,52.4168165 33.5220957,52.6996444 C33.8096072,52.9819768 34.2636554,53.0651031 34.8848445,52.9467936 C40.2221158,51.1315167 44.5755155,47.8598559 47.9452851,43.1319348 C51.3146922,38.4043855 53,33.0816959 53,27.1625033 C52.9987915,22.2355002 51.8134563,17.6910519 49.445203,13.5291583 Z" id="Path"></path>
        </g>
    </g>
</svg>