<?xml version="1.0" encoding="UTF-8"?>
<svg width="61px" height="48px" viewBox="0 0 61 48" version="1.1" xmlns="http://www.w3.org/2000/svg" xmlns:xlink="http://www.w3.org/1999/xlink">
    <!-- Generator: Sketch 59.1 (86144) - https://sketch.com -->
    <desc>Created with Sketch.</desc>
    <g id="Web" stroke="none" stroke-width="1" fill="none" fill-rule="evenodd">
        <g id="icZeplin" fill-rule="nonzero">
            <path d="M10.2250028,33.0840797 L7.086191,34.2307306 L6.9176616,43.5684487 L17.7831675,39.5991498 C14.0564263,38.3472886 11.3349322,36.1447793 10.2250028,33.0840797" id="Path" fill="#FDBD39"></path>
            <path d="M11.8676263,23.2078406 L0.976991,27.1863498 L7.086191,34.2307306 L10.2250028,33.0840797 C9.11832041,30.032307 9.80080276,26.5825771 11.8676263,23.2078406" id="Path" fill="#F69833"></path>
            <path d="M30.1946263,9.73401033 C16.3264381,14.8002244 7.38569688,25.2544118 10.2250028,33.0840797 L60.4462381,14.7376295 C57.6069322,6.9079262 44.0628498,4.6677609 30.1946263,9.73401033" id="Path" fill="#FECF33"></path>
            <path d="M40.4765792,38.0876989 C54.3448028,33.0214494 63.3023439,22.6136325 60.4462381,14.7376295 L10.2250028,33.0840797 C13.0810734,40.9601181 26.608391,43.1539129 40.4765792,38.0876989" id="Path" fill="#EE6723"></path>
            <path d="M60.4462381,14.7376295 L10.2250028,33.0840797 C11.2084028,35.7959203 14.9585086,37.1319498 20.2203322,37.1319498 C25.350191,37.1319498 31.9168734,35.8630494 38.7629086,33.3620546 C52.6311675,28.2958406 62.3883675,20.0932959 60.4462381,14.7376295" id="Path" fill="#F69833"></path>
            <path d="M50.4509086,10.689724 C45.3210145,10.689724 38.7543675,11.9586598 31.9082616,14.4596192 C18.0400734,19.5258686 8.28283806,27.7283779 10.2250028,33.0840797 L60.4462381,14.7376295 C59.4628381,12.0257535 55.7127322,10.689724 50.4509086,10.689724" id="Path" fill="#FDBD39"></path>
            <path d="M47.6773557,44.0629018 L47.6770028,44.0629018 C46.1994145,44.0629018 44.0195086,42.7282185 41.1977792,40.0959764 C37.8595204,36.981786 34.0355439,32.4205107 30.4301086,27.2524517 C26.8248145,22.0846052 23.8622969,16.9179631 22.0883086,12.7042007 C20.1554969,8.11224797 19.8799204,5.28882066 21.2692028,4.3122775 C21.5738263,4.09838524 21.9410263,3.99002214 22.3605322,3.99002214 C23.4906145,3.99002214 25.6925439,4.83138598 29.7642851,8.83986421 L29.8533322,8.92746864 L29.8412969,9.0520561 C29.8134498,9.34002066 29.787791,9.63057122 29.7649204,9.91573727 L29.7195322,10.4819956 L29.3200734,10.0795395 C24.9329086,5.65967823 23.0016851,5.18251218 22.3749322,5.18251218 C22.1962028,5.18251218 22.0538616,5.21885756 21.9518263,5.29059188 C21.3492145,5.71401918 21.3104263,7.78790258 23.1842969,12.2392915 C24.9266263,16.3779542 27.8460498,21.4664502 31.404791,26.5673801 C34.9636734,31.6688059 38.7291322,36.1626686 42.0077086,39.221172 C45.5431557,42.5191793 47.1363322,42.8753004 47.6572381,42.8753004 C47.8370969,42.8753004 47.9832498,42.8366524 48.0916381,42.7604192 C48.7273557,42.3137535 48.7280969,40.0920797 46.6384028,35.3009004 L46.5424734,35.0809506 L46.7524734,34.9659985 C46.9625086,34.8510111 47.1656263,34.7377948 47.3561086,34.6295026 L47.6076851,34.4865299 L47.7236616,34.752248 C49.2053792,38.1471764 50.5904263,42.4620399 48.7742616,43.7387336 C48.4680498,43.9538303 48.0990498,44.0629018 47.6773557,44.0629018 L47.6773557,44.0629018 Z M47.6770028,43.5392236 L47.6773778,43.5392236 L47.6771278,43.801045 L47.6770028,43.5392236 Z" id="Shape" fill="#EE6723"></path>
            <path d="M40.8132498,37.9445491 L40.7921439,38.2054849 C40.4415322,42.5437993 39.5183792,47.7594686 37.111391,47.9705624 C37.0629675,47.9748841 37.0127439,47.9771159 36.9625204,47.9771159 C35.3273792,47.9771159 33.7804028,45.6343262 32.3646498,41.0137151 C31.0251322,36.6423498 29.9856851,30.7731011 29.4377792,24.4871911 C28.8898381,18.2025919 28.8980616,12.2413815 29.4608969,7.70178598 C30.0743792,2.75502288 31.2423322,0.17166642 32.9321086,0.02338008 C32.9820498,0.01877491 33.0338263,0.01640148 33.0849675,0.01640148 C34.2711675,0.01640148 36.0588851,1.35955128 37.8890263,7.6157048 L36.6940381,7.84635277 C36.082991,5.75571365 35.4170616,4.05534465 34.7559675,2.88694317 C34.1444263,1.80621697 33.5498263,1.2110524 33.0815792,1.2110524 C33.066191,1.2110524 33.0506969,1.21169004 33.0354145,1.21300074 C32.302991,1.27733137 31.2363322,3.053969 30.6416616,7.84929299 C30.0888498,12.307448 30.0821792,18.1793181 30.6228851,24.3832561 C31.1639086,30.5881151 32.1863792,36.3696531 33.5018616,40.6626952 C34.090991,42.5854229 34.737191,44.1700251 35.3705792,45.2452959 C35.9546616,46.236859 36.5198969,46.7829609 36.9621675,46.7829609 C36.9773792,46.7829609 36.9925204,46.7822524 37.0076263,46.7809771 C37.7084263,46.7195513 39.0290969,44.8707542 39.5849439,38.3660635 L40.8132498,37.9445491" id="Path" fill="#EE6723"></path>
        </g>
    </g>
</svg>