<svg width="40" height="40" viewBox="0 0 40 40" fill="none" xmlns="http://www.w3.org/2000/svg">
<path d="M40 20C40 31.045 31.045 40 20 40C8.955 40 0 31.045 0 20C0 8.955 8.955 0 20 0C31.045 0 40 8.955 40 20Z" fill="#64B9F1"/>
<path d="M7.55203 19.717C14.542 16.642 23.587 12.893 24.836 12.374C28.111 11.016 29.116 11.276 28.615 14.284C28.255 16.446 27.217 23.603 26.389 28.058C25.898 30.7 24.796 31.013 23.064 29.87C22.231 29.32 18.026 26.539 17.113 25.886C16.28 25.291 15.131 24.575 16.572 23.165C17.085 22.663 20.446 19.453 23.065 16.955C23.408 16.627 22.977 16.088 22.581 16.351C19.051 18.692 14.157 21.941 13.534 22.364C12.593 23.003 11.689 23.296 10.067 22.83C8.84103 22.478 7.64403 22.058 7.17803 21.898C5.38303 21.282 5.80903 20.484 7.55203 19.717Z" fill="white"/>
</svg>
