<svg xmlns="http://www.w3.org/2000/svg" width="41" height="41" viewBox="0 0 41 41">
    <g fill="none" fill-rule="nonzero">
        <path fill="#F4F4F4" d="M20.5.5c11.046 0 20 8.954 20 20s-8.954 20-20 20-20-8.954-20-20 8.954-20 20-20z"/>
        <path fill="#F6F6F6" d="M20.5 3.5c-9.389 0-17 7.611-17 17s7.611 17 17 17 17-7.611 17-17-7.611-17-17-17z"/>
        <path fill="#9AEF7F" d="M18.03 25.765l-5.123-3.89a1.5 1.5 0 1 0-1.814 2.389l6.298 4.783a1.5 1.5 0 0 0 2.087-.269l10.086-12.852a1.5 1.5 0 1 0-2.36-1.852l-9.175 11.69z"/>
    </g>
</svg>
