<svg xmlns="http://www.w3.org/2000/svg" width="41" height="41"><g fill="none"><path fill="#bbb" d="M20.5.5c11.046 0 20 8.954 20 20s-8.954 20-20 20-20-8.954-20-20 8.954-20 20-20zm0 3c-9.389 0-17 7.611-17 17s7.611 17 17 17 17-7.611 17-17-7.611-17-17-17z" opacity=".902"/><g fill="#bbb"><path d="M22.86 16.22l.736-.784c.947-.905 2.44-.98 3.239-.214.76.73.687 2.052-.283 2.982l-2.827 2.71c-.958.918-2.36 1.028-3.181.37l-.114-.1a1.5 1.5 0 00-2.076 2.167c2.011 1.927 5.328 1.76 7.447-.271l2.827-2.71c2.152-2.062 2.332-5.349.283-7.314-2.011-1.927-5.328-1.76-7.447.271l-.791.84a1.5 1.5 0 102.188 2.053z"/><path d="M18.907 25.36l-.855.901c-.953.912-2.445.987-3.244.22-.76-.728-.688-2.051.282-2.982l2.827-2.71c.958-.917 2.36-1.028 3.182-.37l.113.1a1.5 1.5 0 102.076-2.166c-2.01-1.927-5.328-1.76-7.447.271l-2.827 2.71c-2.151 2.062-2.332 5.349-.282 7.313 2.01 1.928 5.328 1.76 7.446-.27l.906-.952a1.5 1.5 0 00-2.177-2.065z"/></g></g></svg>
